STARTFONT 2.3
FONT -FontForge-Roboto Condensed-Book-R-Condensed---11-110-72-72-P-54-ISO10646-1
SIZE 11 72 72  2
FONTBOUNDINGBOX 19 17 -8 -3
COMMENT "Generated by fontforge, http://fontforge.sourceforge.net"
COMMENT "Copyright 2011 Google Inc. All Rights Reserved."
STARTPROPERTIES 42
FOUNDRY "FontForge"
FAMILY_NAME "Roboto Condensed"
WEIGHT_NAME "Book"
SLANT "R"
SETWIDTH_NAME "Condensed"
ADD_STYLE_NAME ""
PIXEL_SIZE 11
POINT_SIZE 110
RESOLUTION_X 72
RESOLUTION_Y 72
SPACING "P"
AVERAGE_WIDTH 54
CHARSET_REGISTRY "ISO10646"
CHARSET_ENCODING "1"
FONTNAME_REGISTRY ""
CHARSET_COLLECTIONS "ISO8859-2 ISO8859-5 ISO8859-7 ISO8859-9 ISO8859-4 ISO10646-1"
BITS_PER_PIXEL 2
FONT_NAME "RobotoCondensed-Regular"
FACE_NAME "Roboto Condensed"
COPYRIGHT "Copyright 2011 Google Inc. All Rights Reserved."
FONT_VERSION "2.137; 2017"
FONT_ASCENT 8
FONT_DESCENT 3
UNDERLINE_POSITION -1
UNDERLINE_THICKNESS 1
X_HEIGHT 5
CAP_HEIGHT 7
DEFAULT_CHAR 1
RAW_ASCENT 750
RAW_DESCENT 250
NORM_SPACE 3
RELATIVE_WEIGHT 40
RELATIVE_SETWIDTH 50
SUPERSCRIPT_X 0
SUPERSCRIPT_Y 5
SUPERSCRIPT_SIZE 7
SUBSCRIPT_X 0
SUBSCRIPT_Y 1
SUBSCRIPT_SIZE 7
FIGURE_WIDTH 5
AVG_LOWERCASE_WIDTH 52
AVG_UPPERCASE_WIDTH 63
ENDPROPERTIES
CHARS 1296
STARTCHAR uni0000
ENCODING 0
SWIDTH 0 0
DWIDTH 0 0
BBX 1 1 0 0
BITMAP
00
ENDCHAR
STARTCHAR uni0002
ENCODING 2
SWIDTH 0 0
DWIDTH 0 0
BBX 1 1 0 0
BITMAP
00
ENDCHAR
STARTCHAR uni000D
ENCODING 13
SWIDTH 229 0
DWIDTH 3 0
BBX 1 1 0 0
BITMAP
00
ENDCHAR
STARTCHAR space
ENCODING 32
SWIDTH 229 0
DWIDTH 3 0
BBX 1 1 0 0
BITMAP
00
ENDCHAR
STARTCHAR exclam
ENCODING 33
SWIDTH 245 0
DWIDTH 3 0
BBX 1 8 1 0
BITMAP
C0
C0
80
80
80
80
00
80
ENDCHAR
STARTCHAR quotedbl
ENCODING 34
SWIDTH 319 0
DWIDTH 4 0
BBX 3 3 0 5
BITMAP
58
58
58
ENDCHAR
STARTCHAR numbersign
ENCODING 35
SWIDTH 547 0
DWIDTH 6 0
BBX 6 8 0 0
BITMAP
0580
0880
3FE0
0880
0980
7FD0
1640
2600
ENDCHAR
STARTCHAR dollar
ENCODING 36
SWIDTH 493 0
DWIDTH 5 0
BBX 5 10 0 -1
BITMAP
0900
1F00
3180
3040
2900
0740
1180
6180
2F40
0800
ENDCHAR
STARTCHAR percent
ENCODING 37
SWIDTH 632 0
DWIDTH 7 0
BBX 7 8 0 0
BITMAP
3800
5940
5980
3A00
02B0
0994
1594
00B0
ENDCHAR
STARTCHAR ampersand
ENCODING 38
SWIDTH 543 0
DWIDTH 6 0
BBX 6 8 0 0
BITMAP
1E00
3640
2600
1D00
2A50
6390
61C0
2EA0
ENDCHAR
STARTCHAR quotesingle
ENCODING 39
SWIDTH 174 0
DWIDTH 2 0
BBX 2 2 0 6
BITMAP
50
50
ENDCHAR
STARTCHAR parenleft
ENCODING 40
SWIDTH 313 0
DWIDTH 3 0
BBX 3 12 0 -3
BITMAP
08
18
24
30
60
60
60
60
30
24
18
08
ENDCHAR
STARTCHAR parenright
ENCODING 41
SWIDTH 318 0
DWIDTH 4 0
BBX 3 12 0 -3
BITMAP
40
20
20
14
18
18
18
18
14
20
20
40
ENDCHAR
STARTCHAR asterisk
ENCODING 42
SWIDTH 430 0
DWIDTH 5 0
BBX 5 5 0 3
BITMAP
0800
5940
2D00
2600
0100
ENDCHAR
STARTCHAR plus
ENCODING 43
SWIDTH 496 0
DWIDTH 5 0
BBX 5 7 0 0
BITMAP
0400
0900
0900
BFC0
0900
0900
0400
ENDCHAR
STARTCHAR comma
ENCODING 44
SWIDTH 196 0
DWIDTH 2 0
BBX 2 3 0 -2
BITMAP
60
60
80
ENDCHAR
STARTCHAR hyphen
ENCODING 45
SWIDTH 248 0
DWIDTH 3 0
BBX 3 1 0 3
BITMAP
B4
ENDCHAR
STARTCHAR period
ENCODING 46
SWIDTH 263 0
DWIDTH 3 0
BBX 1 1 1 0
BITMAP
C0
ENDCHAR
STARTCHAR slash
ENCODING 47
SWIDTH 370 0
DWIDTH 4 0
BBX 4 9 0 -1
BITMAP
06
09
08
08
14
20
20
50
80
ENDCHAR
STARTCHAR zero
ENCODING 48
SWIDTH 493 0
DWIDTH 5 0
BBX 5 8 0 0
BITMAP
1E00
3280
6180
6080
6080
6180
3280
1E00
ENDCHAR
STARTCHAR one
ENCODING 49
SWIDTH 493 0
DWIDTH 5 0
BBX 3 8 1 0
BITMAP
64
A4
24
24
24
24
24
24
ENDCHAR
STARTCHAR two
ENCODING 50
SWIDTH 493 0
DWIDTH 5 0
BBX 5 8 0 0
BITMAP
2E00
6280
5180
0240
0600
1800
2400
7FC0
ENDCHAR
STARTCHAR three
ENCODING 51
SWIDTH 493 0
DWIDTH 5 0
BBX 5 8 0 0
BITMAP
2E00
6280
1240
0F00
0280
1180
6280
2E00
ENDCHAR
STARTCHAR four
ENCODING 52
SWIDTH 493 0
DWIDTH 5 0
BBX 5 8 0 0
BITMAP
0340
0B40
0A40
2640
6240
BFC0
0240
0240
ENDCHAR
STARTCHAR five
ENCODING 53
SWIDTH 493 0
DWIDTH 5 0
BBX 4 8 1 0
BITMAP
BE
80
C0
FD
46
03
C6
7D
ENDCHAR
STARTCHAR six
ENCODING 54
SWIDTH 493 0
DWIDTH 5 0
BBX 5 8 0 0
BITMAP
0B00
2400
3000
7F40
7180
60C0
3180
1F40
ENDCHAR
STARTCHAR seven
ENCODING 55
SWIDTH 493 0
DWIDTH 5 0
BBX 5 8 0 0
BITMAP
BFC0
0180
0240
0300
0600
0900
1800
2400
ENDCHAR
STARTCHAR eight
ENCODING 56
SWIDTH 493 0
DWIDTH 5 0
BBX 5 8 0 0
BITMAP
2E00
3280
3180
2F00
2180
6180
6180
2E00
ENDCHAR
STARTCHAR nine
ENCODING 57
SWIDTH 493 0
DWIDTH 5 0
BBX 5 8 0 0
BITMAP
2E00
3240
6180
6180
7280
2E80
0740
2D00
ENDCHAR
STARTCHAR colon
ENCODING 58
SWIDTH 233 0
DWIDTH 3 0
BBX 1 6 1 0
BITMAP
80
00
00
00
00
80
ENDCHAR
STARTCHAR semicolon
ENCODING 59
SWIDTH 202 0
DWIDTH 2 0
BBX 2 8 0 -2
BITMAP
60
00
00
00
00
60
60
80
ENDCHAR
STARTCHAR less
ENCODING 60
SWIDTH 445 0
DWIDTH 5 0
BBX 4 5 0 1
BITMAP
02
2D
A0
2D
02
ENDCHAR
STARTCHAR equal
ENCODING 61
SWIDTH 479 0
DWIDTH 5 0
BBX 5 3 0 2
BITMAP
7F80
0000
7F80
ENDCHAR
STARTCHAR greater
ENCODING 62
SWIDTH 459 0
DWIDTH 5 0
BBX 5 5 0 1
BITMAP
6000
1D00
0280
1E00
6000
ENDCHAR
STARTCHAR question
ENCODING 63
SWIDTH 421 0
DWIDTH 5 0
BBX 4 8 0 0
BITMAP
2E
63
03
06
0C
14
00
18
ENDCHAR
STARTCHAR at
ENCODING 64
SWIDTH 769 0
DWIDTH 8 0
BBX 8 10 0 -2
BITMAP
06E4
1918
21E6
2222
5622
5522
5666
23AC
2810
0BD0
ENDCHAR
STARTCHAR A
ENCODING 65
SWIDTH 576 0
DWIDTH 6 0
BBX 6 8 0 0
BITMAP
0600
0B00
0A40
1980
24C0
3FD0
6060
9030
ENDCHAR
STARTCHAR B
ENCODING 66
SWIDTH 545 0
DWIDTH 6 0
BBX 5 8 1 0
BITMAP
FE00
8300
8300
FE00
8340
8240
8340
FE00
ENDCHAR
STARTCHAR C
ENCODING 67
SWIDTH 566 0
DWIDTH 6 0
BBX 6 8 0 0
BITMAP
1B80
3490
6060
6000
6000
6060
3490
1F80
ENDCHAR
STARTCHAR D
ENCODING 68
SWIDTH 570 0
DWIDTH 6 0
BBX 5 8 1 0
BITMAP
FD00
8740
8140
8180
8180
8140
8740
FD00
ENDCHAR
STARTCHAR E
ENCODING 69
SWIDTH 496 0
DWIDTH 5 0
BBX 4 8 1 0
BITMAP
FF
80
80
FE
80
80
80
FF
ENDCHAR
STARTCHAR F
ENCODING 70
SWIDTH 480 0
DWIDTH 5 0
BBX 4 8 1 0
BITMAP
FF
80
80
FD
80
80
80
80
ENDCHAR
STARTCHAR G
ENCODING 71
SWIDTH 590 0
DWIDTH 7 0
BBX 6 8 0 0
BITMAP
1F80
3490
6050
6000
62E0
6060
3460
1B90
ENDCHAR
STARTCHAR H
ENCODING 72
SWIDTH 620 0
DWIDTH 7 0
BBX 5 8 1 0
BITMAP
80C0
80C0
80C0
FFC0
80C0
80C0
80C0
80C0
ENDCHAR
STARTCHAR I
ENCODING 73
SWIDTH 250 0
DWIDTH 3 0
BBX 1 8 1 0
BITMAP
C0
C0
C0
C0
C0
C0
C0
C0
ENDCHAR
STARTCHAR J
ENCODING 74
SWIDTH 483 0
DWIDTH 5 0
BBX 5 8 0 0
BITMAP
0180
0180
0180
0180
0180
4180
A240
2E00
ENDCHAR
STARTCHAR K
ENCODING 75
SWIDTH 544 0
DWIDTH 6 0
BBX 5 8 1 0
BITMAP
8240
8600
9C00
F400
E800
C900
8300
8280
ENDCHAR
STARTCHAR L
ENCODING 76
SWIDTH 475 0
DWIDTH 5 0
BBX 4 8 1 0
BITMAP
80
80
80
80
80
80
80
FF
ENDCHAR
STARTCHAR M
ENCODING 77
SWIDTH 755 0
DWIDTH 8 0
BBX 7 8 1 0
BITMAP
D034
E074
B0A4
A4E4
99A4
8A64
8B24
8624
ENDCHAR
STARTCHAR N
ENCODING 78
SWIDTH 619 0
DWIDTH 7 0
BBX 5 8 1 0
BITMAP
C0C0
E0C0
E0C0
98C0
88C0
86C0
82C0
81C0
ENDCHAR
STARTCHAR O
ENCODING 79
SWIDTH 600 0
DWIDTH 7 0
BBX 6 8 0 0
BITMAP
1B80
34A0
6020
6030
6030
6030
34A0
1F80
ENDCHAR
STARTCHAR P
ENCODING 80
SWIDTH 554 0
DWIDTH 6 0
BBX 5 8 1 0
BITMAP
FE00
8240
8180
8240
FE00
8000
8000
8000
ENDCHAR
STARTCHAR Q
ENCODING 81
SWIDTH 600 0
DWIDTH 7 0
BBX 6 9 0 -1
BITMAP
1F80
34A0
6060
6030
6030
6060
34A0
1FC0
0060
ENDCHAR
STARTCHAR R
ENCODING 82
SWIDTH 530 0
DWIDTH 6 0
BBX 5 8 1 0
BITMAP
FE00
8340
8240
8340
FE00
8900
8300
8240
ENDCHAR
STARTCHAR S
ENCODING 83
SWIDTH 518 0
DWIDTH 6 0
BBX 6 8 0 0
BITMAP
1F40
71C0
6040
2900
0680
5090
60C0
1F40
ENDCHAR
STARTCHAR T
ENCODING 84
SWIDTH 520 0
DWIDTH 6 0
BBX 6 8 0 0
BITMAP
BFD0
0900
0900
0900
0900
0900
0900
0900
ENDCHAR
STARTCHAR U
ENCODING 85
SWIDTH 561 0
DWIDTH 6 0
BBX 6 8 0 0
BITMAP
6060
6060
6060
6060
6060
6090
3090
1F80
ENDCHAR
STARTCHAR V
ENCODING 86
SWIDTH 560 0
DWIDTH 6 0
BBX 6 8 0 0
BITMAP
9060
6090
30D0
24C0
1980
0A40
0B00
0600
ENDCHAR
STARTCHAR W
ENCODING 87
SWIDTH 761 0
DWIDTH 8 0
BBX 8 8 0 0
BITMAP
9183
61C2
2296
3259
2629
2928
1D28
0C18
ENDCHAR
STARTCHAR X
ENCODING 88
SWIDTH 550 0
DWIDTH 6 0
BBX 6 8 0 0
BITMAP
6090
25C0
1A40
0B00
0B00
1A40
35C0
6090
ENDCHAR
STARTCHAR Y
ENCODING 89
SWIDTH 524 0
DWIDTH 6 0
BBX 6 8 0 0
BITMAP
9090
70C0
2640
1B00
0E00
0900
0900
0900
ENDCHAR
STARTCHAR Z
ENCODING 90
SWIDTH 522 0
DWIDTH 6 0
BBX 6 8 0 0
BITMAP
7FC0
0180
0240
0600
0C00
2400
7000
BFD0
ENDCHAR
STARTCHAR bracketleft
ENCODING 91
SWIDTH 250 0
DWIDTH 3 0
BBX 3 11 0 -2
BITMAP
78
60
60
60
60
60
60
60
60
60
78
ENDCHAR
STARTCHAR backslash
ENCODING 92
SWIDTH 369 0
DWIDTH 4 0
BBX 4 9 0 -1
BITMAP
90
60
30
24
18
08
08
05
02
ENDCHAR
STARTCHAR bracketright
ENCODING 93
SWIDTH 250 0
DWIDTH 3 0
BBX 2 11 0 -2
BITMAP
F0
30
30
30
30
30
30
30
30
30
F0
ENDCHAR
STARTCHAR asciicircum
ENCODING 94
SWIDTH 371 0
DWIDTH 4 0
BBX 4 4 0 4
BITMAP
18
28
29
56
ENDCHAR
STARTCHAR underscore
ENCODING 95
SWIDTH 404 0
DWIDTH 4 0
BBX 5 1 0 -1
BITMAP
FF40
ENDCHAR
STARTCHAR grave
ENCODING 96
SWIDTH 309 0
DWIDTH 3 0
BBX 3 2 0 7
BITMAP
60
24
ENDCHAR
STARTCHAR a
ENCODING 97
SWIDTH 479 0
DWIDTH 5 0
BBX 5 6 0 0
BITMAP
2E00
1240
2F80
6180
6280
2E80
ENDCHAR
STARTCHAR b
ENCODING 98
SWIDTH 493 0
DWIDTH 5 0
BBX 5 8 0 0
BITMAP
6000
6000
6F40
7180
60C0
60C0
7180
6F40
ENDCHAR
STARTCHAR c
ENCODING 99
SWIDTH 461 0
DWIDTH 5 0
BBX 5 6 0 0
BITMAP
2E00
6180
5000
5000
6180
2E00
ENDCHAR
STARTCHAR d
ENCODING 100
SWIDTH 496 0
DWIDTH 5 0
BBX 5 8 0 0
BITMAP
0180
0180
2E80
6180
5180
5180
6180
2E80
ENDCHAR
STARTCHAR e
ENCODING 101
SWIDTH 468 0
DWIDTH 5 0
BBX 5 6 0 0
BITMAP
2E00
6180
7F80
6000
6000
2F40
ENDCHAR
STARTCHAR f
ENCODING 102
SWIDTH 316 0
DWIDTH 3 0
BBX 4 9 0 0
BITMAP
1D
24
30
BC
30
30
30
30
30
ENDCHAR
STARTCHAR g
ENCODING 103
SWIDTH 492 0
DWIDTH 5 0
BBX 5 8 0 -2
BITMAP
2E80
6180
5180
5180
6180
2E80
0180
2E00
ENDCHAR
STARTCHAR h
ENCODING 104
SWIDTH 482 0
DWIDTH 5 0
BBX 5 8 0 0
BITMAP
6000
6000
6F40
7280
6180
6180
6180
6180
ENDCHAR
STARTCHAR i
ENCODING 105
SWIDTH 229 0
DWIDTH 3 0
BBX 2 8 0 0
BITMAP
60
00
60
60
60
60
60
60
ENDCHAR
STARTCHAR j
ENCODING 106
SWIDTH 223 0
DWIDTH 2 0
BBX 2 10 0 -2
BITMAP
60
00
60
60
60
60
60
60
60
D0
ENDCHAR
STARTCHAR k
ENCODING 107
SWIDTH 450 0
DWIDTH 5 0
BBX 5 8 0 0
BITMAP
6000
6000
6240
6A00
6C00
7900
6700
6280
ENDCHAR
STARTCHAR l
ENCODING 108
SWIDTH 229 0
DWIDTH 3 0
BBX 2 8 0 0
BITMAP
60
60
60
60
60
60
60
60
ENDCHAR
STARTCHAR m
ENCODING 109
SWIDTH 752 0
DWIDTH 8 0
BBX 8 6 0 0
BITMAP
6F7C
62C9
6186
6186
6186
6186
ENDCHAR
STARTCHAR n
ENCODING 110
SWIDTH 483 0
DWIDTH 5 0
BBX 5 6 0 0
BITMAP
6F40
7280
6180
6180
6180
6180
ENDCHAR
STARTCHAR o
ENCODING 111
SWIDTH 501 0
DWIDTH 6 0
BBX 5 6 0 0
BITMAP
2E40
6180
60C0
60C0
6180
2E40
ENDCHAR
STARTCHAR p
ENCODING 112
SWIDTH 493 0
DWIDTH 5 0
BBX 5 8 0 -2
BITMAP
6F40
6180
60C0
60C0
6180
6F40
6000
6000
ENDCHAR
STARTCHAR q
ENCODING 113
SWIDTH 500 0
DWIDTH 6 0
BBX 5 8 0 -2
BITMAP
2E80
6180
5180
5180
6180
2E80
0180
0180
ENDCHAR
STARTCHAR r
ENCODING 114
SWIDTH 304 0
DWIDTH 3 0
BBX 3 6 0 0
BITMAP
6C
70
60
60
60
60
ENDCHAR
STARTCHAR s
ENCODING 115
SWIDTH 455 0
DWIDTH 5 0
BBX 5 6 0 0
BITMAP
2E00
6240
3900
0740
6240
2E00
ENDCHAR
STARTCHAR t
ENCODING 116
SWIDTH 295 0
DWIDTH 3 0
BBX 3 7 0 0
BITMAP
30
F8
30
30
30
30
28
ENDCHAR
STARTCHAR u
ENCODING 117
SWIDTH 483 0
DWIDTH 5 0
BBX 5 6 0 0
BITMAP
6180
6180
6180
6180
6280
2E80
ENDCHAR
STARTCHAR v
ENCODING 118
SWIDTH 427 0
DWIDTH 5 0
BBX 5 6 0 0
BITMAP
9240
6300
2200
2500
1C00
0C00
ENDCHAR
STARTCHAR w
ENCODING 119
SWIDTH 649 0
DWIDTH 7 0
BBX 7 6 0 0
BITMAP
9318
6758
26A4
38A0
28A0
1860
ENDCHAR
STARTCHAR x
ENCODING 120
SWIDTH 438 0
DWIDTH 5 0
BBX 5 6 0 0
BITMAP
6340
3600
1C00
1D00
3600
6240
ENDCHAR
STARTCHAR y
ENCODING 121
SWIDTH 416 0
DWIDTH 5 0
BBX 5 8 0 -2
BITMAP
9240
6300
3600
2900
1C00
1800
2400
A000
ENDCHAR
STARTCHAR z
ENCODING 122
SWIDTH 438 0
DWIDTH 5 0
BBX 5 6 0 0
BITMAP
7F40
0600
0900
1800
3000
7F40
ENDCHAR
STARTCHAR braceleft
ENCODING 123
SWIDTH 306 0
DWIDTH 3 0
BBX 3 11 0 -2
BITMAP
08
24
24
24
30
A0
30
24
24
24
08
ENDCHAR
STARTCHAR bar
ENCODING 124
SWIDTH 243 0
DWIDTH 3 0
BBX 1 9 1 -1
BITMAP
80
80
80
80
80
80
80
80
80
ENDCHAR
STARTCHAR braceright
ENCODING 125
SWIDTH 306 0
DWIDTH 3 0
BBX 3 11 0 -2
BITMAP
90
30
30
30
24
1C
24
30
30
30
90
ENDCHAR
STARTCHAR asciitilde
ENCODING 126
SWIDTH 589 0
DWIDTH 6 0
BBX 6 2 0 2
BITMAP
2D20
62D0
ENDCHAR
STARTCHAR uni00A0
ENCODING 160
SWIDTH 229 0
DWIDTH 3 0
BBX 1 1 0 0
BITMAP
00
ENDCHAR
STARTCHAR exclamdown
ENCODING 161
SWIDTH 231 0
DWIDTH 3 0
BBX 2 8 0 -2
BITMAP
60
00
20
20
20
60
60
60
ENDCHAR
STARTCHAR cent
ENCODING 162
SWIDTH 479 0
DWIDTH 5 0
BBX 5 9 0 -2
BITMAP
0900
2F00
7180
6000
6000
7180
2F00
0900
0400
ENDCHAR
STARTCHAR sterling
ENCODING 163
SWIDTH 510 0
DWIDTH 6 0
BBX 6 8 0 0
BITMAP
0B40
24C0
2000
2400
7E00
2400
3000
7FD0
ENDCHAR
STARTCHAR currency
ENCODING 164
SWIDTH 712 0
DWIDTH 8 0
BBX 7 7 0 0
BITMAP
6BEC
2828
300C
6008
300C
3828
6BE8
ENDCHAR
STARTCHAR yen
ENCODING 165
SWIDTH 463 0
DWIDTH 5 0
BBX 5 8 0 0
BITMAP
9180
7240
2700
1E00
7F40
0C00
7F40
0C00
ENDCHAR
STARTCHAR brokenbar
ENCODING 166
SWIDTH 239 0
DWIDTH 3 0
BBX 2 9 0 -1
BITMAP
60
60
60
60
00
60
60
60
60
ENDCHAR
STARTCHAR section
ENCODING 167
SWIDTH 537 0
DWIDTH 6 0
BBX 6 11 0 -3
BITMAP
1F40
71C0
6040
3900
6680
6090
39C0
0780
50C0
61C0
2F40
ENDCHAR
STARTCHAR dieresis
ENCODING 168
SWIDTH 417 0
DWIDTH 5 0
BBX 4 1 0 7
BITMAP
63
ENDCHAR
STARTCHAR copyright
ENCODING 169
SWIDTH 785 0
DWIDTH 9 0
BBX 8 8 0 0
BITMAP
07E4
2819
62E2
5912
5912
63E2
2819
07E4
ENDCHAR
STARTCHAR ordfeminine
ENCODING 170
SWIDTH 395 0
DWIDTH 4 0
BBX 3 4 1 4
BITMAP
B4
58
F8
F8
ENDCHAR
STARTCHAR guillemotleft
ENCODING 171
SWIDTH 417 0
DWIDTH 5 0
BBX 4 4 0 1
BITMAP
16
69
69
16
ENDCHAR
STARTCHAR logicalnot
ENCODING 172
SWIDTH 487 0
DWIDTH 5 0
BBX 5 2 0 2
BITMAP
7F40
0140
ENDCHAR
STARTCHAR uni00AD
ENCODING 173
SWIDTH 248 0
DWIDTH 3 0
BBX 3 1 0 3
BITMAP
B4
ENDCHAR
STARTCHAR registered
ENCODING 174
SWIDTH 786 0
DWIDTH 9 0
BBX 8 8 0 0
BITMAP
07E4
2819
67E2
4632
57E2
6622
2819
07E4
ENDCHAR
STARTCHAR macron
ENCODING 175
SWIDTH 414 0
DWIDTH 5 0
BBX 4 1 0 7
BITMAP
7F
ENDCHAR
STARTCHAR degree
ENCODING 176
SWIDTH 373 0
DWIDTH 4 0
BBX 4 3 0 5
BITMAP
2C
65
2C
ENDCHAR
STARTCHAR plusminus
ENCODING 177
SWIDTH 469 0
DWIDTH 5 0
BBX 5 7 0 0
BITMAP
0800
0800
7F80
0800
0800
0400
7F80
ENDCHAR
STARTCHAR uni00B2
ENCODING 178
SWIDTH 329 0
DWIDTH 4 0
BBX 4 5 0 3
BITMAP
78
58
18
20
BD
ENDCHAR
STARTCHAR uni00B3
ENCODING 179
SWIDTH 329 0
DWIDTH 4 0
BBX 3 5 0 3
BITMAP
78
58
28
58
78
ENDCHAR
STARTCHAR acute
ENCODING 180
SWIDTH 313 0
DWIDTH 3 0
BBX 2 2 1 7
BITMAP
A0
80
ENDCHAR
STARTCHAR mu
ENCODING 181
SWIDTH 498 0
DWIDTH 5 0
BBX 5 8 0 -2
BITMAP
6180
6180
6180
6180
7180
7E80
6000
6000
ENDCHAR
STARTCHAR paragraph
ENCODING 182
SWIDTH 434 0
DWIDTH 5 0
BBX 4 8 0 0
BITMAP
1A
7F
BF
BF
3F
07
03
03
ENDCHAR
STARTCHAR periodcentered
ENCODING 183
SWIDTH 243 0
DWIDTH 3 0
BBX 1 1 1 4
BITMAP
80
ENDCHAR
STARTCHAR cedilla
ENCODING 184
SWIDTH 229 0
DWIDTH 3 0
BBX 2 2 0 -2
BITMAP
10
60
ENDCHAR
STARTCHAR uni00B9
ENCODING 185
SWIDTH 329 0
DWIDTH 4 0
BBX 3 5 0 3
BITMAP
24
64
14
14
14
ENDCHAR
STARTCHAR ordmasculine
ENCODING 186
SWIDTH 402 0
DWIDTH 4 0
BBX 4 4 0 4
BITMAP
2D
66
66
2D
ENDCHAR
STARTCHAR guillemotright
ENCODING 187
SWIDTH 417 0
DWIDTH 5 0
BBX 4 4 0 1
BITMAP
69
26
26
69
ENDCHAR
STARTCHAR onequarter
ENCODING 188
SWIDTH 637 0
DWIDTH 7 0
BBX 7 8 0 0
BITMAP
2400
7440
2480
2600
0230
08A0
05F8
0020
ENDCHAR
STARTCHAR onehalf
ENCODING 189
SWIDTH 677 0
DWIDTH 7 0
BBX 7 8 0 0
BITMAP
2400
B480
2540
2600
05B4
0858
1460
00FC
ENDCHAR
STARTCHAR threequarters
ENCODING 190
SWIDTH 673 0
DWIDTH 7 0
BBX 7 8 0 0
BITMAP
2C00
1C20
0950
7D80
0228
0268
08FC
0018
ENDCHAR
STARTCHAR questiondown
ENCODING 191
SWIDTH 421 0
DWIDTH 5 0
BBX 4 8 0 -2
BITMAP
08
00
08
18
30
90
A3
2D
ENDCHAR
STARTCHAR Agrave
ENCODING 192
SWIDTH 576 0
DWIDTH 6 0
BBX 6 11 0 0
BITMAP
0C00
0500
0000
0600
0B00
0A40
1980
24C0
3FD0
6060
9030
ENDCHAR
STARTCHAR Aacute
ENCODING 193
SWIDTH 576 0
DWIDTH 6 0
BBX 6 11 0 0
BITMAP
0280
0200
0000
0600
0B00
0A40
1980
24C0
3FD0
6060
9030
ENDCHAR
STARTCHAR Acircumflex
ENCODING 194
SWIDTH 576 0
DWIDTH 6 0
BBX 6 11 0 0
BITMAP
0600
0940
0000
0600
0B00
0A40
1980
24C0
3FD0
6060
9030
ENDCHAR
STARTCHAR Atilde
ENCODING 195
SWIDTH 576 0
DWIDTH 6 0
BBX 6 11 0 0
BITMAP
0D80
1640
0000
0600
0B00
0A40
1980
24C0
3FD0
6060
9030
ENDCHAR
STARTCHAR Adieresis
ENCODING 196
SWIDTH 576 0
DWIDTH 6 0
BBX 6 10 0 0
BITMAP
1880
0000
0600
0B00
0A40
1980
24C0
3FD0
6060
9030
ENDCHAR
STARTCHAR Aring
ENCODING 197
SWIDTH 576 0
DWIDTH 6 0
BBX 6 11 0 0
BITMAP
0A00
0A00
0000
0600
0B00
0A40
1980
24C0
3FD0
6060
9030
ENDCHAR
STARTCHAR AE
ENCODING 198
SWIDTH 812 0
DWIDTH 9 0
BBX 9 8 0 0
BITMAP
01FF40
029000
069000
09BF00
189000
2FD000
605000
907F80
ENDCHAR
STARTCHAR Ccedilla
ENCODING 199
SWIDTH 566 0
DWIDTH 6 0
BBX 6 10 0 -2
BITMAP
1B80
3490
6060
6000
6000
6060
3490
1F80
0100
0700
ENDCHAR
STARTCHAR Egrave
ENCODING 200
SWIDTH 496 0
DWIDTH 5 0
BBX 4 11 1 0
BITMAP
60
24
00
FF
80
80
FE
80
80
80
FF
ENDCHAR
STARTCHAR Eacute
ENCODING 201
SWIDTH 496 0
DWIDTH 5 0
BBX 4 11 1 0
BITMAP
0D
18
00
FF
80
80
FE
80
80
80
FF
ENDCHAR
STARTCHAR Ecircumflex
ENCODING 202
SWIDTH 496 0
DWIDTH 5 0
BBX 4 11 1 0
BITMAP
28
68
00
FF
80
80
FE
80
80
80
FF
ENDCHAR
STARTCHAR Edieresis
ENCODING 203
SWIDTH 496 0
DWIDTH 5 0
BBX 4 10 1 0
BITMAP
96
00
FF
80
80
FE
80
80
80
FF
ENDCHAR
STARTCHAR Igrave
ENCODING 204
SWIDTH 250 0
DWIDTH 3 0
BBX 2 11 0 0
BITMAP
D0
60
00
30
30
30
30
30
30
30
30
ENDCHAR
STARTCHAR Iacute
ENCODING 205
SWIDTH 250 0
DWIDTH 3 0
BBX 2 11 1 0
BITMAP
60
80
00
C0
C0
C0
C0
C0
C0
C0
C0
ENDCHAR
STARTCHAR Icircumflex
ENCODING 206
SWIDTH 250 0
DWIDTH 3 0
BBX 3 11 0 0
BITMAP
70
98
00
30
30
30
30
30
30
30
30
ENDCHAR
STARTCHAR Idieresis
ENCODING 207
SWIDTH 250 0
DWIDTH 3 0
BBX 4 10 -1 0
BITMAP
63
00
0C
0C
0C
0C
0C
0C
0C
0C
ENDCHAR
STARTCHAR Eth
ENCODING 208
SWIDTH 585 0
DWIDTH 6 0
BBX 6 8 0 0
BITMAP
3F40
3090
3060
FC60
3060
3060
3090
3F40
ENDCHAR
STARTCHAR Ntilde
ENCODING 209
SWIDTH 619 0
DWIDTH 7 0
BBX 5 11 1 0
BITMAP
2600
5A00
0000
C0C0
E0C0
E0C0
98C0
88C0
86C0
82C0
81C0
ENDCHAR
STARTCHAR Ograve
ENCODING 210
SWIDTH 600 0
DWIDTH 7 0
BBX 6 11 0 0
BITMAP
0D00
0600
0000
1B80
34A0
6020
6030
6030
6030
34A0
1F80
ENDCHAR
STARTCHAR Oacute
ENCODING 211
SWIDTH 600 0
DWIDTH 7 0
BBX 6 11 0 0
BITMAP
0280
0200
0000
1B80
34A0
6020
6030
6030
6030
34A0
1F80
ENDCHAR
STARTCHAR Ocircumflex
ENCODING 212
SWIDTH 600 0
DWIDTH 7 0
BBX 6 11 0 0
BITMAP
0700
0940
0000
1B80
34A0
6020
6030
6030
6030
34A0
1F80
ENDCHAR
STARTCHAR Otilde
ENCODING 213
SWIDTH 600 0
DWIDTH 7 0
BBX 6 11 0 0
BITMAP
0D80
1680
0000
1B80
34A0
6020
6030
6030
6030
34A0
1F80
ENDCHAR
STARTCHAR Odieresis
ENCODING 214
SWIDTH 600 0
DWIDTH 7 0
BBX 6 10 0 0
BITMAP
18C0
0000
1B80
34A0
6020
6030
6030
6030
34A0
1F80
ENDCHAR
STARTCHAR multiply
ENCODING 215
SWIDTH 470 0
DWIDTH 5 0
BBX 5 5 0 1
BITMAP
5140
2B00
1D00
2B00
6140
ENDCHAR
STARTCHAR Oslash
ENCODING 216
SWIDTH 600 0
DWIDTH 7 0
BBX 6 9 0 -1
BITMAP
1BA0
3490
60A0
6270
6230
6860
2890
2B80
1000
ENDCHAR
STARTCHAR Ugrave
ENCODING 217
SWIDTH 561 0
DWIDTH 6 0
BBX 6 11 0 0
BITMAP
1C00
0900
0000
6060
6060
6060
6060
6060
6090
3090
1F80
ENDCHAR
STARTCHAR Uacute
ENCODING 218
SWIDTH 561 0
DWIDTH 6 0
BBX 6 11 0 0
BITMAP
0240
0600
0000
6060
6060
6060
6060
6060
6090
3090
1F80
ENDCHAR
STARTCHAR Ucircumflex
ENCODING 219
SWIDTH 561 0
DWIDTH 6 0
BBX 6 11 0 0
BITMAP
0A00
0A40
0000
6060
6060
6060
6060
6060
6090
3090
1F80
ENDCHAR
STARTCHAR Udieresis
ENCODING 220
SWIDTH 561 0
DWIDTH 6 0
BBX 6 10 0 0
BITMAP
2580
0000
6060
6060
6060
6060
6060
6090
3090
1F80
ENDCHAR
STARTCHAR Yacute
ENCODING 221
SWIDTH 524 0
DWIDTH 6 0
BBX 6 11 0 0
BITMAP
0340
0600
0000
9090
70C0
2640
1B00
0E00
0900
0900
0900
ENDCHAR
STARTCHAR Thorn
ENCODING 222
SWIDTH 515 0
DWIDTH 6 0
BBX 5 8 0 0
BITMAP
6000
6000
7F40
60C0
60C0
7F40
6000
6000
ENDCHAR
STARTCHAR germandbls
ENCODING 223
SWIDTH 521 0
DWIDTH 6 0
BBX 6 9 0 0
BITMAP
2E00
3240
6240
6300
6200
6240
60C0
60D0
6B80
ENDCHAR
STARTCHAR agrave
ENCODING 224
SWIDTH 479 0
DWIDTH 5 0
BBX 5 9 0 0
BITMAP
2800
0800
0000
2E00
1240
2F80
6180
6280
2E80
ENDCHAR
STARTCHAR aacute
ENCODING 225
SWIDTH 479 0
DWIDTH 5 0
BBX 5 9 0 0
BITMAP
0300
0900
0000
2E00
1240
2F80
6180
6280
2E80
ENDCHAR
STARTCHAR acircumflex
ENCODING 226
SWIDTH 479 0
DWIDTH 5 0
BBX 5 9 0 0
BITMAP
0D00
1600
0000
2E00
1240
2F80
6180
6280
2E80
ENDCHAR
STARTCHAR atilde
ENCODING 227
SWIDTH 479 0
DWIDTH 5 0
BBX 5 9 0 0
BITMAP
2940
2700
0000
2E00
1240
2F80
6180
6280
2E80
ENDCHAR
STARTCHAR adieresis
ENCODING 228
SWIDTH 479 0
DWIDTH 5 0
BBX 5 8 0 0
BITMAP
3240
0000
2E00
1240
2F80
6180
6280
2E80
ENDCHAR
STARTCHAR aring
ENCODING 229
SWIDTH 479 0
DWIDTH 5 0
BBX 5 9 0 0
BITMAP
1A00
1A00
0000
2E00
1240
2F80
6180
6280
2E80
ENDCHAR
STARTCHAR ae
ENCODING 230
SWIDTH 728 0
DWIDTH 8 0
BBX 8 6 0 0
BITMAP
2EB8
1289
2FFE
6240
6280
3DBD
ENDCHAR
STARTCHAR ccedilla
ENCODING 231
SWIDTH 461 0
DWIDTH 5 0
BBX 5 8 0 -2
BITMAP
2E00
6180
5000
5000
6180
2E00
0400
0D00
ENDCHAR
STARTCHAR egrave
ENCODING 232
SWIDTH 468 0
DWIDTH 5 0
BBX 5 9 0 0
BITMAP
2800
0800
0000
2E00
6180
7F80
6000
6000
2F40
ENDCHAR
STARTCHAR eacute
ENCODING 233
SWIDTH 468 0
DWIDTH 5 0
BBX 5 9 0 0
BITMAP
0700
0900
0000
2E00
6180
7F80
6000
6000
2F40
ENDCHAR
STARTCHAR ecircumflex
ENCODING 234
SWIDTH 468 0
DWIDTH 5 0
BBX 5 9 0 0
BITMAP
0D00
1600
0000
2E00
6180
7F80
6000
6000
2F40
ENDCHAR
STARTCHAR edieresis
ENCODING 235
SWIDTH 468 0
DWIDTH 5 0
BBX 5 8 0 0
BITMAP
3240
0000
2E00
6180
7F80
6000
6000
2F40
ENDCHAR
STARTCHAR igrave
ENCODING 236
SWIDTH 234 0
DWIDTH 3 0
BBX 2 9 0 0
BITMAP
D0
60
00
60
60
60
60
60
60
ENDCHAR
STARTCHAR iacute
ENCODING 237
SWIDTH 234 0
DWIDTH 3 0
BBX 3 9 0 0
BITMAP
28
20
00
60
60
60
60
60
60
ENDCHAR
STARTCHAR icircumflex
ENCODING 238
SWIDTH 234 0
DWIDTH 3 0
BBX 3 9 0 0
BITMAP
70
94
00
60
60
60
60
60
60
ENDCHAR
STARTCHAR idieresis
ENCODING 239
SWIDTH 234 0
DWIDTH 3 0
BBX 4 8 -1 0
BITMAP
63
00
18
18
18
18
18
18
ENDCHAR
STARTCHAR eth
ENCODING 240
SWIDTH 513 0
DWIDTH 6 0
BBX 5 9 0 0
BITMAP
2840
0B00
0A40
1E80
31C0
60C0
60C0
3180
1E00
ENDCHAR
STARTCHAR ntilde
ENCODING 241
SWIDTH 483 0
DWIDTH 5 0
BBX 5 9 0 0
BITMAP
2940
2700
0000
6F40
7280
6180
6180
6180
6180
ENDCHAR
STARTCHAR ograve
ENCODING 242
SWIDTH 501 0
DWIDTH 6 0
BBX 5 9 0 0
BITMAP
2800
0800
0000
2E40
6180
60C0
60C0
6180
2E40
ENDCHAR
STARTCHAR oacute
ENCODING 243
SWIDTH 501 0
DWIDTH 6 0
BBX 5 9 0 0
BITMAP
0700
0900
0000
2E40
6180
60C0
60C0
6180
2E40
ENDCHAR
STARTCHAR ocircumflex
ENCODING 244
SWIDTH 501 0
DWIDTH 6 0
BBX 5 9 0 0
BITMAP
0D00
1600
0000
2E40
6180
60C0
60C0
6180
2E40
ENDCHAR
STARTCHAR otilde
ENCODING 245
SWIDTH 501 0
DWIDTH 6 0
BBX 5 9 0 0
BITMAP
2940
2700
0000
2E40
6180
60C0
60C0
6180
2E40
ENDCHAR
STARTCHAR odieresis
ENCODING 246
SWIDTH 501 0
DWIDTH 6 0
BBX 5 8 0 0
BITMAP
3240
0000
2E40
6180
60C0
60C0
6180
2E40
ENDCHAR
STARTCHAR divide
ENCODING 247
SWIDTH 500 0
DWIDTH 6 0
BBX 5 5 0 1
BITMAP
0800
0000
BFC0
0000
0800
ENDCHAR
STARTCHAR oslash
ENCODING 248
SWIDTH 498 0
DWIDTH 5 0
BBX 5 8 0 -1
BITMAP
0040
1F40
7280
65C0
68C0
7580
2E00
1000
ENDCHAR
STARTCHAR ugrave
ENCODING 249
SWIDTH 483 0
DWIDTH 5 0
BBX 5 9 0 0
BITMAP
2800
0800
0000
6180
6180
6180
6180
6280
2E80
ENDCHAR
STARTCHAR uacute
ENCODING 250
SWIDTH 483 0
DWIDTH 5 0
BBX 5 9 0 0
BITMAP
0700
0900
0000
6180
6180
6180
6180
6280
2E80
ENDCHAR
STARTCHAR ucircumflex
ENCODING 251
SWIDTH 483 0
DWIDTH 5 0
BBX 5 9 0 0
BITMAP
0D00
1600
0000
6180
6180
6180
6180
6280
2E80
ENDCHAR
STARTCHAR udieresis
ENCODING 252
SWIDTH 483 0
DWIDTH 5 0
BBX 5 8 0 0
BITMAP
3240
0000
6180
6180
6180
6180
6280
2E80
ENDCHAR
STARTCHAR yacute
ENCODING 253
SWIDTH 416 0
DWIDTH 5 0
BBX 5 11 0 -2
BITMAP
0600
0800
0000
9240
6300
3600
2900
1C00
1800
2400
A000
ENDCHAR
STARTCHAR thorn
ENCODING 254
SWIDTH 508 0
DWIDTH 6 0
BBX 5 10 0 -2
BITMAP
6000
6000
7F40
7180
60C0
60C0
7180
7F40
6000
6000
ENDCHAR
STARTCHAR ydieresis
ENCODING 255
SWIDTH 416 0
DWIDTH 5 0
BBX 5 10 0 -2
BITMAP
6300
0000
9240
6300
3600
2900
1C00
1800
2400
A000
ENDCHAR
STARTCHAR Amacron
ENCODING 256
SWIDTH 576 0
DWIDTH 6 0
BBX 6 10 0 0
BITMAP
1F80
0000
0600
0B00
0A40
1980
24C0
3FD0
6060
9030
ENDCHAR
STARTCHAR amacron
ENCODING 257
SWIDTH 479 0
DWIDTH 5 0
BBX 5 8 0 0
BITMAP
2F40
0000
2E00
1240
2F80
6180
6280
2E80
ENDCHAR
STARTCHAR Abreve
ENCODING 258
SWIDTH 576 0
DWIDTH 6 0
BBX 6 11 0 0
BITMAP
1980
0B40
0000
0600
0B00
0A40
1980
24C0
3FD0
6060
9030
ENDCHAR
STARTCHAR abreve
ENCODING 259
SWIDTH 479 0
DWIDTH 5 0
BBX 5 9 0 0
BITMAP
2240
1E00
0000
2E00
1240
2F80
6180
6280
2E80
ENDCHAR
STARTCHAR Aogonek
ENCODING 260
SWIDTH 576 0
DWIDTH 6 0
BBX 6 10 0 -2
BITMAP
0600
0B00
0A40
1980
24C0
3FD0
6060
9030
0050
0070
ENDCHAR
STARTCHAR aogonek
ENCODING 261
SWIDTH 479 0
DWIDTH 5 0
BBX 5 8 0 -2
BITMAP
2E00
1240
2F80
6180
6280
2E80
0200
0340
ENDCHAR
STARTCHAR Cacute
ENCODING 262
SWIDTH 566 0
DWIDTH 6 0
BBX 6 11 0 0
BITMAP
0280
0200
0000
1B80
3490
6060
6000
6000
6060
3490
1F80
ENDCHAR
STARTCHAR cacute
ENCODING 263
SWIDTH 461 0
DWIDTH 5 0
BBX 5 9 0 0
BITMAP
0600
0800
0000
2E00
6180
5000
5000
6180
2E00
ENDCHAR
STARTCHAR Ccircumflex
ENCODING 264
SWIDTH 566 0
DWIDTH 6 0
BBX 6 11 0 0
BITMAP
0A00
0940
0000
1B80
3490
6060
6000
6000
6060
3490
1F80
ENDCHAR
STARTCHAR ccircumflex
ENCODING 265
SWIDTH 461 0
DWIDTH 5 0
BBX 5 9 0 0
BITMAP
1D00
2600
0000
2E00
6180
5000
5000
6180
2E00
ENDCHAR
STARTCHAR Cdotaccent
ENCODING 266
SWIDTH 566 0
DWIDTH 6 0
BBX 6 10 0 0
BITMAP
0600
0000
1B80
3490
6060
6000
6000
6060
3490
1F80
ENDCHAR
STARTCHAR cdotaccent
ENCODING 267
SWIDTH 461 0
DWIDTH 5 0
BBX 5 8 0 0
BITMAP
0C00
0000
2E00
6180
5000
5000
6180
2E00
ENDCHAR
STARTCHAR Ccaron
ENCODING 268
SWIDTH 566 0
DWIDTH 6 0
BBX 6 11 0 0
BITMAP
0940
0600
0000
1B80
3490
6060
6000
6000
6060
3490
1F80
ENDCHAR
STARTCHAR ccaron
ENCODING 269
SWIDTH 461 0
DWIDTH 5 0
BBX 5 9 0 0
BITMAP
2600
0C00
0000
2E00
6180
5000
5000
6180
2E00
ENDCHAR
STARTCHAR Dcaron
ENCODING 270
SWIDTH 570 0
DWIDTH 6 0
BBX 5 11 1 0
BITMAP
5800
2400
0000
FD00
8740
8140
8180
8180
8140
8740
FD00
ENDCHAR
STARTCHAR dcaron
ENCODING 271
SWIDTH 569 0
DWIDTH 6 0
BBX 6 8 0 0
BITMAP
01A0
01A0
2E80
6180
5180
5180
6180
2E80
ENDCHAR
STARTCHAR Dcroat
ENCODING 272
SWIDTH 585 0
DWIDTH 6 0
BBX 6 8 0 0
BITMAP
3F40
3090
3060
FC60
3060
3060
3090
3F40
ENDCHAR
STARTCHAR dcroat
ENCODING 273
SWIDTH 529 0
DWIDTH 6 0
BBX 6 8 0 0
BITMAP
0180
07E0
2E80
6180
6180
6180
6180
2E80
ENDCHAR
STARTCHAR Emacron
ENCODING 274
SWIDTH 496 0
DWIDTH 5 0
BBX 4 10 1 0
BITMAP
BD
00
FF
80
80
FE
80
80
80
FF
ENDCHAR
STARTCHAR emacron
ENCODING 275
SWIDTH 468 0
DWIDTH 5 0
BBX 5 8 0 0
BITMAP
3F40
0000
2E00
6180
7F80
6000
6000
2F40
ENDCHAR
STARTCHAR Ebreve
ENCODING 276
SWIDTH 496 0
DWIDTH 5 0
BBX 4 11 1 0
BITMAP
95
78
00
FF
80
80
FE
80
80
80
FF
ENDCHAR
STARTCHAR ebreve
ENCODING 277
SWIDTH 468 0
DWIDTH 5 0
BBX 5 9 0 0
BITMAP
3240
1E00
0000
2E00
6180
7F80
6000
6000
2F40
ENDCHAR
STARTCHAR Edotaccent
ENCODING 278
SWIDTH 496 0
DWIDTH 5 0
BBX 4 10 1 0
BITMAP
24
00
FF
80
80
FE
80
80
80
FF
ENDCHAR
STARTCHAR edotaccent
ENCODING 279
SWIDTH 468 0
DWIDTH 5 0
BBX 5 8 0 0
BITMAP
0800
0000
2E00
6180
7F80
6000
6000
2F40
ENDCHAR
STARTCHAR Eogonek
ENCODING 280
SWIDTH 496 0
DWIDTH 5 0
BBX 4 10 1 -2
BITMAP
FF
80
80
FE
80
80
80
FF
09
0A
ENDCHAR
STARTCHAR eogonek
ENCODING 281
SWIDTH 468 0
DWIDTH 5 0
BBX 5 8 0 -2
BITMAP
2E00
6180
7F80
6000
6000
2F40
0900
0A00
ENDCHAR
STARTCHAR Ecaron
ENCODING 282
SWIDTH 496 0
DWIDTH 5 0
BBX 4 11 1 0
BITMAP
68
24
00
FF
80
80
FE
80
80
80
FF
ENDCHAR
STARTCHAR ecaron
ENCODING 283
SWIDTH 468 0
DWIDTH 5 0
BBX 5 9 0 0
BITMAP
2600
0D00
0000
2E00
6180
7F80
6000
6000
2F40
ENDCHAR
STARTCHAR Gcircumflex
ENCODING 284
SWIDTH 590 0
DWIDTH 7 0
BBX 6 11 0 0
BITMAP
0A00
0940
0000
1F80
3490
6050
6000
62E0
6060
3460
1B90
ENDCHAR
STARTCHAR gcircumflex
ENCODING 285
SWIDTH 492 0
DWIDTH 5 0
BBX 5 11 0 -2
BITMAP
0D00
2600
0000
2E80
6180
5180
5180
6180
2E80
0180
2E00
ENDCHAR
STARTCHAR Gbreve
ENCODING 286
SWIDTH 590 0
DWIDTH 7 0
BBX 6 11 0 0
BITMAP
1580
0B40
0000
1F80
3490
6050
6000
62E0
6060
3460
1B90
ENDCHAR
STARTCHAR gbreve
ENCODING 287
SWIDTH 492 0
DWIDTH 5 0
BBX 5 11 0 -2
BITMAP
3200
1E00
0000
2E80
6180
5180
5180
6180
2E80
0180
2E00
ENDCHAR
STARTCHAR Gdotaccent
ENCODING 288
SWIDTH 590 0
DWIDTH 7 0
BBX 6 10 0 0
BITMAP
0600
0000
1F80
3490
6050
6000
62E0
6060
3460
1B90
ENDCHAR
STARTCHAR gdotaccent
ENCODING 289
SWIDTH 492 0
DWIDTH 5 0
BBX 5 10 0 -2
BITMAP
0C00
0000
2E80
6180
5180
5180
6180
2E80
0180
2E00
ENDCHAR
STARTCHAR uni0122
ENCODING 290
SWIDTH 590 0
DWIDTH 7 0
BBX 6 11 0 -3
BITMAP
1F80
3490
6050
6000
62E0
6060
3460
1B90
0000
0200
0500
ENDCHAR
STARTCHAR uni0123
ENCODING 291
SWIDTH 492 0
DWIDTH 5 0
BBX 5 11 0 -2
BITMAP
0900
0C00
0000
2E80
6180
5180
5180
6180
2E80
0180
2E00
ENDCHAR
STARTCHAR Hcircumflex
ENCODING 292
SWIDTH 620 0
DWIDTH 7 0
BBX 5 11 1 0
BITMAP
1C00
2500
0000
80C0
80C0
80C0
FFC0
80C0
80C0
80C0
80C0
ENDCHAR
STARTCHAR hcircumflex
ENCODING 293
SWIDTH 482 0
DWIDTH 5 0
BBX 5 11 0 0
BITMAP
1C00
2600
0000
6000
6000
6F40
7280
6180
6180
6180
6180
ENDCHAR
STARTCHAR Hbar
ENCODING 294
SWIDTH 611 0
DWIDTH 7 0
BBX 7 8 0 0
BITMAP
3030
BFF8
3030
3FF0
3030
3030
3030
3030
ENDCHAR
STARTCHAR hbar
ENCODING 295
SWIDTH 497 0
DWIDTH 5 0
BBX 5 9 0 0
BITMAP
2000
F800
2000
3B40
3580
2180
2180
2180
2180
ENDCHAR
STARTCHAR Itilde
ENCODING 296
SWIDTH 250 0
DWIDTH 3 0
BBX 4 11 -1 0
BITMAP
26
5A
00
0C
0C
0C
0C
0C
0C
0C
0C
ENDCHAR
STARTCHAR itilde
ENCODING 297
SWIDTH 234 0
DWIDTH 3 0
BBX 4 9 -1 0
BITMAP
36
5A
00
18
18
18
18
18
18
ENDCHAR
STARTCHAR Imacron
ENCODING 298
SWIDTH 250 0
DWIDTH 3 0
BBX 4 10 -1 0
BITMAP
7F
00
0C
0C
0C
0C
0C
0C
0C
0C
ENDCHAR
STARTCHAR imacron
ENCODING 299
SWIDTH 234 0
DWIDTH 3 0
BBX 4 8 -1 0
BITMAP
7F
00
18
18
18
18
18
18
ENDCHAR
STARTCHAR Ibreve
ENCODING 300
SWIDTH 250 0
DWIDTH 3 0
BBX 3 11 0 0
BITMAP
8C
B4
00
30
30
30
30
30
30
30
30
ENDCHAR
STARTCHAR ibreve
ENCODING 301
SWIDTH 234 0
DWIDTH 3 0
BBX 4 9 -1 0
BITMAP
62
2D
00
18
18
18
18
18
18
ENDCHAR
STARTCHAR Iogonek
ENCODING 302
SWIDTH 250 0
DWIDTH 3 0
BBX 2 10 0 -2
BITMAP
30
30
30
30
30
30
30
30
90
A0
ENDCHAR
STARTCHAR iogonek
ENCODING 303
SWIDTH 229 0
DWIDTH 3 0
BBX 2 10 0 -2
BITMAP
60
00
60
60
60
60
60
70
80
A0
ENDCHAR
STARTCHAR Idotaccent
ENCODING 304
SWIDTH 250 0
DWIDTH 3 0
BBX 1 10 1 0
BITMAP
80
00
C0
C0
C0
C0
C0
C0
C0
C0
ENDCHAR
STARTCHAR dotlessi
ENCODING 305
SWIDTH 234 0
DWIDTH 3 0
BBX 2 6 0 0
BITMAP
60
60
60
60
60
60
ENDCHAR
STARTCHAR IJ
ENCODING 306
SWIDTH 733 0
DWIDTH 8 0
BBX 7 8 1 0
BITMAP
C024
C024
C024
C024
C024
C424
C930
C7D0
ENDCHAR
STARTCHAR ij
ENCODING 307
SWIDTH 452 0
DWIDTH 5 0
BBX 5 10 0 -2
BITMAP
6200
0000
6240
6240
6240
6240
6240
6240
0240
0A00
ENDCHAR
STARTCHAR Jcircumflex
ENCODING 308
SWIDTH 483 0
DWIDTH 5 0
BBX 5 11 0 0
BITMAP
0280
0680
0000
0180
0180
0180
0180
0180
4180
A240
2E00
ENDCHAR
STARTCHAR jcircumflex
ENCODING 309
SWIDTH 237 0
DWIDTH 3 0
BBX 3 11 0 -2
BITMAP
70
94
00
20
20
20
20
20
20
60
D0
ENDCHAR
STARTCHAR uni0136
ENCODING 310
SWIDTH 544 0
DWIDTH 6 0
BBX 5 10 1 -2
BITMAP
8240
8600
9C00
F400
E800
C900
8300
8280
1800
1400
ENDCHAR
STARTCHAR uni0137
ENCODING 311
SWIDTH 450 0
DWIDTH 5 0
BBX 5 11 0 -3
BITMAP
6000
6000
6240
6A00
6C00
7900
6700
6280
0000
0C00
0800
ENDCHAR
STARTCHAR kgreenlandic
ENCODING 312
SWIDTH 491 0
DWIDTH 5 0
BBX 5 6 0 0
BITMAP
6240
6600
7C00
6A00
6340
6180
ENDCHAR
STARTCHAR Lacute
ENCODING 313
SWIDTH 475 0
DWIDTH 5 0
BBX 4 11 1 0
BITMAP
A0
80
00
80
80
80
80
80
80
80
FF
ENDCHAR
STARTCHAR lacute
ENCODING 314
SWIDTH 229 0
DWIDTH 3 0
BBX 3 11 0 1
BITMAP
28
20
00
60
60
60
60
60
60
60
60
ENDCHAR
STARTCHAR uni013B
ENCODING 315
SWIDTH 475 0
DWIDTH 5 0
BBX 4 11 1 -3
BITMAP
80
80
80
80
80
80
80
FF
00
24
20
ENDCHAR
STARTCHAR uni013C
ENCODING 316
SWIDTH 229 0
DWIDTH 3 0
BBX 2 11 0 -3
BITMAP
60
60
60
60
60
60
60
60
00
60
50
ENDCHAR
STARTCHAR Lcaron
ENCODING 317
SWIDTH 475 0
DWIDTH 5 0
BBX 4 8 1 0
BITMAP
8C
98
80
80
80
80
80
FF
ENDCHAR
STARTCHAR lcaron
ENCODING 318
SWIDTH 302 0
DWIDTH 3 0
BBX 4 8 0 0
BITMAP
69
68
60
60
60
60
60
60
ENDCHAR
STARTCHAR Ldot
ENCODING 319
SWIDTH 475 0
DWIDTH 5 0
BBX 4 8 1 0
BITMAP
80
80
80
88
80
80
80
FF
ENDCHAR
STARTCHAR ldot
ENCODING 320
SWIDTH 336 0
DWIDTH 4 0
BBX 4 8 0 0
BITMAP
60
60
60
69
60
60
60
60
ENDCHAR
STARTCHAR Lslash
ENCODING 321
SWIDTH 475 0
DWIDTH 5 0
BBX 5 8 0 0
BITMAP
2000
2000
2000
7800
B400
2000
2000
3FC0
ENDCHAR
STARTCHAR lslash
ENCODING 322
SWIDTH 250 0
DWIDTH 3 0
BBX 3 9 0 0
BITMAP
20
20
20
20
74
B0
20
20
20
ENDCHAR
STARTCHAR Nacute
ENCODING 323
SWIDTH 619 0
DWIDTH 7 0
BBX 5 11 1 0
BITMAP
0600
0800
0000
C0C0
E0C0
E0C0
98C0
88C0
86C0
82C0
81C0
ENDCHAR
STARTCHAR nacute
ENCODING 324
SWIDTH 483 0
DWIDTH 5 0
BBX 5 9 0 0
BITMAP
0700
0900
0000
6F40
7280
6180
6180
6180
6180
ENDCHAR
STARTCHAR uni0145
ENCODING 325
SWIDTH 619 0
DWIDTH 7 0
BBX 5 11 1 -3
BITMAP
C0C0
E0C0
E0C0
98C0
88C0
86C0
82C0
81C0
0000
0800
1400
ENDCHAR
STARTCHAR uni0146
ENCODING 326
SWIDTH 483 0
DWIDTH 5 0
BBX 5 9 0 -3
BITMAP
6F40
7280
6180
6180
6180
6180
0000
0C00
0800
ENDCHAR
STARTCHAR Ncaron
ENCODING 327
SWIDTH 619 0
DWIDTH 7 0
BBX 5 11 1 0
BITMAP
2600
1C00
0000
C0C0
E0C0
E0C0
98C0
88C0
86C0
82C0
81C0
ENDCHAR
STARTCHAR ncaron
ENCODING 328
SWIDTH 483 0
DWIDTH 5 0
BBX 5 9 0 0
BITMAP
2600
0D00
0000
6F40
7280
6180
6180
6180
6180
ENDCHAR
STARTCHAR napostrophe
ENCODING 329
SWIDTH 483 0
DWIDTH 5 0
BBX 5 8 0 0
BITMAP
C000
8000
6F40
7280
6180
6180
6180
6180
ENDCHAR
STARTCHAR Eng
ENCODING 330
SWIDTH 599 0
DWIDTH 7 0
BBX 6 10 0 -2
BITMAP
7060
7860
6C60
6660
6260
61A0
60A0
6060
0060
00D0
ENDCHAR
STARTCHAR eng
ENCODING 331
SWIDTH 498 0
DWIDTH 5 0
BBX 5 8 0 -2
BITMAP
6B40
7180
6180
6180
6180
6180
0180
0740
ENDCHAR
STARTCHAR Omacron
ENCODING 332
SWIDTH 600 0
DWIDTH 7 0
BBX 6 10 0 0
BITMAP
1FC0
0000
1B80
34A0
6020
6030
6030
6030
34A0
1F80
ENDCHAR
STARTCHAR omacron
ENCODING 333
SWIDTH 501 0
DWIDTH 6 0
BBX 5 8 0 0
BITMAP
3F40
0000
2E40
6180
60C0
60C0
6180
2E40
ENDCHAR
STARTCHAR Obreve
ENCODING 334
SWIDTH 600 0
DWIDTH 7 0
BBX 6 11 0 0
BITMAP
1880
0B40
0000
1B80
34A0
6020
6030
6030
6030
34A0
1F80
ENDCHAR
STARTCHAR obreve
ENCODING 335
SWIDTH 501 0
DWIDTH 6 0
BBX 5 9 0 0
BITMAP
2240
1E00
0000
2E40
6180
60C0
60C0
6180
2E40
ENDCHAR
STARTCHAR Ohungarumlaut
ENCODING 336
SWIDTH 600 0
DWIDTH 7 0
BBX 6 11 0 0
BITMAP
06D0
0980
0000
1B80
34A0
6020
6030
6030
6030
34A0
1F80
ENDCHAR
STARTCHAR ohungarumlaut
ENCODING 337
SWIDTH 501 0
DWIDTH 6 0
BBX 5 9 0 0
BITMAP
0E80
1A00
0000
2E40
6180
60C0
60C0
6180
2E40
ENDCHAR
STARTCHAR OE
ENCODING 338
SWIDTH 826 0
DWIDTH 9 0
BBX 9 8 0 0
BITMAP
1FFF40
34C000
60C000
60FE00
60C000
60C000
34C000
1FFF40
ENDCHAR
STARTCHAR oe
ENCODING 339
SWIDTH 777 0
DWIDTH 9 0
BBX 8 6 0 0
BITMAP
1E6D
71D3
60FF
60C0
71D1
1E6E
ENDCHAR
STARTCHAR Racute
ENCODING 340
SWIDTH 530 0
DWIDTH 6 0
BBX 5 11 1 0
BITMAP
0D00
1400
0000
FE00
8340
8240
8340
FE00
8900
8300
8240
ENDCHAR
STARTCHAR racute
ENCODING 341
SWIDTH 304 0
DWIDTH 3 0
BBX 4 9 0 0
BITMAP
0D
18
00
6C
70
60
60
60
60
ENDCHAR
STARTCHAR uni0156
ENCODING 342
SWIDTH 530 0
DWIDTH 6 0
BBX 5 11 1 -3
BITMAP
FE00
8340
8240
8340
FE00
8900
8300
8240
0000
2400
2000
ENDCHAR
STARTCHAR uni0157
ENCODING 343
SWIDTH 304 0
DWIDTH 3 0
BBX 3 9 0 -3
BITMAP
6C
70
60
60
60
60
00
60
50
ENDCHAR
STARTCHAR Rcaron
ENCODING 344
SWIDTH 530 0
DWIDTH 6 0
BBX 5 11 1 0
BITMAP
5800
2400
0000
FE00
8340
8240
8340
FE00
8900
8300
8240
ENDCHAR
STARTCHAR rcaron
ENCODING 345
SWIDTH 304 0
DWIDTH 3 0
BBX 3 9 0 0
BITMAP
68
28
00
6C
70
60
60
60
60
ENDCHAR
STARTCHAR Sacute
ENCODING 346
SWIDTH 518 0
DWIDTH 6 0
BBX 6 11 0 0
BITMAP
0340
0600
0000
1F40
71C0
6040
2900
0680
5090
60C0
1F40
ENDCHAR
STARTCHAR sacute
ENCODING 347
SWIDTH 455 0
DWIDTH 5 0
BBX 5 9 0 0
BITMAP
0700
0900
0000
2E00
6240
3900
0740
6240
2E00
ENDCHAR
STARTCHAR Scircumflex
ENCODING 348
SWIDTH 518 0
DWIDTH 6 0
BBX 6 11 0 0
BITMAP
0A00
1A00
0000
1F40
71C0
6040
2900
0680
5090
60C0
1F40
ENDCHAR
STARTCHAR scircumflex
ENCODING 349
SWIDTH 455 0
DWIDTH 5 0
BBX 5 9 0 0
BITMAP
0D00
1600
0000
2E00
6240
3900
0740
6240
2E00
ENDCHAR
STARTCHAR Scedilla
ENCODING 350
SWIDTH 518 0
DWIDTH 6 0
BBX 6 10 0 -2
BITMAP
1F40
71C0
6040
2900
0680
5090
60C0
1F40
0500
0600
ENDCHAR
STARTCHAR scedilla
ENCODING 351
SWIDTH 455 0
DWIDTH 5 0
BBX 5 8 0 -2
BITMAP
2E00
6240
3900
0740
6240
2E00
0400
0900
ENDCHAR
STARTCHAR Scaron
ENCODING 352
SWIDTH 518 0
DWIDTH 6 0
BBX 6 11 0 0
BITMAP
1A00
0900
0000
1F40
71C0
6040
2900
0680
5090
60C0
1F40
ENDCHAR
STARTCHAR scaron
ENCODING 353
SWIDTH 455 0
DWIDTH 5 0
BBX 5 9 0 0
BITMAP
2600
0D00
0000
2E00
6240
3900
0740
6240
2E00
ENDCHAR
STARTCHAR uni0162
ENCODING 354
SWIDTH 520 0
DWIDTH 6 0
BBX 6 10 0 -2
BITMAP
BFD0
0900
0900
0900
0900
0900
0900
0900
0500
0A00
ENDCHAR
STARTCHAR uni0163
ENCODING 355
SWIDTH 295 0
DWIDTH 3 0
BBX 3 9 0 -2
BITMAP
30
F8
30
30
30
30
28
04
1C
ENDCHAR
STARTCHAR Tcaron
ENCODING 356
SWIDTH 520 0
DWIDTH 6 0
BBX 6 11 0 0
BITMAP
1600
0900
0000
BFD0
0900
0900
0900
0900
0900
0900
0900
ENDCHAR
STARTCHAR tcaron
ENCODING 357
SWIDTH 314 0
DWIDTH 3 0
BBX 4 9 0 0
BITMAP
06
05
30
F8
30
30
30
30
28
ENDCHAR
STARTCHAR Tbar
ENCODING 358
SWIDTH 520 0
DWIDTH 6 0
BBX 6 8 0 0
BITMAP
BFD0
0900
0900
2F40
0900
0900
0900
0900
ENDCHAR
STARTCHAR tbar
ENCODING 359
SWIDTH 295 0
DWIDTH 3 0
BBX 3 7 0 0
BITMAP
30
F8
30
FC
30
30
28
ENDCHAR
STARTCHAR Utilde
ENCODING 360
SWIDTH 561 0
DWIDTH 6 0
BBX 6 11 0 0
BITMAP
1D80
1640
0000
6060
6060
6060
6060
6060
6090
3090
1F80
ENDCHAR
STARTCHAR utilde
ENCODING 361
SWIDTH 483 0
DWIDTH 5 0
BBX 5 9 0 0
BITMAP
2940
2700
0000
6180
6180
6180
6180
6280
2E80
ENDCHAR
STARTCHAR Umacron
ENCODING 362
SWIDTH 561 0
DWIDTH 6 0
BBX 6 10 0 0
BITMAP
1F80
0000
6060
6060
6060
6060
6060
6090
3090
1F80
ENDCHAR
STARTCHAR umacron
ENCODING 363
SWIDTH 483 0
DWIDTH 5 0
BBX 5 8 0 0
BITMAP
3F40
0000
6180
6180
6180
6180
6280
2E80
ENDCHAR
STARTCHAR Ubreve
ENCODING 364
SWIDTH 561 0
DWIDTH 6 0
BBX 6 11 0 0
BITMAP
1580
0B40
0000
6060
6060
6060
6060
6060
6090
3090
1F80
ENDCHAR
STARTCHAR ubreve
ENCODING 365
SWIDTH 483 0
DWIDTH 5 0
BBX 5 9 0 0
BITMAP
3240
1E00
0000
6180
6180
6180
6180
6280
2E80
ENDCHAR
STARTCHAR Uring
ENCODING 366
SWIDTH 561 0
DWIDTH 6 0
BBX 6 11 0 0
BITMAP
0A00
0A00
0000
6060
6060
6060
6060
6060
6090
3090
1F80
ENDCHAR
STARTCHAR uring
ENCODING 367
SWIDTH 483 0
DWIDTH 5 0
BBX 5 9 0 0
BITMAP
1900
1900
0000
6180
6180
6180
6180
6280
2E80
ENDCHAR
STARTCHAR Uhungarumlaut
ENCODING 368
SWIDTH 561 0
DWIDTH 6 0
BBX 6 11 0 0
BITMAP
0AC0
0A40
0000
6060
6060
6060
6060
6060
6090
3090
1F80
ENDCHAR
STARTCHAR uhungarumlaut
ENCODING 369
SWIDTH 483 0
DWIDTH 5 0
BBX 5 9 0 0
BITMAP
0E80
1A00
0000
6180
6180
6180
6180
6280
2E80
ENDCHAR
STARTCHAR Uogonek
ENCODING 370
SWIDTH 561 0
DWIDTH 6 0
BBX 6 10 0 -2
BITMAP
6060
6060
6060
6060
6060
6090
3090
1F80
0200
0340
ENDCHAR
STARTCHAR uogonek
ENCODING 371
SWIDTH 483 0
DWIDTH 5 0
BBX 5 8 0 -2
BITMAP
6180
6180
6180
6180
6280
2E80
0200
0280
ENDCHAR
STARTCHAR Wcircumflex
ENCODING 372
SWIDTH 761 0
DWIDTH 8 0
BBX 8 11 0 0
BITMAP
01C0
0250
0000
9183
61C2
2296
3259
2629
2928
1D28
0C18
ENDCHAR
STARTCHAR wcircumflex
ENCODING 373
SWIDTH 649 0
DWIDTH 7 0
BBX 7 9 0 0
BITMAP
0740
0980
0000
9318
6758
26A4
38A0
28A0
1860
ENDCHAR
STARTCHAR Ycircumflex
ENCODING 374
SWIDTH 524 0
DWIDTH 6 0
BBX 6 11 0 0
BITMAP
0A00
1A00
0000
9090
70C0
2640
1B00
0E00
0900
0900
0900
ENDCHAR
STARTCHAR ycircumflex
ENCODING 375
SWIDTH 416 0
DWIDTH 5 0
BBX 5 11 0 -2
BITMAP
1C00
2600
0000
9240
6300
3600
2900
1C00
1800
2400
A000
ENDCHAR
STARTCHAR Ydieresis
ENCODING 376
SWIDTH 524 0
DWIDTH 6 0
BBX 6 10 0 0
BITMAP
2580
0000
9090
70C0
2640
1B00
0E00
0900
0900
0900
ENDCHAR
STARTCHAR Zacute
ENCODING 377
SWIDTH 522 0
DWIDTH 6 0
BBX 6 11 0 0
BITMAP
0340
0600
0000
7FC0
0180
0240
0600
0C00
2400
7000
BFD0
ENDCHAR
STARTCHAR zacute
ENCODING 378
SWIDTH 438 0
DWIDTH 5 0
BBX 5 9 0 0
BITMAP
0600
0800
0000
7F40
0600
0900
1800
3000
7F40
ENDCHAR
STARTCHAR Zdotaccent
ENCODING 379
SWIDTH 522 0
DWIDTH 6 0
BBX 6 10 0 0
BITMAP
0900
0000
7FC0
0180
0240
0600
0C00
2400
7000
BFD0
ENDCHAR
STARTCHAR zdotaccent
ENCODING 380
SWIDTH 438 0
DWIDTH 5 0
BBX 5 8 0 0
BITMAP
0C00
0000
7F40
0600
0900
1800
3000
7F40
ENDCHAR
STARTCHAR Zcaron
ENCODING 381
SWIDTH 522 0
DWIDTH 6 0
BBX 6 11 0 0
BITMAP
1A00
0900
0000
7FC0
0180
0240
0600
0C00
2400
7000
BFD0
ENDCHAR
STARTCHAR zcaron
ENCODING 382
SWIDTH 438 0
DWIDTH 5 0
BBX 5 9 0 0
BITMAP
2600
1C00
0000
7F40
0600
0900
1800
3000
7F40
ENDCHAR
STARTCHAR longs
ENCODING 383
SWIDTH 234 0
DWIDTH 3 0
BBX 3 9 0 0
BITMAP
2C
30
60
60
60
60
60
60
60
ENDCHAR
STARTCHAR uni018F
ENCODING 399
SWIDTH 597 0
DWIDTH 7 0
BBX 6 8 0 0
BITMAP
2F80
1090
0060
0030
BFF0
6060
3090
1F80
ENDCHAR
STARTCHAR florin
ENCODING 402
SWIDTH 309 0
DWIDTH 3 0
BBX 4 11 0 -2
BITMAP
1D
34
30
BC
30
30
30
30
30
30
E0
ENDCHAR
STARTCHAR Ohorn
ENCODING 416
SWIDTH 592 0
DWIDTH 7 0
BBX 7 9 0 0
BITMAP
0004
1F64
34B0
6060
6020
6030
6060
3490
1F80
ENDCHAR
STARTCHAR ohorn
ENCODING 417
SWIDTH 502 0
DWIDTH 6 0
BBX 6 6 0 0
BITMAP
1E50
71D0
60C0
60C0
7180
1E40
ENDCHAR
STARTCHAR Uhorn
ENCODING 431
SWIDTH 608 0
DWIDTH 7 0
BBX 7 9 0 0
BITMAP
0004
6068
6078
6060
6060
6060
6090
34D0
1F80
ENDCHAR
STARTCHAR uhorn
ENCODING 432
SWIDTH 549 0
DWIDTH 6 0
BBX 6 6 0 0
BITMAP
61A0
61E0
6180
6180
6280
2E80
ENDCHAR
STARTCHAR uni01F0
ENCODING 496
SWIDTH 237 0
DWIDTH 3 0
BBX 3 11 0 -2
BITMAP
98
70
00
20
20
20
20
20
20
60
D0
ENDCHAR
STARTCHAR Aringacute
ENCODING 506
SWIDTH 576 0
DWIDTH 6 0
BBX 6 12 0 0
BITMAP
0240
0200
0600
0600
0600
0B00
0A40
1980
24C0
3FD0
6060
9030
ENDCHAR
STARTCHAR aringacute
ENCODING 507
SWIDTH 479 0
DWIDTH 5 0
BBX 5 10 0 0
BITMAP
0200
0500
0900
0900
2E00
1240
2F80
6180
6280
2E80
ENDCHAR
STARTCHAR AEacute
ENCODING 508
SWIDTH 812 0
DWIDTH 9 0
BBX 9 11 0 0
BITMAP
00A000
008000
000000
01FF40
029000
069000
09BF00
189000
2FD000
605000
907F80
ENDCHAR
STARTCHAR aeacute
ENCODING 509
SWIDTH 728 0
DWIDTH 8 0
BBX 8 9 0 0
BITMAP
0090
0180
0000
2EB8
1289
2FFE
6240
6280
3DBD
ENDCHAR
STARTCHAR Oslashacute
ENCODING 510
SWIDTH 600 0
DWIDTH 7 0
BBX 6 12 0 -1
BITMAP
0280
0200
0000
1BA0
3490
60A0
6270
6230
6860
2890
2B80
1000
ENDCHAR
STARTCHAR oslashacute
ENCODING 511
SWIDTH 498 0
DWIDTH 5 0
BBX 5 10 0 -1
BITMAP
0700
0900
0040
1F40
7280
65C0
68C0
7580
2E00
1000
ENDCHAR
STARTCHAR uni0218
ENCODING 536
SWIDTH 518 0
DWIDTH 6 0
BBX 6 11 0 -3
BITMAP
1F40
71C0
6040
2900
0680
5090
60C0
1F40
0000
0900
0800
ENDCHAR
STARTCHAR uni0219
ENCODING 537
SWIDTH 455 0
DWIDTH 5 0
BBX 5 9 0 -3
BITMAP
2E00
6240
3900
0740
6240
2E00
0000
0800
0800
ENDCHAR
STARTCHAR uni021A
ENCODING 538
SWIDTH 520 0
DWIDTH 6 0
BBX 6 11 0 -3
BITMAP
BFD0
0900
0900
0900
0900
0900
0900
0900
0000
0900
0800
ENDCHAR
STARTCHAR uni021B
ENCODING 539
SWIDTH 295 0
DWIDTH 3 0
BBX 3 10 0 -3
BITMAP
30
F8
30
30
30
30
28
00
18
14
ENDCHAR
STARTCHAR uni0237
ENCODING 567
SWIDTH 237 0
DWIDTH 3 0
BBX 2 8 0 -2
BITMAP
20
20
20
20
20
20
60
D0
ENDCHAR
STARTCHAR uni0259
ENCODING 601
SWIDTH 465 0
DWIDTH 5 0
BBX 5 6 0 0
BITMAP
2E00
1240
0180
7F80
6240
2E00
ENDCHAR
STARTCHAR uni02BC
ENCODING 700
SWIDTH 194 0
DWIDTH 2 0
BBX 2 3 0 6
BITMAP
60
60
80
ENDCHAR
STARTCHAR circumflex
ENCODING 710
SWIDTH 428 0
DWIDTH 5 0
BBX 3 2 1 7
BITMAP
70
94
ENDCHAR
STARTCHAR caron
ENCODING 711
SWIDTH 403 0
DWIDTH 4 0
BBX 3 2 1 7
BITMAP
94
60
ENDCHAR
STARTCHAR uni02C9
ENCODING 713
SWIDTH 414 0
DWIDTH 5 0
BBX 4 1 0 7
BITMAP
7F
ENDCHAR
STARTCHAR breve
ENCODING 728
SWIDTH 426 0
DWIDTH 5 0
BBX 4 2 0 6
BITMAP
62
2D
ENDCHAR
STARTCHAR dotaccent
ENCODING 729
SWIDTH 242 0
DWIDTH 3 0
BBX 1 1 1 7
BITMAP
80
ENDCHAR
STARTCHAR ring
ENCODING 730
SWIDTH 334 0
DWIDTH 4 0
BBX 2 2 1 6
BITMAP
A0
A0
ENDCHAR
STARTCHAR ogonek
ENCODING 731
SWIDTH 253 0
DWIDTH 3 0
BBX 2 2 0 -2
BITMAP
50
70
ENDCHAR
STARTCHAR tilde
ENCODING 732
SWIDTH 427 0
DWIDTH 5 0
BBX 4 2 0 7
BITMAP
36
5A
ENDCHAR
STARTCHAR hungarumlaut
ENCODING 733
SWIDTH 331 0
DWIDTH 4 0
BBX 4 2 0 7
BITMAP
3A
68
ENDCHAR
STARTCHAR uni02F3
ENCODING 755
SWIDTH 263 0
DWIDTH 3 0
BBX 2 2 0 -3
BITMAP
70
70
ENDCHAR
STARTCHAR gravecomb
ENCODING 768
SWIDTH 0 0
DWIDTH 0 0
BBX 2 2 -4 7
BITMAP
A0
20
ENDCHAR
STARTCHAR acutecomb
ENCODING 769
SWIDTH 0 0
DWIDTH 0 0
BBX 2 2 -3 7
BITMAP
60
80
ENDCHAR
STARTCHAR tildecomb
ENCODING 771
SWIDTH 0 0
DWIDTH 0 0
BBX 4 2 -4 7
BITMAP
A5
9C
ENDCHAR
STARTCHAR hookabovecomb
ENCODING 777
SWIDTH 0 0
DWIDTH 0 0
BBX 2 3 -3 7
BITMAP
D0
50
80
ENDCHAR
STARTCHAR uni030F
ENCODING 783
SWIDTH 0 0
DWIDTH 0 0
BBX 3 2 -4 7
BITMAP
E4
68
ENDCHAR
STARTCHAR dotbelowcomb
ENCODING 803
SWIDTH 0 0
DWIDTH 0 0
BBX 2 1 -4 -2
BITMAP
90
ENDCHAR
STARTCHAR tonos
ENCODING 900
SWIDTH 256 0
DWIDTH 3 0
BBX 1 2 1 7
BITMAP
80
80
ENDCHAR
STARTCHAR dieresistonos
ENCODING 901
SWIDTH 452 0
DWIDTH 5 0
BBX 5 2 0 7
BITMAP
0800
6240
ENDCHAR
STARTCHAR Alphatonos
ENCODING 902
SWIDTH 576 0
DWIDTH 6 0
BBX 6 9 0 0
BITMAP
3000
2600
0B00
0A40
1980
24C0
3FD0
6060
9030
ENDCHAR
STARTCHAR anoteleia
ENCODING 903
SWIDTH 243 0
DWIDTH 3 0
BBX 1 1 1 4
BITMAP
80
ENDCHAR
STARTCHAR Epsilontonos
ENCODING 904
SWIDTH 496 0
DWIDTH 5 0
BBX 6 9 -1 0
BITMAP
8000
8FF0
0800
0800
0FE0
0800
0800
0800
0FF0
ENDCHAR
STARTCHAR Etatonos
ENCODING 905
SWIDTH 620 0
DWIDTH 7 0
BBX 7 9 -1 0
BITMAP
8000
880C
080C
080C
0FFC
080C
080C
080C
080C
ENDCHAR
STARTCHAR Iotatonos
ENCODING 906
SWIDTH 250 0
DWIDTH 3 0
BBX 3 9 -1 0
BITMAP
80
8C
0C
0C
0C
0C
0C
0C
0C
ENDCHAR
STARTCHAR Omicrontonos
ENCODING 908
SWIDTH 610 0
DWIDTH 7 0
BBX 6 9 0 0
BITMAP
C000
9B80
24A0
3030
6030
6030
3030
34A0
1B80
ENDCHAR
STARTCHAR Upsilontonos
ENCODING 910
SWIDTH 573 0
DWIDTH 6 0
BBX 7 9 -1 0
BITMAP
C000
8C1C
0924
0630
02A0
01C0
00C0
00C0
00C0
ENDCHAR
STARTCHAR Omegatonos
ENCODING 911
SWIDTH 591 0
DWIDTH 7 0
BBX 6 9 0 0
BITMAP
C000
9B80
3490
6060
6060
6060
2060
2480
7DE0
ENDCHAR
STARTCHAR iotadieresistonos
ENCODING 912
SWIDTH 299 0
DWIDTH 3 0
BBX 5 9 -1 0
BITMAP
0800
6240
0000
0C00
0C00
0C00
0C00
0C00
0A00
ENDCHAR
STARTCHAR Alpha
ENCODING 913
SWIDTH 576 0
DWIDTH 6 0
BBX 6 8 0 0
BITMAP
0600
0B00
0A40
1980
24C0
3FD0
6060
9030
ENDCHAR
STARTCHAR Beta
ENCODING 914
SWIDTH 545 0
DWIDTH 6 0
BBX 5 8 1 0
BITMAP
FE00
8300
8300
FE00
8340
8240
8340
FE00
ENDCHAR
STARTCHAR Gamma
ENCODING 915
SWIDTH 487 0
DWIDTH 5 0
BBX 4 8 1 0
BITMAP
FF
C0
C0
C0
C0
C0
C0
C0
ENDCHAR
STARTCHAR Delta.dup1
ENCODING 916
SWIDTH 614 0
DWIDTH 7 0
BBX 7 8 0 0
BITMAP
0700
0B40
0D80
18C0
2490
3060
6030
BFF4
ENDCHAR
STARTCHAR Epsilon
ENCODING 917
SWIDTH 496 0
DWIDTH 5 0
BBX 4 8 1 0
BITMAP
FF
80
80
FE
80
80
80
FF
ENDCHAR
STARTCHAR Zeta
ENCODING 918
SWIDTH 522 0
DWIDTH 6 0
BBX 6 8 0 0
BITMAP
7FC0
0180
0240
0600
0C00
2400
7000
BFD0
ENDCHAR
STARTCHAR Eta
ENCODING 919
SWIDTH 620 0
DWIDTH 7 0
BBX 5 8 1 0
BITMAP
80C0
80C0
80C0
FFC0
80C0
80C0
80C0
80C0
ENDCHAR
STARTCHAR Theta
ENCODING 920
SWIDTH 593 0
DWIDTH 7 0
BBX 6 8 0 0
BITMAP
1F80
3490
6060
6FB0
6030
6060
3490
1F80
ENDCHAR
STARTCHAR Iota
ENCODING 921
SWIDTH 250 0
DWIDTH 3 0
BBX 1 8 1 0
BITMAP
C0
C0
C0
C0
C0
C0
C0
C0
ENDCHAR
STARTCHAR Kappa
ENCODING 922
SWIDTH 544 0
DWIDTH 6 0
BBX 5 8 1 0
BITMAP
8240
8600
9C00
F400
E800
C900
8300
8280
ENDCHAR
STARTCHAR Lambda
ENCODING 923
SWIDTH 572 0
DWIDTH 6 0
BBX 6 8 0 0
BITMAP
0600
0B00
0E40
1980
24C0
3090
60A0
A060
ENDCHAR
STARTCHAR Mu
ENCODING 924
SWIDTH 755 0
DWIDTH 8 0
BBX 7 8 1 0
BITMAP
D034
E074
B0A4
A4E4
99A4
8A64
8B24
8624
ENDCHAR
STARTCHAR Nu
ENCODING 925
SWIDTH 619 0
DWIDTH 7 0
BBX 5 8 1 0
BITMAP
C0C0
E0C0
E0C0
98C0
88C0
86C0
82C0
81C0
ENDCHAR
STARTCHAR Xi
ENCODING 926
SWIDTH 502 0
DWIDTH 6 0
BBX 5 8 0 0
BITMAP
7FC0
0000
0000
3F80
0000
0000
0000
7FC0
ENDCHAR
STARTCHAR Omicron
ENCODING 927
SWIDTH 600 0
DWIDTH 7 0
BBX 6 8 0 0
BITMAP
1B80
34A0
6020
6030
6030
6030
34A0
1F80
ENDCHAR
STARTCHAR Pi
ENCODING 928
SWIDTH 620 0
DWIDTH 7 0
BBX 5 8 1 0
BITMAP
FFC0
C0C0
C0C0
C0C0
C0C0
C0C0
C0C0
C0C0
ENDCHAR
STARTCHAR Rho
ENCODING 929
SWIDTH 554 0
DWIDTH 6 0
BBX 5 8 1 0
BITMAP
FE00
8240
8180
8240
FE00
8000
8000
8000
ENDCHAR
STARTCHAR Sigma
ENCODING 931
SWIDTH 502 0
DWIDTH 6 0
BBX 5 8 0 0
BITMAP
BFC0
7000
1800
0900
0900
1800
7000
BFC0
ENDCHAR
STARTCHAR Tau
ENCODING 932
SWIDTH 520 0
DWIDTH 6 0
BBX 6 8 0 0
BITMAP
BFD0
0900
0900
0900
0900
0900
0900
0900
ENDCHAR
STARTCHAR Upsilon
ENCODING 933
SWIDTH 524 0
DWIDTH 6 0
BBX 6 8 0 0
BITMAP
9090
70C0
2640
1B00
0E00
0900
0900
0900
ENDCHAR
STARTCHAR Phi
ENCODING 934
SWIDTH 621 0
DWIDTH 7 0
BBX 7 8 0 0
BITMAP
0300
1FD0
7770
9324
5324
7770
1FD0
0300
ENDCHAR
STARTCHAR Chi
ENCODING 935
SWIDTH 550 0
DWIDTH 6 0
BBX 6 8 0 0
BITMAP
6090
25C0
1A40
0B00
0B00
1A40
35C0
6090
ENDCHAR
STARTCHAR Psi
ENCODING 936
SWIDTH 600 0
DWIDTH 7 0
BBX 6 8 0 0
BITMAP
9630
9630
9630
6630
76A0
1F80
0600
0600
ENDCHAR
STARTCHAR Omega.dup2
ENCODING 937
SWIDTH 581 0
DWIDTH 6 0
BBX 6 8 0 0
BITMAP
1F40
34D0
6060
6060
6060
2050
2080
7EE0
ENDCHAR
STARTCHAR Iotadieresis
ENCODING 938
SWIDTH 250 0
DWIDTH 3 0
BBX 4 10 -1 0
BITMAP
63
00
0C
0C
0C
0C
0C
0C
0C
0C
ENDCHAR
STARTCHAR Upsilondieresis
ENCODING 939
SWIDTH 524 0
DWIDTH 6 0
BBX 6 10 0 0
BITMAP
2580
0000
9090
70C0
2640
1B00
0E00
0900
0900
0900
ENDCHAR
STARTCHAR alphatonos
ENCODING 940
SWIDTH 494 0
DWIDTH 5 0
BBX 6 9 0 0
BITMAP
0600
0500
0000
2E80
7280
6180
6180
6280
2ED0
ENDCHAR
STARTCHAR epsilontonos
ENCODING 941
SWIDTH 470 0
DWIDTH 5 0
BBX 5 9 0 0
BITMAP
0900
0800
0000
2E40
6140
2D00
6000
6140
2E00
ENDCHAR
STARTCHAR etatonos
ENCODING 942
SWIDTH 498 0
DWIDTH 5 0
BBX 5 11 0 -2
BITMAP
0500
0400
0000
6F40
7180
6180
6180
6180
6180
0180
0180
ENDCHAR
STARTCHAR iotatonos
ENCODING 943
SWIDTH 299 0
DWIDTH 3 0
BBX 2 9 1 0
BITMAP
90
80
00
C0
C0
C0
C0
C0
A0
ENDCHAR
STARTCHAR upsilondieresistonos
ENCODING 944
SWIDTH 480 0
DWIDTH 5 0
BBX 5 9 0 0
BITMAP
0900
6240
0000
6240
6180
6180
6180
3240
2E00
ENDCHAR
STARTCHAR alpha
ENCODING 945
SWIDTH 494 0
DWIDTH 5 0
BBX 6 6 0 0
BITMAP
2E80
7280
6180
6180
6280
2ED0
ENDCHAR
STARTCHAR beta
ENCODING 946
SWIDTH 517 0
DWIDTH 6 0
BBX 5 10 0 -2
BITMAP
1F40
3180
6180
6B40
61C0
60C0
71C0
7F40
6000
6000
ENDCHAR
STARTCHAR gamma
ENCODING 947
SWIDTH 444 0
DWIDTH 5 0
BBX 5 8 0 -2
BITMAP
9140
6200
3300
2A00
1D00
0C00
0C00
0C00
ENDCHAR
STARTCHAR delta
ENCODING 948
SWIDTH 498 0
DWIDTH 5 0
BBX 5 9 0 0
BITMAP
1F00
3400
2800
1F40
7280
60C0
60C0
3180
1E00
ENDCHAR
STARTCHAR epsilon
ENCODING 949
SWIDTH 470 0
DWIDTH 5 0
BBX 5 6 0 0
BITMAP
2E40
6140
2D00
6000
6140
2E00
ENDCHAR
STARTCHAR zeta
ENCODING 950
SWIDTH 462 0
DWIDTH 5 0
BBX 5 10 0 -2
BITMAP
7F80
0200
0900
1800
2400
3000
3000
1E00
0240
0200
ENDCHAR
STARTCHAR eta
ENCODING 951
SWIDTH 498 0
DWIDTH 5 0
BBX 5 8 0 -2
BITMAP
6F40
7180
6180
6180
6180
6180
0180
0180
ENDCHAR
STARTCHAR theta
ENCODING 952
SWIDTH 496 0
DWIDTH 5 0
BBX 5 8 0 0
BITMAP
1E00
3180
6080
7F80
6080
6180
3240
1E00
ENDCHAR
STARTCHAR iota
ENCODING 953
SWIDTH 299 0
DWIDTH 3 0
BBX 2 6 1 0
BITMAP
C0
C0
C0
C0
C0
A0
ENDCHAR
STARTCHAR kappa
ENCODING 954
SWIDTH 491 0
DWIDTH 5 0
BBX 5 6 0 0
BITMAP
6240
6600
7C00
6A00
6340
6180
ENDCHAR
STARTCHAR lambda
ENCODING 955
SWIDTH 485 0
DWIDTH 5 0
BBX 5 8 0 0
BITMAP
3400
2800
0C00
1D00
2A00
3300
6240
91C0
ENDCHAR
STARTCHAR uni03BC
ENCODING 956
SWIDTH 498 0
DWIDTH 5 0
BBX 5 8 0 -2
BITMAP
6180
6180
6180
6180
7180
7E80
6000
6000
ENDCHAR
STARTCHAR nu
ENCODING 957
SWIDTH 427 0
DWIDTH 5 0
BBX 5 6 0 0
BITMAP
9240
6300
2200
2500
1C00
0C00
ENDCHAR
STARTCHAR xi
ENCODING 958
SWIDTH 431 0
DWIDTH 5 0
BBX 5 10 0 -2
BITMAP
1F00
3000
3000
1E00
6000
6000
6000
2E00
0240
0200
ENDCHAR
STARTCHAR omicron
ENCODING 959
SWIDTH 501 0
DWIDTH 6 0
BBX 5 6 0 0
BITMAP
2E40
6180
60C0
60C0
6180
2E40
ENDCHAR
STARTCHAR pi
ENCODING 960
SWIDTH 520 0
DWIDTH 6 0
BBX 6 6 0 0
BITMAP
BFD0
3180
3180
3180
3180
30D0
ENDCHAR
STARTCHAR rho
ENCODING 961
SWIDTH 498 0
DWIDTH 5 0
BBX 5 8 0 -2
BITMAP
1E00
3180
60C0
60C0
7180
7F40
6000
6000
ENDCHAR
STARTCHAR sigma1
ENCODING 962
SWIDTH 472 0
DWIDTH 5 0
BBX 5 8 0 -2
BITMAP
2E00
7240
6040
6000
7400
1E00
0240
0200
ENDCHAR
STARTCHAR sigma
ENCODING 963
SWIDTH 498 0
DWIDTH 5 0
BBX 6 6 0 0
BITMAP
1FD0
7140
6080
60C0
3180
1E00
ENDCHAR
STARTCHAR tau
ENCODING 964
SWIDTH 460 0
DWIDTH 5 0
BBX 5 6 0 0
BITMAP
BF80
0C00
0C00
0C00
0C00
0A00
ENDCHAR
STARTCHAR upsilon
ENCODING 965
SWIDTH 480 0
DWIDTH 5 0
BBX 5 6 0 0
BITMAP
6240
6180
6180
6180
3240
2E00
ENDCHAR
STARTCHAR phi
ENCODING 966
SWIDTH 617 0
DWIDTH 7 0
BBX 7 9 0 -3
BITMAP
22D0
6370
9224
6224
7770
1F90
0200
0200
0200
ENDCHAR
STARTCHAR chi
ENCODING 967
SWIDTH 438 0
DWIDTH 5 0
BBX 5 8 0 -2
BITMAP
A240
2700
1E00
0D00
1D00
2A00
3300
61C0
ENDCHAR
STARTCHAR psi
ENCODING 968
SWIDTH 612 0
DWIDTH 7 0
BBX 7 9 0 -3
BITMAP
9630
9620
9624
6624
3670
1F90
0600
0600
0600
ENDCHAR
STARTCHAR omega
ENCODING 969
SWIDTH 711 0
DWIDTH 8 0
BBX 7 6 0 0
BITMAP
3018
610C
6248
6248
328C
2DB4
ENDCHAR
STARTCHAR iotadieresis
ENCODING 970
SWIDTH 299 0
DWIDTH 3 0
BBX 4 8 0 0
BITMAP
89
00
30
30
30
30
30
28
ENDCHAR
STARTCHAR upsilondieresis
ENCODING 971
SWIDTH 480 0
DWIDTH 5 0
BBX 5 8 0 0
BITMAP
3240
0000
6240
6180
6180
6180
3240
2E00
ENDCHAR
STARTCHAR omicrontonos
ENCODING 972
SWIDTH 501 0
DWIDTH 6 0
BBX 5 9 0 0
BITMAP
0500
0400
0000
2E40
6180
60C0
60C0
6180
2E40
ENDCHAR
STARTCHAR upsilontonos
ENCODING 973
SWIDTH 480 0
DWIDTH 5 0
BBX 5 9 0 0
BITMAP
0900
0800
0000
6240
6180
6180
6180
3240
2E00
ENDCHAR
STARTCHAR omegatonos
ENCODING 974
SWIDTH 711 0
DWIDTH 8 0
BBX 7 9 0 0
BITMAP
0180
0140
0000
3018
610C
6248
6248
328C
2DB4
ENDCHAR
STARTCHAR theta1
ENCODING 977
SWIDTH 507 0
DWIDTH 6 0
BBX 6 8 0 0
BITMAP
0B40
1980
1980
1D80
67D0
6180
7280
2E00
ENDCHAR
STARTCHAR Upsilon1
ENCODING 978
SWIDTH 465 0
DWIDTH 5 0
BBX 5 8 0 0
BITMAP
D1C0
6240
3700
1E00
0D00
0C00
0C00
0C00
ENDCHAR
STARTCHAR omega1
ENCODING 982
SWIDTH 678 0
DWIDTH 7 0
BBX 7 6 0 0
BITMAP
BFFC
3018
6258
6248
3398
2DB4
ENDCHAR
STARTCHAR uni0400
ENCODING 1024
SWIDTH 496 0
DWIDTH 5 0
BBX 4 11 1 0
BITMAP
60
24
00
FF
80
80
FE
80
80
80
FF
ENDCHAR
STARTCHAR uni0401
ENCODING 1025
SWIDTH 496 0
DWIDTH 5 0
BBX 4 10 1 0
BITMAP
96
00
FF
80
80
FE
80
80
80
FF
ENDCHAR
STARTCHAR uni0402
ENCODING 1026
SWIDTH 650 0
DWIDTH 7 0
BBX 7 8 0 0
BITMAP
BFD0
0C00
0C00
0FE0
0D28
0C18
0C28
0CA0
ENDCHAR
STARTCHAR uni0403
ENCODING 1027
SWIDTH 487 0
DWIDTH 5 0
BBX 4 11 1 0
BITMAP
0D
18
00
FF
C0
C0
C0
C0
C0
C0
C0
ENDCHAR
STARTCHAR uni0404
ENCODING 1028
SWIDTH 589 0
DWIDTH 6 0
BBX 6 8 0 0
BITMAP
1B80
3490
6050
7F00
6000
6050
3490
1B80
ENDCHAR
STARTCHAR uni0405
ENCODING 1029
SWIDTH 518 0
DWIDTH 6 0
BBX 6 8 0 0
BITMAP
1F40
71C0
6040
2900
0680
5090
60C0
1F40
ENDCHAR
STARTCHAR uni0406
ENCODING 1030
SWIDTH 250 0
DWIDTH 3 0
BBX 1 8 1 0
BITMAP
C0
C0
C0
C0
C0
C0
C0
C0
ENDCHAR
STARTCHAR uni0407
ENCODING 1031
SWIDTH 250 0
DWIDTH 3 0
BBX 4 10 -1 0
BITMAP
63
00
0C
0C
0C
0C
0C
0C
0C
0C
ENDCHAR
STARTCHAR uni0408
ENCODING 1032
SWIDTH 483 0
DWIDTH 5 0
BBX 5 8 0 0
BITMAP
0180
0180
0180
0180
0180
4180
A240
2E00
ENDCHAR
STARTCHAR uni0409
ENCODING 1033
SWIDTH 923 0
DWIDTH 10 0
BBX 10 8 0 0
BITMAP
1FF000
183000
183000
183F80
1830A0
243060
2430A0
A03F80
ENDCHAR
STARTCHAR uni040A
ENCODING 1034
SWIDTH 927 0
DWIDTH 10 0
BBX 9 8 1 0
BITMAP
C0C000
C0C000
C0C000
FFFE00
C0C280
C0C180
C0C280
C0FE00
ENDCHAR
STARTCHAR uni040B
ENCODING 1035
SWIDTH 705 0
DWIDTH 8 0
BBX 7 8 0 0
BITMAP
BFE0
0900
0900
0BE4
0918
090C
090C
090C
ENDCHAR
STARTCHAR uni040C
ENCODING 1036
SWIDTH 544 0
DWIDTH 6 0
BBX 5 11 1 0
BITMAP
0D00
1400
0000
8240
8600
9C00
F400
E800
C900
8300
8280
ENDCHAR
STARTCHAR uni040D
ENCODING 1037
SWIDTH 619 0
DWIDTH 7 0
BBX 5 11 1 0
BITMAP
3400
1800
0000
C1C0
C2C0
C6C0
C9C0
D8C0
E0C0
E0C0
C0C0
ENDCHAR
STARTCHAR uni040E
ENCODING 1038
SWIDTH 547 0
DWIDTH 6 0
BBX 6 11 0 0
BITMAP
2580
0F00
0000
6090
30C0
2580
1A40
0B00
0600
0900
2800
ENDCHAR
STARTCHAR uni040F
ENCODING 1039
SWIDTH 621 0
DWIDTH 7 0
BBX 5 10 1 -2
BITMAP
C0C0
C0C0
C0C0
C0C0
C0C0
C0C0
C0C0
FFC0
0C00
0C00
ENDCHAR
STARTCHAR uni0410
ENCODING 1040
SWIDTH 576 0
DWIDTH 6 0
BBX 6 8 0 0
BITMAP
0600
0B00
0A40
1980
24C0
3FD0
6060
9030
ENDCHAR
STARTCHAR uni0411
ENCODING 1041
SWIDTH 549 0
DWIDTH 6 0
BBX 6 8 0 0
BITMAP
7FC0
6000
6000
7F80
6090
6060
6090
7F80
ENDCHAR
STARTCHAR uni0412
ENCODING 1042
SWIDTH 545 0
DWIDTH 6 0
BBX 5 8 1 0
BITMAP
FE00
8300
8300
FE00
8340
8240
8340
FE00
ENDCHAR
STARTCHAR uni0413
ENCODING 1043
SWIDTH 487 0
DWIDTH 5 0
BBX 4 8 1 0
BITMAP
FF
C0
C0
C0
C0
C0
C0
C0
ENDCHAR
STARTCHAR uni0414
ENCODING 1044
SWIDTH 660 0
DWIDTH 7 0
BBX 7 10 0 -2
BITMAP
0FF0
0C30
1830
1830
1830
2430
3030
BFFC
900C
900C
ENDCHAR
STARTCHAR uni0415
ENCODING 1045
SWIDTH 496 0
DWIDTH 5 0
BBX 4 8 1 0
BITMAP
FF
80
80
FE
80
80
80
FF
ENDCHAR
STARTCHAR uni0416
ENCODING 1046
SWIDTH 791 0
DWIDTH 9 0
BBX 9 8 0 0
BITMAP
60C300
24C900
0CC800
0BF800
0CDC00
28C900
30C700
A0C340
ENDCHAR
STARTCHAR uni0417
ENCODING 1047
SWIDTH 517 0
DWIDTH 6 0
BBX 6 8 0 0
BITMAP
2F40
61C0
00C0
0F40
01C0
0090
61C0
2F40
ENDCHAR
STARTCHAR uni0418
ENCODING 1048
SWIDTH 619 0
DWIDTH 7 0
BBX 5 8 1 0
BITMAP
C1C0
C2C0
C6C0
C9C0
D8C0
E0C0
E0C0
C0C0
ENDCHAR
STARTCHAR uni0419
ENCODING 1049
SWIDTH 619 0
DWIDTH 7 0
BBX 5 11 1 0
BITMAP
2300
2D00
0000
C1C0
C2C0
C6C0
C9C0
D8C0
E0C0
E0C0
C0C0
ENDCHAR
STARTCHAR uni041A
ENCODING 1050
SWIDTH 560 0
DWIDTH 6 0
BBX 5 8 1 0
BITMAP
C280
C600
DC00
F800
CC00
CA00
C340
C180
ENDCHAR
STARTCHAR uni041B
ENCODING 1051
SWIDTH 615 0
DWIDTH 7 0
BBX 6 8 0 0
BITMAP
1FF0
1830
1830
1830
1830
2430
2430
A030
ENDCHAR
STARTCHAR uni041C
ENCODING 1052
SWIDTH 755 0
DWIDTH 8 0
BBX 7 8 1 0
BITMAP
D034
E074
B0A4
A4E4
99A4
8A64
8B24
8624
ENDCHAR
STARTCHAR uni041D
ENCODING 1053
SWIDTH 620 0
DWIDTH 7 0
BBX 5 8 1 0
BITMAP
80C0
80C0
80C0
FFC0
80C0
80C0
80C0
80C0
ENDCHAR
STARTCHAR uni041E
ENCODING 1054
SWIDTH 600 0
DWIDTH 7 0
BBX 6 8 0 0
BITMAP
1B80
34A0
6020
6030
6030
6030
34A0
1F80
ENDCHAR
STARTCHAR uni041F
ENCODING 1055
SWIDTH 620 0
DWIDTH 7 0
BBX 5 8 1 0
BITMAP
FFC0
C0C0
C0C0
C0C0
C0C0
C0C0
C0C0
C0C0
ENDCHAR
STARTCHAR uni0420
ENCODING 1056
SWIDTH 554 0
DWIDTH 6 0
BBX 5 8 1 0
BITMAP
FE00
8240
8180
8240
FE00
8000
8000
8000
ENDCHAR
STARTCHAR uni0421
ENCODING 1057
SWIDTH 566 0
DWIDTH 6 0
BBX 6 8 0 0
BITMAP
1B80
3490
6060
6000
6000
6060
3490
1F80
ENDCHAR
STARTCHAR uni0422
ENCODING 1058
SWIDTH 520 0
DWIDTH 6 0
BBX 6 8 0 0
BITMAP
BFD0
0900
0900
0900
0900
0900
0900
0900
ENDCHAR
STARTCHAR uni0423
ENCODING 1059
SWIDTH 547 0
DWIDTH 6 0
BBX 6 8 0 0
BITMAP
6090
30C0
2580
1A40
0B00
0600
0900
2800
ENDCHAR
STARTCHAR uni0424
ENCODING 1060
SWIDTH 676 0
DWIDTH 7 0
BBX 7 8 0 0
BITMAP
0240
1FE0
3668
624C
624C
3668
1FE0
0240
ENDCHAR
STARTCHAR uni0425
ENCODING 1061
SWIDTH 550 0
DWIDTH 6 0
BBX 6 8 0 0
BITMAP
6090
25C0
1A40
0B00
0B00
1A40
35C0
6090
ENDCHAR
STARTCHAR uni0426
ENCODING 1062
SWIDTH 639 0
DWIDTH 7 0
BBX 6 10 1 -2
BITMAP
C0C0
C0C0
C0C0
C0C0
C0C0
C0C0
C0C0
FFE0
0060
0060
ENDCHAR
STARTCHAR uni0427
ENCODING 1063
SWIDTH 600 0
DWIDTH 7 0
BBX 6 8 0 0
BITMAP
6060
6060
6060
3060
1FE0
0060
0060
0060
ENDCHAR
STARTCHAR uni0428
ENCODING 1064
SWIDTH 814 0
DWIDTH 9 0
BBX 7 8 1 0
BITMAP
C30C
C30C
C30C
C30C
C30C
C30C
C30C
FFFC
ENDCHAR
STARTCHAR uni0429
ENCODING 1065
SWIDTH 841 0
DWIDTH 9 0
BBX 8 10 1 -2
BITMAP
C30C
C30C
C30C
C30C
C30C
C30C
C30C
FFFE
0006
0006
ENDCHAR
STARTCHAR uni042A
ENCODING 1066
SWIDTH 651 0
DWIDTH 7 0
BBX 7 8 0 0
BITMAP
BC00
0C00
0C00
0FE0
0C28
0C18
0C28
0FE0
ENDCHAR
STARTCHAR uni042B
ENCODING 1067
SWIDTH 755 0
DWIDTH 8 0
BBX 7 8 1 0
BITMAP
C024
C024
C024
FE24
C2A4
C1A4
C2A4
FE24
ENDCHAR
STARTCHAR uni042C
ENCODING 1068
SWIDTH 551 0
DWIDTH 6 0
BBX 6 8 0 0
BITMAP
6000
6000
6000
7F80
6090
6060
6090
7F80
ENDCHAR
STARTCHAR uni042D
ENCODING 1069
SWIDTH 589 0
DWIDTH 6 0
BBX 5 8 1 0
BITMAP
7E00
D240
8080
2FC0
00C0
4180
D240
7E00
ENDCHAR
STARTCHAR uni042E
ENCODING 1070
SWIDTH 765 0
DWIDTH 8 0
BBX 7 8 1 0
BITMAP
C7E0
CD28
DC0C
F80C
D80C
CC0C
C928
C2E0
ENDCHAR
STARTCHAR uni042F
ENCODING 1071
SWIDTH 562 0
DWIDTH 6 0
BBX 6 8 0 0
BITMAP
1FD0
3490
6090
3490
1FD0
1890
2490
6090
ENDCHAR
STARTCHAR uni0430
ENCODING 1072
SWIDTH 479 0
DWIDTH 5 0
BBX 5 6 0 0
BITMAP
2E00
1240
2F80
6180
6280
2E80
ENDCHAR
STARTCHAR uni0431
ENCODING 1073
SWIDTH 484 0
DWIDTH 5 0
BBX 5 8 0 0
BITMAP
0240
1E00
2000
6F40
6180
60C0
6180
2E00
ENDCHAR
STARTCHAR uni0432
ENCODING 1074
SWIDTH 503 0
DWIDTH 6 0
BBX 5 6 0 0
BITMAP
7F40
6180
7F40
61C0
61C0
7F40
ENDCHAR
STARTCHAR uni0433
ENCODING 1075
SWIDTH 371 0
DWIDTH 4 0
BBX 4 6 0 0
BITMAP
7F
60
60
60
60
60
ENDCHAR
STARTCHAR uni0434
ENCODING 1076
SWIDTH 536 0
DWIDTH 6 0
BBX 6 8 0 -2
BITMAP
1FC0
14C0
14C0
24C0
30C0
BFE0
9060
9060
ENDCHAR
STARTCHAR uni0435
ENCODING 1077
SWIDTH 468 0
DWIDTH 5 0
BBX 5 6 0 0
BITMAP
2E00
6180
7F80
6000
6000
2F40
ENDCHAR
STARTCHAR uni0436
ENCODING 1078
SWIDTH 662 0
DWIDTH 7 0
BBX 7 6 0 0
BITMAP
6328
2770
1FE0
2770
3324
A318
ENDCHAR
STARTCHAR uni0437
ENCODING 1079
SWIDTH 446 0
DWIDTH 5 0
BBX 5 6 0 0
BITMAP
2E00
6340
1E00
0240
6240
2E00
ENDCHAR
STARTCHAR uni0438
ENCODING 1080
SWIDTH 509 0
DWIDTH 6 0
BBX 5 6 0 0
BITMAP
6180
6280
6680
6980
7480
7080
ENDCHAR
STARTCHAR uni0439
ENCODING 1081
SWIDTH 509 0
DWIDTH 6 0
BBX 5 9 0 0
BITMAP
2640
1E00
0000
6180
6280
6680
6980
7480
7080
ENDCHAR
STARTCHAR uni043A
ENCODING 1082
SWIDTH 479 0
DWIDTH 5 0
BBX 5 6 0 0
BITMAP
6280
6600
7D00
6600
6340
6180
ENDCHAR
STARTCHAR uni043B
ENCODING 1083
SWIDTH 509 0
DWIDTH 6 0
BBX 5 6 0 0
BITMAP
2F80
2480
2480
2480
3080
A080
ENDCHAR
STARTCHAR uni043C
ENCODING 1084
SWIDTH 645 0
DWIDTH 7 0
BBX 7 6 0 0
BITMAP
7434
7874
68A4
69A4
6764
6324
ENDCHAR
STARTCHAR uni043D
ENCODING 1085
SWIDTH 508 0
DWIDTH 6 0
BBX 5 6 0 0
BITMAP
6080
6080
7F80
6080
6080
6080
ENDCHAR
STARTCHAR uni043E
ENCODING 1086
SWIDTH 501 0
DWIDTH 6 0
BBX 5 6 0 0
BITMAP
2E40
6180
60C0
60C0
6180
2E40
ENDCHAR
STARTCHAR uni043F
ENCODING 1087
SWIDTH 509 0
DWIDTH 6 0
BBX 5 6 0 0
BITMAP
7F80
6080
6080
6080
6080
6080
ENDCHAR
STARTCHAR uni0440
ENCODING 1088
SWIDTH 493 0
DWIDTH 5 0
BBX 5 8 0 -2
BITMAP
6F40
6180
60C0
60C0
6180
6F40
6000
6000
ENDCHAR
STARTCHAR uni0441
ENCODING 1089
SWIDTH 461 0
DWIDTH 5 0
BBX 5 6 0 0
BITMAP
2E00
6180
5040
5000
6180
2E00
ENDCHAR
STARTCHAR uni0442
ENCODING 1090
SWIDTH 424 0
DWIDTH 5 0
BBX 5 6 0 0
BITMAP
BF40
0800
0800
0800
0800
0800
ENDCHAR
STARTCHAR uni0443
ENCODING 1091
SWIDTH 416 0
DWIDTH 5 0
BBX 5 8 0 -2
BITMAP
9240
6300
3600
2900
1C00
1800
2400
A000
ENDCHAR
STARTCHAR uni0444
ENCODING 1092
SWIDTH 628 0
DWIDTH 7 0
BBX 7 10 0 -2
BITMAP
0300
0300
2FE0
6330
6324
6324
6334
2FE0
0300
0300
ENDCHAR
STARTCHAR uni0445
ENCODING 1093
SWIDTH 438 0
DWIDTH 5 0
BBX 5 6 0 0
BITMAP
6340
3600
1C00
1D00
3600
6240
ENDCHAR
STARTCHAR uni0446
ENCODING 1094
SWIDTH 524 0
DWIDTH 6 0
BBX 6 8 0 -2
BITMAP
6080
6080
6080
6080
6080
7FD0
0090
0090
ENDCHAR
STARTCHAR uni0447
ENCODING 1095
SWIDTH 479 0
DWIDTH 5 0
BBX 5 6 0 0
BITMAP
6140
6140
6240
2F40
0140
0140
ENDCHAR
STARTCHAR uni0448
ENCODING 1096
SWIDTH 703 0
DWIDTH 8 0
BBX 7 6 0 0
BITMAP
624C
624C
624C
624C
624C
7FFC
ENDCHAR
STARTCHAR uni0449
ENCODING 1097
SWIDTH 722 0
DWIDTH 8 0
BBX 8 8 0 -2
BITMAP
624C
624C
624C
624C
624C
7FFE
0006
0006
ENDCHAR
STARTCHAR uni044A
ENCODING 1098
SWIDTH 538 0
DWIDTH 6 0
BBX 6 6 0 0
BITMAP
B800
1800
1F80
18A0
18A0
1F80
ENDCHAR
STARTCHAR uni044B
ENCODING 1099
SWIDTH 679 0
DWIDTH 7 0
BBX 7 6 0 0
BITMAP
6018
6018
7F58
6198
6198
7F58
ENDCHAR
STARTCHAR uni044C
ENCODING 1100
SWIDTH 478 0
DWIDTH 5 0
BBX 5 6 0 0
BITMAP
6000
6000
7F40
6180
6180
7F40
ENDCHAR
STARTCHAR uni044D
ENCODING 1101
SWIDTH 472 0
DWIDTH 5 0
BBX 5 6 0 0
BITMAP
2E00
5240
0F80
0180
6240
2E00
ENDCHAR
STARTCHAR uni044E
ENCODING 1102
SWIDTH 706 0
DWIDTH 8 0
BBX 8 6 0 0
BITMAP
61F4
635C
7E09
6209
625C
61F4
ENDCHAR
STARTCHAR uni044F
ENCODING 1103
SWIDTH 482 0
DWIDTH 5 0
BBX 5 6 0 0
BITMAP
2F80
6180
6180
2F80
3180
6180
ENDCHAR
STARTCHAR uni0450
ENCODING 1104
SWIDTH 468 0
DWIDTH 5 0
BBX 5 9 0 0
BITMAP
2800
0800
0000
2E00
6180
7F80
6000
6000
2F40
ENDCHAR
STARTCHAR uni0451
ENCODING 1105
SWIDTH 468 0
DWIDTH 5 0
BBX 5 8 0 0
BITMAP
3240
0000
2E00
6180
7F80
6000
6000
2F40
ENDCHAR
STARTCHAR uni0452
ENCODING 1106
SWIDTH 482 0
DWIDTH 5 0
BBX 5 11 0 -2
BITMAP
6000
FC00
6000
6F40
7280
6180
6180
6180
6180
0180
0740
ENDCHAR
STARTCHAR uni0453
ENCODING 1107
SWIDTH 371 0
DWIDTH 4 0
BBX 4 9 0 0
BITMAP
09
18
00
7F
60
60
60
60
60
ENDCHAR
STARTCHAR uni0454
ENCODING 1108
SWIDTH 472 0
DWIDTH 5 0
BBX 5 6 0 0
BITMAP
1E00
6180
7D00
6000
7180
1E00
ENDCHAR
STARTCHAR uni0455
ENCODING 1109
SWIDTH 455 0
DWIDTH 5 0
BBX 5 6 0 0
BITMAP
2E00
6240
3900
0740
6240
2E00
ENDCHAR
STARTCHAR uni0456
ENCODING 1110
SWIDTH 229 0
DWIDTH 3 0
BBX 2 8 0 0
BITMAP
60
00
60
60
60
60
60
60
ENDCHAR
STARTCHAR uni0457
ENCODING 1111
SWIDTH 234 0
DWIDTH 3 0
BBX 4 8 -1 0
BITMAP
63
00
18
18
18
18
18
18
ENDCHAR
STARTCHAR uni0458
ENCODING 1112
SWIDTH 223 0
DWIDTH 2 0
BBX 2 10 0 -2
BITMAP
60
00
60
60
60
60
60
60
60
D0
ENDCHAR
STARTCHAR uni0459
ENCODING 1113
SWIDTH 729 0
DWIDTH 8 0
BBX 8 6 0 0
BITMAP
2F80
2580
25F8
218A
318A
A1F8
ENDCHAR
STARTCHAR uni045A
ENCODING 1114
SWIDTH 743 0
DWIDTH 8 0
BBX 8 6 0 0
BITMAP
6080
6080
7FFD
6086
6086
60FD
ENDCHAR
STARTCHAR uni045B
ENCODING 1115
SWIDTH 499 0
DWIDTH 5 0
BBX 5 9 0 0
BITMAP
6000
FC00
6000
6F40
7280
6180
6180
6180
6180
ENDCHAR
STARTCHAR uni045C
ENCODING 1116
SWIDTH 479 0
DWIDTH 5 0
BBX 5 9 0 0
BITMAP
0700
0900
0000
6280
6600
7D00
6600
6340
6180
ENDCHAR
STARTCHAR uni045D
ENCODING 1117
SWIDTH 509 0
DWIDTH 6 0
BBX 5 9 0 0
BITMAP
2800
0800
0000
6180
6280
6680
6980
7480
7080
ENDCHAR
STARTCHAR uni045E
ENCODING 1118
SWIDTH 416 0
DWIDTH 5 0
BBX 5 11 0 -2
BITMAP
2300
2D00
0000
9240
6300
3600
2900
1C00
1800
2400
A000
ENDCHAR
STARTCHAR uni045F
ENCODING 1119
SWIDTH 509 0
DWIDTH 6 0
BBX 5 8 0 -2
BITMAP
6080
6080
6080
6080
6080
7F80
0900
0900
ENDCHAR
STARTCHAR uni0460
ENCODING 1120
SWIDTH 754 0
DWIDTH 8 0
BBX 8 8 0 0
BITMAP
6186
6186
6186
6186
6186
6186
32C9
2E78
ENDCHAR
STARTCHAR uni0461
ENCODING 1121
SWIDTH 650 0
DWIDTH 7 0
BBX 7 6 0 0
BITMAP
6318
6318
6318
6318
6364
2EE0
ENDCHAR
STARTCHAR uni0462
ENCODING 1122
SWIDTH 551 0
DWIDTH 6 0
BBX 6 8 0 0
BITMAP
6000
F800
6000
7F80
6090
6060
6090
7F80
ENDCHAR
STARTCHAR uni0463
ENCODING 1123
SWIDTH 477 0
DWIDTH 5 0
BBX 5 9 0 0
BITMAP
6000
6000
FD00
6000
6000
7F40
6180
6180
7F40
ENDCHAR
STARTCHAR uni0464
ENCODING 1124
SWIDTH 772 0
DWIDTH 9 0
BBX 7 8 1 0
BITMAP
C6E0
CD24
D804
FFC0
D800
C804
C924
C2E0
ENDCHAR
STARTCHAR uni0465
ENCODING 1125
SWIDTH 646 0
DWIDTH 7 0
BBX 7 6 0 0
BITMAP
62E0
6628
7FD0
6600
6618
62E0
ENDCHAR
STARTCHAR uni0466
ENCODING 1126
SWIDTH 526 0
DWIDTH 6 0
BBX 6 8 0 0
BITMAP
0A00
0B00
0E40
1980
2580
3FC0
6690
9660
ENDCHAR
STARTCHAR uni0467
ENCODING 1127
SWIDTH 470 0
DWIDTH 5 0
BBX 5 6 0 0
BITMAP
0C00
1D00
2A00
3300
7F40
9D80
ENDCHAR
STARTCHAR uni0468
ENCODING 1128
SWIDTH 759 0
DWIDTH 8 0
BBX 7 8 1 0
BITMAP
C0C0
C1D0
C2A0
C330
C634
FFF4
C9D8
CCCC
ENDCHAR
STARTCHAR uni0469
ENCODING 1129
SWIDTH 654 0
DWIDTH 7 0
BBX 6 6 1 0
BITMAP
C300
C740
CA80
CCC0
FFD0
E760
ENDCHAR
STARTCHAR uni046A
ENCODING 1130
SWIDTH 747 0
DWIDTH 8 0
BBX 8 8 0 0
BITMAP
1FF8
0C24
0A60
0390
2FF8
3189
6189
6189
ENDCHAR
STARTCHAR uni046B
ENCODING 1131
SWIDTH 645 0
DWIDTH 7 0
BBX 7 6 0 0
BITMAP
1FE0
0CC0
0A80
2FE0
3324
6324
ENDCHAR
STARTCHAR uni046C
ENCODING 1132
SWIDTH 980 0
DWIDTH 11 0
BBX 9 8 1 0
BITMAP
C2FF40
C18600
C0C900
C0AC00
FFFF40
CA25C0
C924C0
C924C0
ENDCHAR
STARTCHAR uni046D
ENCODING 1133
SWIDTH 856 0
DWIDTH 9 0
BBX 9 6 0 0
BITMAP
60FF00
609900
606C00
7FFE00
626680
632580
ENDCHAR
STARTCHAR uni046E
ENCODING 1134
SWIDTH 454 0
DWIDTH 5 0
BBX 5 13 0 -2
BITMAP
2600
0C00
0000
7D00
0300
0300
2D00
0300
0240
0300
7D00
9000
2000
ENDCHAR
STARTCHAR uni046F
ENCODING 1135
SWIDTH 423 0
DWIDTH 5 0
BBX 4 11 0 -2
BITMAP
25
18
00
7D
07
2D
03
03
7D
90
20
ENDCHAR
STARTCHAR uni0470
ENCODING 1136
SWIDTH 600 0
DWIDTH 7 0
BBX 6 8 0 0
BITMAP
9630
9630
9630
6630
76A0
1F80
0600
0600
ENDCHAR
STARTCHAR uni0471
ENCODING 1137
SWIDTH 612 0
DWIDTH 7 0
BBX 7 9 0 -3
BITMAP
9630
9620
9624
6624
3670
1F90
0600
0600
0600
ENDCHAR
STARTCHAR uni0472
ENCODING 1138
SWIDTH 593 0
DWIDTH 7 0
BBX 6 8 0 0
BITMAP
1F80
3490
6020
7FF0
6030
6060
3490
1F80
ENDCHAR
STARTCHAR uni0473
ENCODING 1139
SWIDTH 497 0
DWIDTH 5 0
BBX 5 6 0 0
BITMAP
1E00
6180
7FC0
60C0
7180
1E00
ENDCHAR
STARTCHAR uni0474
ENCODING 1140
SWIDTH 553 0
DWIDTH 6 0
BBX 6 8 0 0
BITMAP
9060
6090
30C0
2180
2640
1A00
0E00
0A00
ENDCHAR
STARTCHAR uni0475
ENCODING 1141
SWIDTH 443 0
DWIDTH 5 0
BBX 5 6 0 0
BITMAP
9180
6300
3200
2500
1D00
0C00
ENDCHAR
STARTCHAR uni0476
ENCODING 1142
SWIDTH 553 0
DWIDTH 6 0
BBX 6 11 0 0
BITMAP
3900
1A00
0000
9060
6090
30C0
2180
2640
1A00
0E00
0A00
ENDCHAR
STARTCHAR uni0477
ENCODING 1143
SWIDTH 443 0
DWIDTH 5 0
BBX 5 9 0 0
BITMAP
AC00
2900
0000
9180
6300
3200
2500
1D00
0C00
ENDCHAR
STARTCHAR uni0478
ENCODING 1144
SWIDTH 1017 0
DWIDTH 11 0
BBX 11 10 0 -2
BITMAP
1B8000
34A000
602308
603258
603164
6030B0
34A0A0
1F8090
000080
000380
ENDCHAR
STARTCHAR uni0479
ENCODING 1145
SWIDTH 918 0
DWIDTH 10 0
BBX 10 8 0 -2
BITMAP
2E4C60
618C90
60C980
60C6C0
618380
2E4240
000300
000D00
ENDCHAR
STARTCHAR uni047A
ENCODING 1146
SWIDTH 593 0
DWIDTH 7 0
BBX 6 10 0 -1
BITMAP
0100
1F80
3590
6060
6030
6030
6060
3590
1F80
0200
ENDCHAR
STARTCHAR uni047B
ENCODING 1147
SWIDTH 498 0
DWIDTH 5 0
BBX 5 8 0 -1
BITMAP
0400
2F00
6580
60C0
60C0
6580
2F00
0400
ENDCHAR
STARTCHAR uni047C
ENCODING 1148
SWIDTH 752 0
DWIDTH 8 0
BBX 8 11 0 0
BITMAP
0380
0570
0080
1958
3009
6006
6146
6186
6186
32C9
1E78
ENDCHAR
STARTCHAR uni047D
ENCODING 1149
SWIDTH 654 0
DWIDTH 7 0
BBX 7 9 0 0
BITMAP
0740
08A0
0140
2630
6024
6118
6318
6364
2EF0
ENDCHAR
STARTCHAR uni047E
ENCODING 1150
SWIDTH 754 0
DWIDTH 8 0
BBX 8 11 0 0
BITMAP
0BF0
0180
0000
6186
6186
6186
6186
6186
6186
32C9
2E78
ENDCHAR
STARTCHAR uni047F
ENCODING 1151
SWIDTH 650 0
DWIDTH 7 0
BBX 7 9 0 0
BITMAP
1FE0
0200
0000
6318
6318
6318
6318
6364
2EE0
ENDCHAR
STARTCHAR uni0480
ENCODING 1152
SWIDTH 570 0
DWIDTH 6 0
BBX 6 10 0 -2
BITMAP
1F80
3490
6050
6000
6000
6000
3400
1E00
0600
0600
ENDCHAR
STARTCHAR uni0481
ENCODING 1153
SWIDTH 472 0
DWIDTH 5 0
BBX 5 8 0 -2
BITMAP
2E00
7240
6000
6000
7000
2D00
0900
0900
ENDCHAR
STARTCHAR uni0482
ENCODING 1154
SWIDTH 547 0
DWIDTH 6 0
BBX 4 7 1 0
BITMAP
02
29
0E
55
B0
68
80
ENDCHAR
STARTCHAR uni0483
ENCODING 1155
SWIDTH 0 0
DWIDTH 0 0
BBX 4 3 -4 6
BITMAP
04
FD
40
ENDCHAR
STARTCHAR uni0484
ENCODING 1156
SWIDTH 0 0
DWIDTH 0 0
BBX 4 2 -4 7
BITMAP
2C
D5
ENDCHAR
STARTCHAR uni0485
ENCODING 1157
SWIDTH 0 0
DWIDTH 0 0
BBX 1 2 -3 7
BITMAP
C0
40
ENDCHAR
STARTCHAR uni0486
ENCODING 1158
SWIDTH 0 0
DWIDTH 0 0
BBX 2 2 -3 7
BITMAP
50
40
ENDCHAR
STARTCHAR uni0488
ENCODING 1160
SWIDTH 0 0
DWIDTH 0 0
BBX 11 11 -8 -3
BITMAP
00A000
005000
2801C0
140150
A00070
500054
000000
280280
140140
00A000
005000
ENDCHAR
STARTCHAR uni0489
ENCODING 1161
SWIDTH 0 0
DWIDTH 0 0
BBX 10 10 -8 -2
BITMAP
001000
145000
080240
000100
000000
A00090
000000
040200
245140
004000
ENDCHAR
STARTCHAR uni048A
ENCODING 1162
SWIDTH 666 0
DWIDTH 7 0
BBX 6 13 1 -2
BITMAP
3240
1E00
0000
C1C0
C2C0
C6C0
C9C0
D8C0
E0C0
E0C0
C0F0
0060
0050
ENDCHAR
STARTCHAR uni048B
ENCODING 1163
SWIDTH 550 0
DWIDTH 6 0
BBX 6 11 0 -2
BITMAP
1580
0F40
0000
6180
6280
6680
6980
7480
70E0
0060
0050
ENDCHAR
STARTCHAR uni048C
ENCODING 1164
SWIDTH 551 0
DWIDTH 6 0
BBX 6 8 0 0
BITMAP
6000
F800
6000
7F80
6090
6060
6090
7F80
ENDCHAR
STARTCHAR uni048D
ENCODING 1165
SWIDTH 477 0
DWIDTH 5 0
BBX 5 9 0 0
BITMAP
6000
FD00
6000
6000
6000
7F40
6180
6180
7F40
ENDCHAR
STARTCHAR uni048E
ENCODING 1166
SWIDTH 557 0
DWIDTH 6 0
BBX 5 8 1 0
BITMAP
FE00
8240
8180
8740
FF40
8040
8000
8000
ENDCHAR
STARTCHAR uni048F
ENCODING 1167
SWIDTH 496 0
DWIDTH 5 0
BBX 5 8 0 -2
BITMAP
6F00
6180
60C0
60C0
6380
7F80
6000
6000
ENDCHAR
STARTCHAR uni0490
ENCODING 1168
SWIDTH 479 0
DWIDTH 5 0
BBX 5 10 0 0
BITMAP
0080
00C0
7FC0
6000
6000
6000
6000
6000
6000
6000
ENDCHAR
STARTCHAR uni0491
ENCODING 1169
SWIDTH 395 0
DWIDTH 4 0
BBX 4 8 0 0
BITMAP
02
03
7F
60
60
60
60
60
ENDCHAR
STARTCHAR uni0492
ENCODING 1170
SWIDTH 487 0
DWIDTH 5 0
BBX 5 8 0 0
BITMAP
3FC0
3000
3000
FC00
3000
3000
3000
3000
ENDCHAR
STARTCHAR uni0493
ENCODING 1171
SWIDTH 371 0
DWIDTH 4 0
BBX 4 6 0 0
BITMAP
7F
60
FC
60
60
60
ENDCHAR
STARTCHAR uni0494
ENCODING 1172
SWIDTH 539 0
DWIDTH 6 0
BBX 5 10 1 -2
BITMAP
FF00
C000
C000
C000
FD00
C700
C240
C240
0300
0900
ENDCHAR
STARTCHAR uni0495
ENCODING 1173
SWIDTH 443 0
DWIDTH 5 0
BBX 5 8 0 -2
BITMAP
7F00
6000
6000
7E00
6240
6240
0240
0600
ENDCHAR
STARTCHAR uni0496
ENCODING 1174
SWIDTH 833 0
DWIDTH 9 0
BBX 9 10 0 -2
BITMAP
60C300
24C900
0CC800
0BF800
0CDC00
28C900
30C700
A0C3C0
0000C0
0000C0
ENDCHAR
STARTCHAR uni0497
ENCODING 1175
SWIDTH 696 0
DWIDTH 8 0
BBX 8 8 0 -2
BITMAP
6328
2770
1FE0
2770
3324
A31D
0009
0009
ENDCHAR
STARTCHAR uni0498
ENCODING 1176
SWIDTH 517 0
DWIDTH 6 0
BBX 6 10 0 -2
BITMAP
2F40
61C0
00C0
0F40
01C0
0090
61C0
2F40
0900
0900
ENDCHAR
STARTCHAR uni0499
ENCODING 1177
SWIDTH 446 0
DWIDTH 5 0
BBX 5 8 0 -2
BITMAP
2E00
6340
1E00
0240
6240
2E00
0C00
0C00
ENDCHAR
STARTCHAR uni049A
ENCODING 1178
SWIDTH 617 0
DWIDTH 7 0
BBX 6 10 1 -2
BITMAP
C280
C600
DC00
F800
CC00
CA00
C340
C1D0
0090
0090
ENDCHAR
STARTCHAR uni049B
ENCODING 1179
SWIDTH 524 0
DWIDTH 6 0
BBX 6 8 0 -2
BITMAP
6280
6600
7D00
6600
6340
61D0
0090
0090
ENDCHAR
STARTCHAR uni049C
ENCODING 1180
SWIDTH 553 0
DWIDTH 6 0
BBX 6 8 0 0
BITMAP
60A0
64C0
6A40
7F00
6A40
65C0
6090
6060
ENDCHAR
STARTCHAR uni049D
ENCODING 1181
SWIDTH 498 0
DWIDTH 5 0
BBX 6 6 0 0
BITMAP
60C0
6A40
7F00
6A40
6180
60D0
ENDCHAR
STARTCHAR uni049E
ENCODING 1182
SWIDTH 570 0
DWIDTH 6 0
BBX 6 8 0 0
BITMAP
30A0
FDC0
3340
3E00
3340
3180
30D0
3070
ENDCHAR
STARTCHAR uni049F
ENCODING 1183
SWIDTH 462 0
DWIDTH 5 0
BBX 6 9 -1 0
BITMAP
0800
7E00
0800
0890
0980
0F40
0980
08D0
0860
ENDCHAR
STARTCHAR uni04A0
ENCODING 1184
SWIDTH 710 0
DWIDTH 8 0
BBX 8 8 0 0
BITMAP
BE0D
0624
06A0
07D0
0660
0634
0618
0609
ENDCHAR
STARTCHAR uni04A1
ENCODING 1185
SWIDTH 607 0
DWIDTH 7 0
BBX 7 6 0 0
BITMAP
BD30
0990
0B80
09C0
0960
0934
ENDCHAR
STARTCHAR uni04A2
ENCODING 1186
SWIDTH 662 0
DWIDTH 7 0
BBX 6 10 1 -2
BITMAP
80C0
80C0
80C0
FFC0
80C0
80C0
80C0
80E0
0060
0060
ENDCHAR
STARTCHAR uni04A3
ENCODING 1187
SWIDTH 541 0
DWIDTH 6 0
BBX 6 8 0 -2
BITMAP
6080
6080
7F80
6080
6080
60E0
0060
0060
ENDCHAR
STARTCHAR uni04A4
ENCODING 1188
SWIDTH 829 0
DWIDTH 9 0
BBX 8 8 1 0
BITMAP
80FE
80C0
80C0
FFC0
80C0
80C0
80C0
80C0
ENDCHAR
STARTCHAR uni04A5
ENCODING 1189
SWIDTH 614 0
DWIDTH 7 0
BBX 7 6 0 0
BITMAP
61F4
6180
7F80
6180
6180
6180
ENDCHAR
STARTCHAR uni04A6
ENCODING 1190
SWIDTH 880 0
DWIDTH 10 0
BBX 8 10 1 -2
BITMAP
FFC0
C0C0
C0C0
C0F8
C0C6
C0C3
C0C3
C0C3
0006
000D
ENDCHAR
STARTCHAR uni04A7
ENCODING 1191
SWIDTH 755 0
DWIDTH 8 0
BBX 8 8 0 -2
BITMAP
7F80
6180
61F8
618A
6182
6182
000A
0008
ENDCHAR
STARTCHAR uni04A8
ENCODING 1192
SWIDTH 641 0
DWIDTH 7 0
BBX 7 8 0 0
BITMAP
19E0
3364
6318
6618
6218
6324
35A0
0BF8
ENDCHAR
STARTCHAR uni04A9
ENCODING 1193
SWIDTH 528 0
DWIDTH 6 0
BBX 6 6 0 0
BITMAP
2780
69C0
6990
6990
3680
1FD0
ENDCHAR
STARTCHAR uni04AA
ENCODING 1194
SWIDTH 566 0
DWIDTH 6 0
BBX 6 10 0 -2
BITMAP
1B80
3490
6060
6000
6000
6060
3490
1F80
0600
0600
ENDCHAR
STARTCHAR uni04AB
ENCODING 1195
SWIDTH 461 0
DWIDTH 5 0
BBX 5 8 0 -2
BITMAP
2E00
6180
5000
5000
6180
2E00
0C00
0C00
ENDCHAR
STARTCHAR uni04AC
ENCODING 1196
SWIDTH 520 0
DWIDTH 6 0
BBX 6 10 0 -2
BITMAP
BFD0
0900
0900
0900
0900
0900
0900
0B00
0200
0200
ENDCHAR
STARTCHAR uni04AD
ENCODING 1197
SWIDTH 424 0
DWIDTH 5 0
BBX 5 8 0 -2
BITMAP
BF40
0800
0800
0800
0800
0E00
0600
0600
ENDCHAR
STARTCHAR uni04AE
ENCODING 1198
SWIDTH 524 0
DWIDTH 6 0
BBX 6 8 0 0
BITMAP
9090
70C0
2640
1B00
0E00
0900
0900
0900
ENDCHAR
STARTCHAR uni04AF
ENCODING 1199
SWIDTH 444 0
DWIDTH 5 0
BBX 5 8 0 -2
BITMAP
9140
6200
3300
2A00
1D00
0C00
0C00
0C00
ENDCHAR
STARTCHAR uni04B0
ENCODING 1200
SWIDTH 524 0
DWIDTH 6 0
BBX 6 8 0 0
BITMAP
9090
30C0
2640
1A00
2F40
0900
0900
0900
ENDCHAR
STARTCHAR uni04B1
ENCODING 1201
SWIDTH 444 0
DWIDTH 5 0
BBX 5 8 0 -2
BITMAP
9140
6200
3200
2A00
1D00
3F00
0C00
0C00
ENDCHAR
STARTCHAR uni04B2
ENCODING 1202
SWIDTH 559 0
DWIDTH 6 0
BBX 6 10 0 -2
BITMAP
6090
25C0
1A40
0B00
0B00
1A40
35C0
60B0
0030
0030
ENDCHAR
STARTCHAR uni04B3
ENCODING 1203
SWIDTH 465 0
DWIDTH 5 0
BBX 5 8 0 -2
BITMAP
6340
3600
1C00
1D00
3600
63C0
0080
0080
ENDCHAR
STARTCHAR uni04B4
ENCODING 1204
SWIDTH 781 0
DWIDTH 9 0
BBX 8 10 0 -2
BITMAP
BF8C
0C0C
0C0C
0C0C
0C0C
0C0C
0C0C
0FFE
0006
0006
ENDCHAR
STARTCHAR uni04B5
ENCODING 1205
SWIDTH 587 0
DWIDTH 6 0
BBX 6 8 0 -2
BITMAP
BD90
2490
2490
2490
2490
2FF0
0030
0030
ENDCHAR
STARTCHAR uni04B6
ENCODING 1206
SWIDTH 638 0
DWIDTH 7 0
BBX 7 10 0 -2
BITMAP
6060
6060
6060
3060
1FE0
0060
0060
0078
0018
0018
ENDCHAR
STARTCHAR uni04B7
ENCODING 1207
SWIDTH 512 0
DWIDTH 6 0
BBX 6 8 0 -2
BITMAP
6140
6140
6240
2F40
0140
01D0
0090
0090
ENDCHAR
STARTCHAR uni04B8
ENCODING 1208
SWIDTH 595 0
DWIDTH 7 0
BBX 6 8 0 0
BITMAP
6060
6060
6160
3260
2FE0
0260
0160
0060
ENDCHAR
STARTCHAR uni04B9
ENCODING 1209
SWIDTH 483 0
DWIDTH 5 0
BBX 5 6 0 0
BITMAP
6180
6580
6980
2F80
0980
0180
ENDCHAR
STARTCHAR uni04BA
ENCODING 1210
SWIDTH 595 0
DWIDTH 7 0
BBX 6 8 0 0
BITMAP
6000
6000
6000
7F80
6090
6060
6060
6060
ENDCHAR
STARTCHAR uni04BB
ENCODING 1211
SWIDTH 482 0
DWIDTH 5 0
BBX 5 8 0 0
BITMAP
6000
6000
6F40
7280
6180
6180
6180
6180
ENDCHAR
STARTCHAR uni04BC
ENCODING 1212
SWIDTH 674 0
DWIDTH 7 0
BBX 7 8 0 0
BITMAP
02E0
4924
6C18
2FF8
0C00
0C00
0A00
02F4
ENDCHAR
STARTCHAR uni04BD
ENCODING 1213
SWIDTH 518 0
DWIDTH 6 0
BBX 6 6 0 0
BITMAP
1F40
A4C0
7FD0
3000
2440
0B80
ENDCHAR
STARTCHAR uni04BE
ENCODING 1214
SWIDTH 674 0
DWIDTH 7 0
BBX 7 10 0 -2
BITMAP
02E0
4924
6C18
2FF8
0C00
0C00
0A00
02F4
00C0
00C0
ENDCHAR
STARTCHAR uni04BF
ENCODING 1215
SWIDTH 518 0
DWIDTH 6 0
BBX 6 8 0 -2
BITMAP
1F40
A4C0
7FD0
3000
2440
0F80
0200
0200
ENDCHAR
STARTCHAR uni04C0
ENCODING 1216
SWIDTH 250 0
DWIDTH 3 0
BBX 1 8 1 0
BITMAP
C0
C0
C0
C0
C0
C0
C0
C0
ENDCHAR
STARTCHAR uni04C1
ENCODING 1217
SWIDTH 791 0
DWIDTH 9 0
BBX 9 11 0 0
BITMAP
063000
02D000
000000
60C300
24C900
0CC800
0BF800
0CDC00
28C900
30C700
A0C340
ENDCHAR
STARTCHAR uni04C2
ENCODING 1218
SWIDTH 662 0
DWIDTH 7 0
BBX 7 9 0 0
BITMAP
0C80
0780
0000
6328
2770
1FE0
2770
3324
A318
ENDCHAR
STARTCHAR uni04C3
ENCODING 1219
SWIDTH 553 0
DWIDTH 6 0
BBX 6 10 0 -2
BITMAP
6090
6280
6600
7F40
60D0
6060
6060
6060
0090
0180
ENDCHAR
STARTCHAR uni04C4
ENCODING 1220
SWIDTH 481 0
DWIDTH 5 0
BBX 5 7 0 -1
BITMAP
6240
6600
7E00
6180
60C0
6180
0200
ENDCHAR
STARTCHAR uni04C5
ENCODING 1221
SWIDTH 662 0
DWIDTH 7 0
BBX 7 10 0 -2
BITMAP
1FF0
1830
1830
1830
1830
2430
2430
A03C
0018
0014
ENDCHAR
STARTCHAR uni04C6
ENCODING 1222
SWIDTH 551 0
DWIDTH 6 0
BBX 6 8 0 -2
BITMAP
2F80
2480
2480
2480
30C0
A0E0
0060
0050
ENDCHAR
STARTCHAR uni04C7
ENCODING 1223
SWIDTH 620 0
DWIDTH 7 0
BBX 5 10 1 -2
BITMAP
C0C0
C0C0
C0C0
FFC0
C0C0
C0C0
C0C0
C0C0
01C0
0340
ENDCHAR
STARTCHAR uni04C8
ENCODING 1224
SWIDTH 498 0
DWIDTH 5 0
BBX 5 8 0 -2
BITMAP
6180
6180
7F80
6180
6180
6180
0180
0740
ENDCHAR
STARTCHAR uni04C9
ENCODING 1225
SWIDTH 671 0
DWIDTH 7 0
BBX 6 10 1 -2
BITMAP
80C0
80C0
80C0
FFC0
80C0
80C0
80C0
80F0
0030
0050
ENDCHAR
STARTCHAR uni04CA
ENCODING 1226
SWIDTH 550 0
DWIDTH 6 0
BBX 6 8 0 -2
BITMAP
6080
6080
7F80
6080
6080
60E0
0060
0050
ENDCHAR
STARTCHAR uni04CB
ENCODING 1227
SWIDTH 600 0
DWIDTH 7 0
BBX 6 10 0 -2
BITMAP
6060
6060
6060
3060
1FE0
0060
0060
00E0
00C0
00C0
ENDCHAR
STARTCHAR uni04CC
ENCODING 1228
SWIDTH 479 0
DWIDTH 5 0
BBX 5 8 0 -2
BITMAP
6140
6140
6240
2F40
0140
0740
0600
0600
ENDCHAR
STARTCHAR uni04CD
ENCODING 1229
SWIDTH 801 0
DWIDTH 9 0
BBX 8 10 1 -2
BITMAP
D034
E074
B0A4
A4E4
99A4
8A64
8B28
862D
0009
0008
ENDCHAR
STARTCHAR uni04CE
ENCODING 1230
SWIDTH 687 0
DWIDTH 8 0
BBX 8 8 0 -2
BITMAP
7434
7874
68A4
69A4
6764
632D
0009
0008
ENDCHAR
STARTCHAR uni04CF
ENCODING 1231
SWIDTH 250 0
DWIDTH 3 0
BBX 1 8 1 0
BITMAP
C0
C0
C0
C0
C0
C0
C0
C0
ENDCHAR
STARTCHAR uni04D0
ENCODING 1232
SWIDTH 576 0
DWIDTH 6 0
BBX 6 11 0 0
BITMAP
1980
0B40
0000
0600
0B00
0A40
1980
24C0
3FD0
6060
9030
ENDCHAR
STARTCHAR uni04D1
ENCODING 1233
SWIDTH 479 0
DWIDTH 5 0
BBX 5 9 0 0
BITMAP
2240
1E00
0000
2E00
1240
2F80
6180
6280
2E80
ENDCHAR
STARTCHAR uni04D2
ENCODING 1234
SWIDTH 576 0
DWIDTH 6 0
BBX 6 10 0 0
BITMAP
1880
0000
0600
0B00
0A40
1980
24C0
3FD0
6060
9030
ENDCHAR
STARTCHAR uni04D3
ENCODING 1235
SWIDTH 479 0
DWIDTH 5 0
BBX 5 8 0 0
BITMAP
3240
0000
2E00
1240
2F80
6180
6280
2E80
ENDCHAR
STARTCHAR uni04D4
ENCODING 1236
SWIDTH 812 0
DWIDTH 9 0
BBX 9 8 0 0
BITMAP
01FF40
029000
069000
09BF00
189000
2FD000
605000
907F80
ENDCHAR
STARTCHAR uni04D5
ENCODING 1237
SWIDTH 728 0
DWIDTH 8 0
BBX 8 6 0 0
BITMAP
2EB8
1289
2FFE
6240
6280
3DBD
ENDCHAR
STARTCHAR uni04D6
ENCODING 1238
SWIDTH 496 0
DWIDTH 5 0
BBX 4 11 1 0
BITMAP
95
78
00
FF
80
80
FE
80
80
80
FF
ENDCHAR
STARTCHAR uni04D7
ENCODING 1239
SWIDTH 468 0
DWIDTH 5 0
BBX 5 9 0 0
BITMAP
3240
1E00
0000
2E00
6180
7F80
6000
6000
2F40
ENDCHAR
STARTCHAR uni04D8
ENCODING 1240
SWIDTH 597 0
DWIDTH 7 0
BBX 6 8 0 0
BITMAP
2F80
1090
0060
0030
BFF0
6060
3090
1F80
ENDCHAR
STARTCHAR uni04D9
ENCODING 1241
SWIDTH 465 0
DWIDTH 5 0
BBX 5 6 0 0
BITMAP
2E00
1240
0180
7F80
6240
2E00
ENDCHAR
STARTCHAR uni04DA
ENCODING 1242
SWIDTH 597 0
DWIDTH 7 0
BBX 6 10 0 0
BITMAP
2580
0000
2F80
1090
0060
0030
BFF0
6060
3090
1F80
ENDCHAR
STARTCHAR uni04DB
ENCODING 1243
SWIDTH 465 0
DWIDTH 5 0
BBX 5 8 0 0
BITMAP
3240
0000
2E00
1240
0180
7F80
6240
2E00
ENDCHAR
STARTCHAR uni04DC
ENCODING 1244
SWIDTH 791 0
DWIDTH 9 0
BBX 9 10 0 0
BITMAP
063000
000000
60C300
24C900
0CC800
0BF800
0CDC00
28C900
30C700
A0C340
ENDCHAR
STARTCHAR uni04DD
ENCODING 1245
SWIDTH 662 0
DWIDTH 7 0
BBX 7 8 0 0
BITMAP
0C90
0000
6328
2770
1FE0
2770
3324
A318
ENDCHAR
STARTCHAR uni04DE
ENCODING 1246
SWIDTH 517 0
DWIDTH 6 0
BBX 6 10 0 0
BITMAP
2140
0000
2F40
61C0
00C0
0F40
01C0
0090
61C0
2F40
ENDCHAR
STARTCHAR uni04DF
ENCODING 1247
SWIDTH 446 0
DWIDTH 5 0
BBX 5 8 0 0
BITMAP
6200
0000
2E00
6340
1E00
0240
6240
2E00
ENDCHAR
STARTCHAR uni04E0
ENCODING 1248
SWIDTH 510 0
DWIDTH 6 0
BBX 5 8 0 0
BITMAP
7F80
0240
0900
0E40
0180
10C0
6180
2E40
ENDCHAR
STARTCHAR uni04E1
ENCODING 1249
SWIDTH 510 0
DWIDTH 6 0
BBX 5 8 0 -2
BITMAP
7F80
0240
0900
0E40
0180
00C0
6180
2E40
ENDCHAR
STARTCHAR uni04E2
ENCODING 1250
SWIDTH 619 0
DWIDTH 7 0
BBX 5 10 1 0
BITMAP
3F00
0000
C1C0
C2C0
C6C0
C9C0
D8C0
E0C0
E0C0
C0C0
ENDCHAR
STARTCHAR uni04E3
ENCODING 1251
SWIDTH 509 0
DWIDTH 6 0
BBX 5 8 0 0
BITMAP
2F40
0000
6180
6280
6680
6980
7480
7080
ENDCHAR
STARTCHAR uni04E4
ENCODING 1252
SWIDTH 619 0
DWIDTH 7 0
BBX 5 10 1 0
BITMAP
6300
0000
C1C0
C2C0
C6C0
C9C0
D8C0
E0C0
E0C0
C0C0
ENDCHAR
STARTCHAR uni04E5
ENCODING 1253
SWIDTH 509 0
DWIDTH 6 0
BBX 5 8 0 0
BITMAP
2140
0000
6180
6280
6680
6980
7480
7080
ENDCHAR
STARTCHAR uni04E6
ENCODING 1254
SWIDTH 600 0
DWIDTH 7 0
BBX 6 10 0 0
BITMAP
18C0
0000
1B80
34A0
6020
6030
6030
6030
34A0
1F80
ENDCHAR
STARTCHAR uni04E7
ENCODING 1255
SWIDTH 501 0
DWIDTH 6 0
BBX 5 8 0 0
BITMAP
3240
0000
2E40
6180
60C0
60C0
6180
2E40
ENDCHAR
STARTCHAR uni04E8
ENCODING 1256
SWIDTH 593 0
DWIDTH 7 0
BBX 6 8 0 0
BITMAP
1F80
3490
6020
7FF0
6030
6060
3490
1F80
ENDCHAR
STARTCHAR uni04E9
ENCODING 1257
SWIDTH 497 0
DWIDTH 5 0
BBX 5 6 0 0
BITMAP
1E00
6180
7FC0
60C0
7180
1E00
ENDCHAR
STARTCHAR uni04EA
ENCODING 1258
SWIDTH 593 0
DWIDTH 7 0
BBX 6 10 0 0
BITMAP
18C0
0000
1F80
3490
6020
7FF0
6030
6060
3490
1F80
ENDCHAR
STARTCHAR uni04EB
ENCODING 1259
SWIDTH 497 0
DWIDTH 5 0
BBX 5 8 0 0
BITMAP
3240
0000
1E00
6180
7FC0
60C0
7180
1E00
ENDCHAR
STARTCHAR uni04EC
ENCODING 1260
SWIDTH 589 0
DWIDTH 6 0
BBX 5 10 1 0
BITMAP
6200
0000
7E00
D240
8080
2FC0
00C0
4180
D240
7E00
ENDCHAR
STARTCHAR uni04ED
ENCODING 1261
SWIDTH 472 0
DWIDTH 5 0
BBX 5 8 0 0
BITMAP
3240
0000
2E00
5240
0F80
0180
6240
2E00
ENDCHAR
STARTCHAR uni04EE
ENCODING 1262
SWIDTH 547 0
DWIDTH 6 0
BBX 6 10 0 0
BITMAP
2F80
0000
6090
30C0
2580
1A40
0B00
0600
0900
2800
ENDCHAR
STARTCHAR uni04EF
ENCODING 1263
SWIDTH 416 0
DWIDTH 5 0
BBX 5 10 0 -2
BITMAP
3F00
0000
9240
6300
3600
2900
1C00
1800
2400
A000
ENDCHAR
STARTCHAR uni04F0
ENCODING 1264
SWIDTH 547 0
DWIDTH 6 0
BBX 6 10 0 0
BITMAP
2580
0000
6090
30C0
2580
1A40
0B00
0600
0900
2800
ENDCHAR
STARTCHAR uni04F1
ENCODING 1265
SWIDTH 416 0
DWIDTH 5 0
BBX 5 10 0 -2
BITMAP
6300
0000
9240
6300
3600
2900
1C00
1800
2400
A000
ENDCHAR
STARTCHAR uni04F2
ENCODING 1266
SWIDTH 547 0
DWIDTH 6 0
BBX 6 11 0 0
BITMAP
0AC0
0A40
0000
6090
30C0
2580
1A40
0B00
0600
0900
2800
ENDCHAR
STARTCHAR uni04F3
ENCODING 1267
SWIDTH 416 0
DWIDTH 5 0
BBX 5 11 0 -2
BITMAP
1A40
2600
0000
9240
6300
3600
2900
1C00
1800
2400
A000
ENDCHAR
STARTCHAR uni04F4
ENCODING 1268
SWIDTH 600 0
DWIDTH 7 0
BBX 6 10 0 0
BITMAP
1880
0000
6060
6060
6060
3060
1FE0
0060
0060
0060
ENDCHAR
STARTCHAR uni04F5
ENCODING 1269
SWIDTH 479 0
DWIDTH 5 0
BBX 5 8 0 0
BITMAP
2200
0000
6140
6140
6240
2F40
0140
0140
ENDCHAR
STARTCHAR uni04F6
ENCODING 1270
SWIDTH 487 0
DWIDTH 5 0
BBX 4 10 1 -2
BITMAP
FF
C0
C0
C0
C0
C0
C0
E0
60
60
ENDCHAR
STARTCHAR uni04F7
ENCODING 1271
SWIDTH 371 0
DWIDTH 4 0
BBX 4 8 0 -2
BITMAP
7F
60
60
60
60
78
18
18
ENDCHAR
STARTCHAR uni04F8
ENCODING 1272
SWIDTH 755 0
DWIDTH 8 0
BBX 7 10 1 0
BITMAP
1580
0000
C024
C024
C024
FE24
C2A4
C1A4
C2A4
FE24
ENDCHAR
STARTCHAR uni04F9
ENCODING 1273
SWIDTH 679 0
DWIDTH 7 0
BBX 7 8 0 0
BITMAP
0C90
0000
6018
6018
7F58
6198
6198
7F58
ENDCHAR
STARTCHAR uni04FA
ENCODING 1274
SWIDTH 520 0
DWIDTH 6 0
BBX 6 10 0 -2
BITMAP
2FD0
2400
2400
2400
BD00
2400
2400
2C00
0C00
3800
ENDCHAR
STARTCHAR uni04FB
ENCODING 1275
SWIDTH 410 0
DWIDTH 5 0
BBX 5 8 0 -2
BITMAP
2F40
2000
2000
BD00
2000
2C00
0C00
3800
ENDCHAR
STARTCHAR uni04FC
ENCODING 1276
SWIDTH 570 0
DWIDTH 6 0
BBX 6 10 0 -2
BITMAP
6090
25C0
1A40
0B00
0B00
1A40
35C0
60B0
0030
00E0
ENDCHAR
STARTCHAR uni04FD
ENCODING 1277
SWIDTH 476 0
DWIDTH 5 0
BBX 5 8 0 -2
BITMAP
6340
3600
1C00
1D00
3600
62C0
00C0
0340
ENDCHAR
STARTCHAR uni04FE
ENCODING 1278
SWIDTH 550 0
DWIDTH 6 0
BBX 6 8 0 0
BITMAP
6090
2580
0A40
1F80
0F00
1A80
35C0
6090
ENDCHAR
STARTCHAR uni04FF
ENCODING 1279
SWIDTH 438 0
DWIDTH 5 0
BBX 5 6 0 0
BITMAP
6240
2500
3F00
2D00
3600
6240
ENDCHAR
STARTCHAR uni0500
ENCODING 1280
SWIDTH 555 0
DWIDTH 6 0
BBX 6 8 0 0
BITMAP
0090
0090
0090
2FD0
6090
6090
6090
2FD0
ENDCHAR
STARTCHAR uni0501
ENCODING 1281
SWIDTH 496 0
DWIDTH 5 0
BBX 5 8 0 0
BITMAP
0180
0180
2E80
6180
5180
5180
6180
2E80
ENDCHAR
STARTCHAR uni0502
ENCODING 1282
SWIDTH 723 0
DWIDTH 8 0
BBX 8 8 0 0
BITMAP
0090
0090
0090
2FD0
6096
6096
6099
2FF8
ENDCHAR
STARTCHAR uni0503
ENCODING 1283
SWIDTH 743 0
DWIDTH 8 0
BBX 8 9 0 0
BITMAP
0180
0180
0180
2E84
7185
6186
6186
6189
2EB4
ENDCHAR
STARTCHAR uni0504
ENCODING 1284
SWIDTH 685 0
DWIDTH 8 0
BBX 7 8 0 0
BITMAP
BD00
0300
0240
0318
2E08
0318
0268
01E0
ENDCHAR
STARTCHAR uni0505
ENCODING 1285
SWIDTH 562 0
DWIDTH 6 0
BBX 6 6 0 0
BITMAP
B800
0900
0960
7C60
0A60
0780
ENDCHAR
STARTCHAR uni0506
ENCODING 1286
SWIDTH 470 0
DWIDTH 5 0
BBX 5 10 0 -2
BITMAP
B900
0600
0300
0600
3D00
0600
0300
0380
0180
0140
ENDCHAR
STARTCHAR uni0507
ENCODING 1287
SWIDTH 443 0
DWIDTH 5 0
BBX 5 8 0 -2
BITMAP
7D00
0600
0600
3D00
0600
0380
0180
0200
ENDCHAR
STARTCHAR uni0508
ENCODING 1288
SWIDTH 834 0
DWIDTH 9 0
BBX 9 8 0 0
BITMAP
1FE000
186000
186000
186180
186180
186180
243240
A02E00
ENDCHAR
STARTCHAR uni0509
ENCODING 1289
SWIDTH 698 0
DWIDTH 8 0
BBX 8 6 0 0
BITMAP
1F80
2588
2589
2589
31CC
A0B4
ENDCHAR
STARTCHAR uni050A
ENCODING 1290
SWIDTH 864 0
DWIDTH 10 0
BBX 9 8 0 0
BITMAP
603000
603000
603000
7FF180
603180
603180
603240
602E00
ENDCHAR
STARTCHAR uni050B
ENCODING 1291
SWIDTH 716 0
DWIDTH 8 0
BBX 8 6 0 0
BITMAP
6080
6089
7F89
6089
60C9
60B8
ENDCHAR
STARTCHAR uni050C
ENCODING 1292
SWIDTH 541 0
DWIDTH 6 0
BBX 6 8 0 0
BITMAP
1F80
3400
6000
6040
6090
6090
3490
1F80
ENDCHAR
STARTCHAR uni050D
ENCODING 1293
SWIDTH 452 0
DWIDTH 5 0
BBX 5 6 0 0
BITMAP
1E00
7000
6000
6240
7240
1E00
ENDCHAR
STARTCHAR uni050E
ENCODING 1294
SWIDTH 616 0
DWIDTH 7 0
BBX 7 8 0 0
BITMAP
BFD0
0900
0910
0930
0924
0924
0A70
07D0
ENDCHAR
STARTCHAR uni050F
ENCODING 1295
SWIDTH 558 0
DWIDTH 6 0
BBX 6 6 0 0
BITMAP
BF80
0C40
0C50
0C60
0C90
0780
ENDCHAR
STARTCHAR uni0510
ENCODING 1296
SWIDTH 589 0
DWIDTH 6 0
BBX 5 8 1 0
BITMAP
7E00
D280
D000
7D00
D000
8040
D180
7E40
ENDCHAR
STARTCHAR uni0511
ENCODING 1297
SWIDTH 470 0
DWIDTH 5 0
BBX 5 6 0 0
BITMAP
2E40
6140
2D00
6000
6140
2E00
ENDCHAR
STARTCHAR uni0512
ENCODING 1298
SWIDTH 664 0
DWIDTH 7 0
BBX 7 10 0 -2
BITMAP
1FF0
1830
1830
1830
1830
2430
2430
A038
0018
0034
ENDCHAR
STARTCHAR uni0513
ENCODING 1299
SWIDTH 553 0
DWIDTH 6 0
BBX 6 8 0 -2
BITMAP
2F80
2480
2480
2480
3080
A0E0
0060
01D0
ENDCHAR
STARTCHAR uni1E00
ENCODING 7680
SWIDTH 576 0
DWIDTH 6 0
BBX 6 11 0 -3
BITMAP
0600
0B00
0A40
1980
24C0
3FD0
6060
9030
0000
0600
0600
ENDCHAR
STARTCHAR uni1E01
ENCODING 7681
SWIDTH 479 0
DWIDTH 5 0
BBX 5 9 0 -3
BITMAP
2E00
1240
2F80
6180
6280
2E80
0000
1C00
1C00
ENDCHAR
STARTCHAR uni1E3E
ENCODING 7742
SWIDTH 755 0
DWIDTH 8 0
BBX 7 11 1 0
BITMAP
0240
0600
0000
D034
E074
B0A4
A4E4
99A4
8A64
8B24
8624
ENDCHAR
STARTCHAR uni1E3F
ENCODING 7743
SWIDTH 752 0
DWIDTH 8 0
BBX 8 9 0 0
BITMAP
00A0
0080
0000
6F7C
62C9
6186
6186
6186
6186
ENDCHAR
STARTCHAR Wgrave
ENCODING 7808
SWIDTH 761 0
DWIDTH 8 0
BBX 8 11 0 0
BITMAP
0340
0180
0000
9183
61C2
2296
3259
2629
2928
1D28
0C18
ENDCHAR
STARTCHAR wgrave
ENCODING 7809
SWIDTH 649 0
DWIDTH 7 0
BBX 7 9 0 0
BITMAP
0900
0200
0000
9318
6758
26A4
38A0
28A0
1860
ENDCHAR
STARTCHAR Wacute
ENCODING 7810
SWIDTH 761 0
DWIDTH 8 0
BBX 8 11 0 0
BITMAP
00A0
0080
0000
9183
61C2
2296
3259
2629
2928
1D28
0C18
ENDCHAR
STARTCHAR wacute
ENCODING 7811
SWIDTH 649 0
DWIDTH 7 0
BBX 7 9 0 0
BITMAP
01C0
0240
0000
9318
6758
26A4
38A0
28A0
1860
ENDCHAR
STARTCHAR Wdieresis
ENCODING 7812
SWIDTH 761 0
DWIDTH 8 0
BBX 8 10 0 0
BITMAP
0630
0000
9183
61C2
2296
3259
2629
2928
1D28
0C18
ENDCHAR
STARTCHAR wdieresis
ENCODING 7813
SWIDTH 649 0
DWIDTH 7 0
BBX 7 8 0 0
BITMAP
0890
0000
9318
6758
26A4
38A0
28A0
1860
ENDCHAR
STARTCHAR uni1EA0
ENCODING 7840
SWIDTH 576 0
DWIDTH 6 0
BBX 6 10 0 -2
BITMAP
0600
0B00
0A40
1980
24C0
3FD0
6060
9030
0000
0600
ENDCHAR
STARTCHAR uni1EA1
ENCODING 7841
SWIDTH 479 0
DWIDTH 5 0
BBX 5 8 0 -2
BITMAP
2E00
1240
2F80
6180
6280
2E80
0000
0800
ENDCHAR
STARTCHAR uni1EA2
ENCODING 7842
SWIDTH 576 0
DWIDTH 6 0
BBX 6 12 0 0
BITMAP
0600
0200
0200
0000
0600
0B00
0A40
1980
24C0
3FD0
6060
9030
ENDCHAR
STARTCHAR uni1EA3
ENCODING 7843
SWIDTH 479 0
DWIDTH 5 0
BBX 5 10 0 0
BITMAP
0900
0200
0900
0000
2E00
1240
2F80
6180
6280
2E80
ENDCHAR
STARTCHAR uni1EA4
ENCODING 7844
SWIDTH 576 0
DWIDTH 6 0
BBX 6 12 0 0
BITMAP
0030
0B50
1980
0000
0600
0B00
0A40
1980
24C0
3FD0
6060
9030
ENDCHAR
STARTCHAR uni1EA5
ENCODING 7845
SWIDTH 479 0
DWIDTH 5 0
BBX 6 10 0 0
BITMAP
0060
0E80
2600
0000
2E00
1240
2F80
6180
6280
2E80
ENDCHAR
STARTCHAR uni1EA6
ENCODING 7846
SWIDTH 576 0
DWIDTH 6 0
BBX 6 12 0 0
BITMAP
9000
2B00
1980
0000
0600
0B00
0A40
1980
24C0
3FD0
6060
9030
ENDCHAR
STARTCHAR uni1EA7
ENCODING 7847
SWIDTH 479 0
DWIDTH 5 0
BBX 5 10 0 0
BITMAP
C000
9E00
2600
0000
2E00
1240
2F80
6180
6280
2E80
ENDCHAR
STARTCHAR uni1EA8
ENCODING 7848
SWIDTH 576 0
DWIDTH 6 0
BBX 6 13 0 0
BITMAP
0050
0060
0A90
1980
0000
0600
0B00
0A40
1980
24C0
3FD0
6060
9030
ENDCHAR
STARTCHAR uni1EA9
ENCODING 7849
SWIDTH 479 0
DWIDTH 5 0
BBX 5 11 0 0
BITMAP
0080
0080
1E80
2640
0000
2E00
1240
2F80
6180
6280
2E80
ENDCHAR
STARTCHAR uni1EAA
ENCODING 7850
SWIDTH 576 0
DWIDTH 6 0
BBX 6 13 0 0
BITMAP
0940
0600
0A00
1980
0000
0600
0B00
0A40
1980
24C0
3FD0
6060
9030
ENDCHAR
STARTCHAR uni1EAB
ENCODING 7851
SWIDTH 479 0
DWIDTH 5 0
BBX 5 11 0 0
BITMAP
1900
1600
0E00
2640
0000
2E00
1240
2F80
6180
6280
2E80
ENDCHAR
STARTCHAR uni1EAC
ENCODING 7852
SWIDTH 576 0
DWIDTH 6 0
BBX 6 13 0 -2
BITMAP
0600
0940
0000
0600
0B00
0A40
1980
24C0
3FD0
6060
9030
0000
0600
ENDCHAR
STARTCHAR uni1EAD
ENCODING 7853
SWIDTH 479 0
DWIDTH 5 0
BBX 5 11 0 -2
BITMAP
0D00
1600
0000
2E00
1240
2F80
6180
6280
2E80
0000
0800
ENDCHAR
STARTCHAR uni1EAE
ENCODING 7854
SWIDTH 576 0
DWIDTH 6 0
BBX 6 13 0 0
BITMAP
0200
0100
0940
0B00
0000
0600
0B00
0A40
1980
24C0
3FD0
6060
9030
ENDCHAR
STARTCHAR uni1EAF
ENCODING 7855
SWIDTH 479 0
DWIDTH 5 0
BBX 5 11 0 0
BITMAP
0600
0400
2600
1E00
0000
2E00
1240
2F80
6180
6280
2E80
ENDCHAR
STARTCHAR uni1EB0
ENCODING 7856
SWIDTH 576 0
DWIDTH 6 0
BBX 6 13 0 0
BITMAP
0900
0500
0940
0B00
0000
0600
0B00
0A40
1980
24C0
3FD0
6060
9030
ENDCHAR
STARTCHAR uni1EB1
ENCODING 7857
SWIDTH 479 0
DWIDTH 5 0
BBX 5 11 0 0
BITMAP
0800
0800
2600
1E00
0000
2E00
1240
2F80
6180
6280
2E80
ENDCHAR
STARTCHAR uni1EB2
ENCODING 7858
SWIDTH 576 0
DWIDTH 6 0
BBX 6 14 0 0
BITMAP
0200
0200
0200
0940
0B00
0000
0600
0B00
0A40
1980
24C0
3FD0
6060
9030
ENDCHAR
STARTCHAR uni1EB3
ENCODING 7859
SWIDTH 479 0
DWIDTH 5 0
BBX 5 12 0 0
BITMAP
0500
0600
0900
2600
1E00
0000
2E00
1240
2F80
6180
6280
2E80
ENDCHAR
STARTCHAR uni1EB4
ENCODING 7860
SWIDTH 576 0
DWIDTH 6 0
BBX 6 14 0 0
BITMAP
0940
0640
0000
0940
0B00
0000
0600
0B00
0A40
1980
24C0
3FD0
6060
9030
ENDCHAR
STARTCHAR uni1EB5
ENCODING 7861
SWIDTH 479 0
DWIDTH 5 0
BBX 5 12 0 0
BITMAP
1900
1600
0000
2600
1E00
0000
2E00
1240
2F80
6180
6280
2E80
ENDCHAR
STARTCHAR uni1EB6
ENCODING 7862
SWIDTH 576 0
DWIDTH 6 0
BBX 6 13 0 -2
BITMAP
1980
0B40
0000
0600
0B00
0A40
1980
24C0
3FD0
6060
9030
0000
0600
ENDCHAR
STARTCHAR uni1EB7
ENCODING 7863
SWIDTH 479 0
DWIDTH 5 0
BBX 5 11 0 -2
BITMAP
2240
1E00
0000
2E00
1240
2F80
6180
6280
2E80
0000
0800
ENDCHAR
STARTCHAR uni1EB8
ENCODING 7864
SWIDTH 496 0
DWIDTH 5 0
BBX 4 10 1 -2
BITMAP
FF
80
80
FE
80
80
80
FF
00
24
ENDCHAR
STARTCHAR uni1EB9
ENCODING 7865
SWIDTH 468 0
DWIDTH 5 0
BBX 5 8 0 -2
BITMAP
2E00
6180
7F80
6000
6000
2F40
0000
0800
ENDCHAR
STARTCHAR uni1EBA
ENCODING 7866
SWIDTH 496 0
DWIDTH 5 0
BBX 4 12 1 0
BITMAP
18
08
14
00
FF
80
80
FE
80
80
80
FF
ENDCHAR
STARTCHAR uni1EBB
ENCODING 7867
SWIDTH 468 0
DWIDTH 5 0
BBX 5 10 0 0
BITMAP
0900
0600
0900
0000
2E00
6180
7F80
6000
6000
2F40
ENDCHAR
STARTCHAR uni1EBC
ENCODING 7868
SWIDTH 496 0
DWIDTH 5 0
BBX 4 11 1 0
BITMAP
65
9D
00
FF
80
80
FE
80
80
80
FF
ENDCHAR
STARTCHAR uni1EBD
ENCODING 7869
SWIDTH 468 0
DWIDTH 5 0
BBX 5 9 0 0
BITMAP
2940
2700
0000
2E00
6180
7F80
6000
6000
2F40
ENDCHAR
STARTCHAR uni1EBE
ENCODING 7870
SWIDTH 496 0
DWIDTH 5 0
BBX 5 12 1 0
BITMAP
0180
2A40
5900
0000
FF00
8000
8000
FE00
8000
8000
8000
FF00
ENDCHAR
STARTCHAR uni1EBF
ENCODING 7871
SWIDTH 468 0
DWIDTH 5 0
BBX 6 10 0 0
BITMAP
0090
1D80
2600
0000
2E00
6180
7F80
6000
6000
2F40
ENDCHAR
STARTCHAR uni1EC0
ENCODING 7872
SWIDTH 496 0
DWIDTH 5 0
BBX 5 12 0 0
BITMAP
C000
5A00
1640
0000
3FC0
2000
2000
3F80
2000
2000
2000
3FC0
ENDCHAR
STARTCHAR uni1EC1
ENCODING 7873
SWIDTH 468 0
DWIDTH 5 0
BBX 5 10 0 0
BITMAP
C000
9D00
2600
0000
2E00
6180
7F80
6000
6000
2F40
ENDCHAR
STARTCHAR uni1EC2
ENCODING 7874
SWIDTH 496 0
DWIDTH 5 0
BBX 5 13 1 0
BITMAP
0200
0240
2A00
9900
0000
FF00
8000
8000
FE00
8000
8000
8000
FF00
ENDCHAR
STARTCHAR uni1EC3
ENCODING 7875
SWIDTH 468 0
DWIDTH 5 0
BBX 5 11 0 0
BITMAP
0080
0080
1E80
2200
0000
2E00
6180
7F80
6000
6000
2F40
ENDCHAR
STARTCHAR uni1EC4
ENCODING 7876
SWIDTH 496 0
DWIDTH 5 0
BBX 4 13 1 0
BITMAP
24
58
28
59
00
FF
80
80
FE
80
80
80
FF
ENDCHAR
STARTCHAR uni1EC5
ENCODING 7877
SWIDTH 468 0
DWIDTH 5 0
BBX 5 11 0 0
BITMAP
1900
1600
1D00
2200
0000
2E00
6180
7F80
6000
6000
2F40
ENDCHAR
STARTCHAR uni1EC6
ENCODING 7878
SWIDTH 496 0
DWIDTH 5 0
BBX 4 13 1 -2
BITMAP
28
68
00
FF
80
80
FE
80
80
80
FF
00
24
ENDCHAR
STARTCHAR uni1EC7
ENCODING 7879
SWIDTH 468 0
DWIDTH 5 0
BBX 5 11 0 -2
BITMAP
0D00
1600
0000
2E00
6180
7F80
6000
6000
2F40
0000
0800
ENDCHAR
STARTCHAR uni1EC8
ENCODING 7880
SWIDTH 250 0
DWIDTH 3 0
BBX 2 12 1 0
BITMAP
C0
50
80
00
C0
C0
C0
C0
C0
C0
C0
C0
ENDCHAR
STARTCHAR uni1EC9
ENCODING 7881
SWIDTH 234 0
DWIDTH 3 0
BBX 3 10 0 0
BITMAP
30
24
20
00
60
60
60
60
60
60
ENDCHAR
STARTCHAR uni1ECA
ENCODING 7882
SWIDTH 250 0
DWIDTH 3 0
BBX 1 10 1 -2
BITMAP
C0
C0
C0
C0
C0
C0
C0
C0
00
80
ENDCHAR
STARTCHAR uni1ECB
ENCODING 7883
SWIDTH 229 0
DWIDTH 3 0
BBX 2 10 0 -2
BITMAP
60
00
60
60
60
60
60
60
00
60
ENDCHAR
STARTCHAR uni1ECC
ENCODING 7884
SWIDTH 600 0
DWIDTH 7 0
BBX 6 10 0 -2
BITMAP
1B80
34A0
6020
6030
6030
6030
34A0
1F80
0000
0600
ENDCHAR
STARTCHAR uni1ECD
ENCODING 7885
SWIDTH 501 0
DWIDTH 6 0
BBX 5 8 0 -2
BITMAP
2E40
6180
60C0
60C0
6180
2E40
0000
0900
ENDCHAR
STARTCHAR uni1ECE
ENCODING 7886
SWIDTH 600 0
DWIDTH 7 0
BBX 6 12 0 0
BITMAP
0300
0240
0200
0000
1B80
34A0
6020
6030
6030
6030
34A0
1F80
ENDCHAR
STARTCHAR uni1ECF
ENCODING 7887
SWIDTH 501 0
DWIDTH 6 0
BBX 5 10 0 0
BITMAP
0900
0200
0900
0000
2E40
6180
60C0
60C0
6180
2E40
ENDCHAR
STARTCHAR uni1ED0
ENCODING 7888
SWIDTH 600 0
DWIDTH 7 0
BBX 6 12 0 0
BITMAP
0030
0760
0980
0000
1B80
34A0
6020
6030
6030
6030
34A0
1F80
ENDCHAR
STARTCHAR uni1ED1
ENCODING 7889
SWIDTH 501 0
DWIDTH 6 0
BBX 6 10 0 0
BITMAP
0060
1E80
2600
0000
2E40
6180
60C0
60C0
6180
2E40
ENDCHAR
STARTCHAR uni1ED2
ENCODING 7890
SWIDTH 600 0
DWIDTH 7 0
BBX 6 12 0 0
BITMAP
6000
2B40
0980
0000
1B80
34A0
6020
6030
6030
6030
34A0
1F80
ENDCHAR
STARTCHAR uni1ED3
ENCODING 7891
SWIDTH 501 0
DWIDTH 6 0
BBX 5 10 0 0
BITMAP
C000
9E00
2600
0000
2E40
6180
60C0
60C0
6180
2E40
ENDCHAR
STARTCHAR uni1ED4
ENCODING 7892
SWIDTH 600 0
DWIDTH 7 0
BBX 6 13 0 0
BITMAP
0050
0020
0B90
0880
0000
1B80
34A0
6020
6030
6030
6030
34A0
1F80
ENDCHAR
STARTCHAR uni1ED5
ENCODING 7893
SWIDTH 501 0
DWIDTH 6 0
BBX 5 11 0 0
BITMAP
0080
0080
1E80
2200
0000
2E40
6180
60C0
60C0
6180
2E40
ENDCHAR
STARTCHAR uni1ED6
ENCODING 7894
SWIDTH 600 0
DWIDTH 7 0
BBX 6 13 0 0
BITMAP
0940
0640
0740
0980
0000
1B80
34A0
6020
6030
6030
6030
34A0
1F80
ENDCHAR
STARTCHAR uni1ED7
ENCODING 7895
SWIDTH 501 0
DWIDTH 6 0
BBX 5 11 0 0
BITMAP
1900
1600
0D00
2600
0000
2E40
6180
60C0
60C0
6180
2E40
ENDCHAR
STARTCHAR uni1ED8
ENCODING 7896
SWIDTH 600 0
DWIDTH 7 0
BBX 6 13 0 -2
BITMAP
0700
0940
0000
1B80
34A0
6020
6030
6030
6030
34A0
1F80
0000
0600
ENDCHAR
STARTCHAR uni1ED9
ENCODING 7897
SWIDTH 501 0
DWIDTH 6 0
BBX 5 11 0 -2
BITMAP
0D00
1600
0000
2E40
6180
60C0
60C0
6180
2E40
0000
0900
ENDCHAR
STARTCHAR uni1EDA
ENCODING 7898
SWIDTH 592 0
DWIDTH 7 0
BBX 7 11 0 0
BITMAP
0280
0200
0004
1F64
34B0
6060
6020
6030
6060
3490
1F80
ENDCHAR
STARTCHAR uni1EDB
ENCODING 7899
SWIDTH 502 0
DWIDTH 6 0
BBX 6 9 0 0
BITMAP
0300
0900
0000
1E50
71D0
60C0
60C0
7180
1E40
ENDCHAR
STARTCHAR uni1EDC
ENCODING 7900
SWIDTH 592 0
DWIDTH 7 0
BBX 7 11 0 0
BITMAP
0C00
0600
0004
1F64
34B0
6060
6020
6030
6060
3490
1F80
ENDCHAR
STARTCHAR uni1EDD
ENCODING 7901
SWIDTH 502 0
DWIDTH 6 0
BBX 6 9 0 0
BITMAP
2800
0800
0000
1E50
71D0
60C0
60C0
7180
1E40
ENDCHAR
STARTCHAR uni1EDE
ENCODING 7902
SWIDTH 592 0
DWIDTH 7 0
BBX 7 12 0 0
BITMAP
0300
0240
0200
0004
1F64
34B0
6060
6020
6030
6060
3490
1F80
ENDCHAR
STARTCHAR uni1EDF
ENCODING 7903
SWIDTH 502 0
DWIDTH 6 0
BBX 6 10 0 0
BITMAP
0900
0200
0900
0000
1E50
71D0
60C0
60C0
7180
1E40
ENDCHAR
STARTCHAR uni1EE0
ENCODING 7904
SWIDTH 592 0
DWIDTH 7 0
BBX 7 11 0 0
BITMAP
0D80
1640
0004
1F64
34B0
6060
6020
6030
6060
3490
1F80
ENDCHAR
STARTCHAR uni1EE1
ENCODING 7905
SWIDTH 502 0
DWIDTH 6 0
BBX 6 9 0 0
BITMAP
2940
2700
0000
1E50
71D0
60C0
60C0
7180
1E40
ENDCHAR
STARTCHAR uni1EE2
ENCODING 7906
SWIDTH 592 0
DWIDTH 7 0
BBX 7 11 0 -2
BITMAP
0004
1F64
34B0
6060
6020
6030
6060
3490
1F80
0000
0600
ENDCHAR
STARTCHAR uni1EE3
ENCODING 7907
SWIDTH 502 0
DWIDTH 6 0
BBX 6 8 0 -2
BITMAP
1E50
71D0
60C0
60C0
7180
1E40
0000
0900
ENDCHAR
STARTCHAR uni1EE4
ENCODING 7908
SWIDTH 561 0
DWIDTH 6 0
BBX 6 10 0 -2
BITMAP
6060
6060
6060
6060
6060
6090
3090
1F80
0000
0600
ENDCHAR
STARTCHAR uni1EE5
ENCODING 7909
SWIDTH 483 0
DWIDTH 5 0
BBX 5 8 0 -2
BITMAP
6180
6180
6180
6180
6280
2E80
0000
0800
ENDCHAR
STARTCHAR uni1EE6
ENCODING 7910
SWIDTH 561 0
DWIDTH 6 0
BBX 6 12 0 0
BITMAP
0600
0200
0600
0000
6060
6060
6060
6060
6060
6090
3090
1F80
ENDCHAR
STARTCHAR uni1EE7
ENCODING 7911
SWIDTH 483 0
DWIDTH 5 0
BBX 5 10 0 0
BITMAP
0900
0600
0900
0000
6180
6180
6180
6180
6280
2E80
ENDCHAR
STARTCHAR uni1EE8
ENCODING 7912
SWIDTH 608 0
DWIDTH 7 0
BBX 7 11 0 0
BITMAP
0280
0200
0004
6068
6078
6060
6060
6060
6090
34D0
1F80
ENDCHAR
STARTCHAR uni1EE9
ENCODING 7913
SWIDTH 549 0
DWIDTH 6 0
BBX 6 9 0 0
BITMAP
0300
0900
0000
61A0
61E0
6180
6180
6280
2E80
ENDCHAR
STARTCHAR uni1EEA
ENCODING 7914
SWIDTH 608 0
DWIDTH 7 0
BBX 7 11 0 0
BITMAP
0C00
0600
0004
6068
6078
6060
6060
6060
6090
34D0
1F80
ENDCHAR
STARTCHAR uni1EEB
ENCODING 7915
SWIDTH 549 0
DWIDTH 6 0
BBX 6 9 0 0
BITMAP
2800
0800
0000
61A0
61E0
6180
6180
6280
2E80
ENDCHAR
STARTCHAR uni1EEC
ENCODING 7916
SWIDTH 608 0
DWIDTH 7 0
BBX 7 12 0 0
BITMAP
0300
0240
0200
0004
6068
6078
6060
6060
6060
6090
34D0
1F80
ENDCHAR
STARTCHAR uni1EED
ENCODING 7917
SWIDTH 549 0
DWIDTH 6 0
BBX 6 10 0 0
BITMAP
0900
0200
0900
0000
61A0
61E0
6180
6180
6280
2E80
ENDCHAR
STARTCHAR uni1EEE
ENCODING 7918
SWIDTH 608 0
DWIDTH 7 0
BBX 7 11 0 0
BITMAP
0D80
1680
0004
6068
6078
6060
6060
6060
6090
34D0
1F80
ENDCHAR
STARTCHAR uni1EEF
ENCODING 7919
SWIDTH 549 0
DWIDTH 6 0
BBX 6 9 0 0
BITMAP
2940
2700
0000
61A0
61E0
6180
6180
6280
2E80
ENDCHAR
STARTCHAR uni1EF0
ENCODING 7920
SWIDTH 608 0
DWIDTH 7 0
BBX 7 11 0 -2
BITMAP
0004
6068
6078
6060
6060
6060
6090
34D0
1F80
0000
0600
ENDCHAR
STARTCHAR uni1EF1
ENCODING 7921
SWIDTH 549 0
DWIDTH 6 0
BBX 6 8 0 -2
BITMAP
61A0
61E0
6180
6180
6280
2E80
0000
0800
ENDCHAR
STARTCHAR Ygrave
ENCODING 7922
SWIDTH 524 0
DWIDTH 6 0
BBX 6 11 0 0
BITMAP
1800
0900
0000
9090
70C0
2640
1B00
0E00
0900
0900
0900
ENDCHAR
STARTCHAR ygrave
ENCODING 7923
SWIDTH 416 0
DWIDTH 5 0
BBX 5 11 0 -2
BITMAP
3400
1800
0000
9240
6300
3600
2900
1C00
1800
2400
A000
ENDCHAR
STARTCHAR uni1EF4
ENCODING 7924
SWIDTH 524 0
DWIDTH 6 0
BBX 6 10 0 -2
BITMAP
9090
70C0
2640
1B00
0E00
0900
0900
0900
0000
0900
ENDCHAR
STARTCHAR uni1EF5
ENCODING 7925
SWIDTH 416 0
DWIDTH 5 0
BBX 5 9 0 -3
BITMAP
9240
6300
3600
2900
1C00
1800
2400
A000
0600
ENDCHAR
STARTCHAR uni1EF6
ENCODING 7926
SWIDTH 524 0
DWIDTH 6 0
BBX 6 12 0 0
BITMAP
0600
0200
0500
0000
9090
70C0
2640
1B00
0E00
0900
0900
0900
ENDCHAR
STARTCHAR uni1EF7
ENCODING 7927
SWIDTH 416 0
DWIDTH 5 0
BBX 5 12 0 -2
BITMAP
0C00
0500
0800
0000
9240
6300
3600
2900
1C00
1800
2400
A000
ENDCHAR
STARTCHAR uni1EF8
ENCODING 7928
SWIDTH 524 0
DWIDTH 6 0
BBX 6 11 0 0
BITMAP
1940
2740
0000
9090
70C0
2640
1B00
0E00
0900
0900
0900
ENDCHAR
STARTCHAR uni1EF9
ENCODING 7929
SWIDTH 416 0
DWIDTH 5 0
BBX 5 11 0 -2
BITMAP
2600
5A00
0000
9240
6300
3600
2900
1C00
1800
2400
A000
ENDCHAR
STARTCHAR uni1F4D
ENCODING 8013
SWIDTH 634 0
DWIDTH 7 0
BBX 9 8 -2 0
BITMAP
98B900
A28700
030240
030240
030240
030240
028700
00B900
ENDCHAR
STARTCHAR uni2000
ENCODING 8192
SWIDTH 447 0
DWIDTH 5 0
BBX 1 1 0 0
BITMAP
00
ENDCHAR
STARTCHAR uni2001
ENCODING 8193
SWIDTH 876 0
DWIDTH 10 0
BBX 1 1 0 0
BITMAP
00
ENDCHAR
STARTCHAR uni2002
ENCODING 8194
SWIDTH 447 0
DWIDTH 5 0
BBX 1 1 0 0
BITMAP
00
ENDCHAR
STARTCHAR uni2003
ENCODING 8195
SWIDTH 876 0
DWIDTH 10 0
BBX 1 1 0 0
BITMAP
00
ENDCHAR
STARTCHAR uni2004
ENCODING 8196
SWIDTH 305 0
DWIDTH 3 0
BBX 1 1 0 0
BITMAP
00
ENDCHAR
STARTCHAR uni2005
ENCODING 8197
SWIDTH 233 0
DWIDTH 3 0
BBX 1 1 0 0
BITMAP
00
ENDCHAR
STARTCHAR uni2006
ENCODING 8198
SWIDTH 162 0
DWIDTH 2 0
BBX 1 1 0 0
BITMAP
00
ENDCHAR
STARTCHAR uni2007
ENCODING 8199
SWIDTH 491 0
DWIDTH 5 0
BBX 1 1 0 0
BITMAP
00
ENDCHAR
STARTCHAR uni2008
ENCODING 8200
SWIDTH 249 0
DWIDTH 3 0
BBX 1 1 0 0
BITMAP
00
ENDCHAR
STARTCHAR uni2009
ENCODING 8201
SWIDTH 190 0
DWIDTH 2 0
BBX 1 1 0 0
BITMAP
00
ENDCHAR
STARTCHAR uni200A
ENCODING 8202
SWIDTH 105 0
DWIDTH 1 0
BBX 1 1 0 0
BITMAP
00
ENDCHAR
STARTCHAR uni200B
ENCODING 8203
SWIDTH 0 0
DWIDTH 0 0
BBX 1 1 0 0
BITMAP
00
ENDCHAR
STARTCHAR uni2010
ENCODING 8208
SWIDTH 248 0
DWIDTH 3 0
BBX 3 1 0 3
BITMAP
B4
ENDCHAR
STARTCHAR uni2011
ENCODING 8209
SWIDTH 248 0
DWIDTH 3 0
BBX 3 1 0 3
BITMAP
B4
ENDCHAR
STARTCHAR endash
ENCODING 8211
SWIDTH 572 0
DWIDTH 6 0
BBX 5 1 1 3
BITMAP
FF40
ENDCHAR
STARTCHAR emdash
ENCODING 8212
SWIDTH 678 0
DWIDTH 7 0
BBX 6 1 1 3
BITMAP
FFF0
ENDCHAR
STARTCHAR uni2015
ENCODING 8213
SWIDTH 678 0
DWIDTH 7 0
BBX 6 1 1 3
BITMAP
FFF0
ENDCHAR
STARTCHAR underscoredbl
ENCODING 8215
SWIDTH 402 0
DWIDTH 4 0
BBX 5 3 0 -3
BITMAP
FF40
0000
FF40
ENDCHAR
STARTCHAR quoteleft
ENCODING 8216
SWIDTH 194 0
DWIDTH 2 0
BBX 2 3 0 6
BITMAP
20
60
50
ENDCHAR
STARTCHAR quoteright
ENCODING 8217
SWIDTH 194 0
DWIDTH 2 0
BBX 2 3 0 6
BITMAP
60
60
80
ENDCHAR
STARTCHAR quotesinglbase
ENCODING 8218
SWIDTH 194 0
DWIDTH 2 0
BBX 2 3 0 -2
BITMAP
60
50
80
ENDCHAR
STARTCHAR quotereversed
ENCODING 8219
SWIDTH 194 0
DWIDTH 2 0
BBX 2 3 0 5
BITMAP
90
50
20
ENDCHAR
STARTCHAR quotedblleft
ENCODING 8220
SWIDTH 333 0
DWIDTH 4 0
BBX 4 3 0 6
BITMAP
25
68
6C
ENDCHAR
STARTCHAR quotedblright
ENCODING 8221
SWIDTH 337 0
DWIDTH 4 0
BBX 4 3 0 6
BITMAP
69
68
58
ENDCHAR
STARTCHAR quotedblbase
ENCODING 8222
SWIDTH 326 0
DWIDTH 4 0
BBX 3 4 0 -2
BITMAP
14
6C
5C
98
ENDCHAR
STARTCHAR dagger
ENCODING 8224
SWIDTH 482 0
DWIDTH 5 0
BBX 5 8 0 0
BITMAP
0800
0800
BFC0
0800
0800
0800
0800
0800
ENDCHAR
STARTCHAR daggerdbl
ENCODING 8225
SWIDTH 500 0
DWIDTH 6 0
BBX 5 10 0 -2
BITMAP
0900
0900
BFC0
0900
0900
0900
0900
BFC0
0900
0900
ENDCHAR
STARTCHAR bullet
ENCODING 8226
SWIDTH 336 0
DWIDTH 4 0
BBX 3 3 0 2
BITMAP
38
7C
10
ENDCHAR
STARTCHAR twodotenleader
ENCODING 8229
SWIDTH 420 0
DWIDTH 5 0
BBX 3 1 1 0
BITMAP
CC
ENDCHAR
STARTCHAR ellipsis
ENCODING 8230
SWIDTH 590 0
DWIDTH 7 0
BBX 5 1 1 0
BITMAP
CD80
ENDCHAR
STARTCHAR uni2027
ENCODING 8231
SWIDTH 181 0
DWIDTH 2 0
BBX 2 1 0 3
BITMAP
50
ENDCHAR
STARTCHAR perthousand
ENCODING 8240
SWIDTH 818 0
DWIDTH 9 0
BBX 9 8 0 0
BITMAP
780000
988000
998000
7A0000
05BB00
099980
159980
00BB00
ENDCHAR
STARTCHAR minute
ENCODING 8242
SWIDTH 174 0
DWIDTH 2 0
BBX 2 2 0 6
BITMAP
50
50
ENDCHAR
STARTCHAR second
ENCODING 8243
SWIDTH 319 0
DWIDTH 4 0
BBX 3 3 0 5
BITMAP
58
58
58
ENDCHAR
STARTCHAR guilsinglleft
ENCODING 8249
SWIDTH 271 0
DWIDTH 3 0
BBX 2 4 1 1
BITMAP
50
80
80
50
ENDCHAR
STARTCHAR guilsinglright
ENCODING 8250
SWIDTH 271 0
DWIDTH 3 0
BBX 3 4 0 1
BITMAP
60
24
24
60
ENDCHAR
STARTCHAR exclamdbl
ENCODING 8252
SWIDTH 491 0
DWIDTH 5 0
BBX 4 8 1 0
BITMAP
C6
C6
86
86
86
85
00
86
ENDCHAR
STARTCHAR fraction
ENCODING 8260
SWIDTH 403 0
DWIDTH 4 0
BBX 4 6 0 1
BITMAP
02
05
08
14
20
50
ENDCHAR
STARTCHAR uni2074
ENCODING 8308
SWIDTH 329 0
DWIDTH 4 0
BBX 4 4 0 4
BITMAP
18
28
BD
08
ENDCHAR
STARTCHAR uni207F
ENCODING 8319
SWIDTH 374 0
DWIDTH 4 0
BBX 4 5 0 3
BITMAP
6D
66
66
66
66
ENDCHAR
STARTCHAR franc
ENCODING 8355
SWIDTH 480 0
DWIDTH 5 0
BBX 5 8 0 0
BITMAP
3FC0
2000
2000
3F40
2000
2000
FC00
2000
ENDCHAR
STARTCHAR lira
ENCODING 8356
SWIDTH 510 0
DWIDTH 6 0
BBX 6 8 0 0
BITMAP
1F40
24C0
2040
7E00
2400
7E00
3000
7FD0
ENDCHAR
STARTCHAR uni20A6
ENCODING 8358
SWIDTH 691 0
DWIDTH 8 0
BBX 8 8 0 0
BITMAP
2824
2D24
BFFD
2664
BFFD
24A4
2474
2434
ENDCHAR
STARTCHAR peseta
ENCODING 8359
SWIDTH 709 0
DWIDTH 8 0
BBX 7 8 0 0
BITMAP
7E00
62A4
61FC
62A4
7E24
6024
6024
601C
ENDCHAR
STARTCHAR uni20A8
ENCODING 8360
SWIDTH 911 0
DWIDTH 10 0
BBX 9 8 1 0
BITMAP
FE0000
834000
826E00
836240
FE3900
890740
836240
826E00
ENDCHAR
STARTCHAR uni20A9
ENCODING 8361
SWIDTH 634 0
DWIDTH 7 0
BBX 7 8 0 0
BITMAP
9318
6324
6764
BFF8
3570
BFF8
2CE0
1890
ENDCHAR
STARTCHAR uni20AA
ENCODING 8362
SWIDTH 669 0
DWIDTH 7 0
BBX 7 6 0 0
BITMAP
7F58
6198
69D8
69D8
6928
6BF4
ENDCHAR
STARTCHAR dong
ENCODING 8363
SWIDTH 510 0
DWIDTH 6 0
BBX 6 10 0 -2
BITMAP
07E0
0180
2E80
6180
5180
5180
6180
2E80
0000
7FC0
ENDCHAR
STARTCHAR Euro
ENCODING 8364
SWIDTH 493 0
DWIDTH 5 0
BBX 5 8 0 0
BITMAP
0B80
2800
7F00
2400
7F00
2400
1800
0B80
ENDCHAR
STARTCHAR uni20B1
ENCODING 8369
SWIDTH 648 0
DWIDTH 7 0
BBX 7 8 0 0
BITMAP
3F80
30A0
BFFC
3030
BFFC
30A0
3F80
3000
ENDCHAR
STARTCHAR uni20B9
ENCODING 8377
SWIDTH 462 0
DWIDTH 5 0
BBX 5 8 0 0
BITMAP
BF80
0600
BF80
0600
BD00
7000
1800
0A00
ENDCHAR
STARTCHAR uni20BA
ENCODING 8378
SWIDTH 500 0
DWIDTH 6 0
BBX 5 8 0 0
BITMAP
2400
2900
7800
6900
78C0
64C0
2680
2E00
ENDCHAR
STARTCHAR uni20BC
ENCODING 8380
SWIDTH 575 0
DWIDTH 6 0
BBX 6 6 0 0
BITMAP
0600
1F80
3690
6660
5620
9620
ENDCHAR
STARTCHAR uni20BD
ENCODING 8381
SWIDTH 583 0
DWIDTH 6 0
BBX 6 8 0 0
BITMAP
2F90
2060
2030
2060
BFD0
2000
BE00
2000
ENDCHAR
STARTCHAR uni2105
ENCODING 8453
SWIDTH 640 0
DWIDTH 7 0
BBX 7 8 0 0
BITMAP
2800
5440
5580
2A00
06B0
0994
1594
00B0
ENDCHAR
STARTCHAR uni2113
ENCODING 8467
SWIDTH 422 0
DWIDTH 5 0
BBX 4 9 0 0
BITMAP
0E
1B
27
2A
2D
78
14
18
09
ENDCHAR
STARTCHAR uni2116
ENCODING 8470
SWIDTH 886 0
DWIDTH 10 0
BBX 9 8 0 0
BITMAP
709B80
749C80
689C80
699B80
629000
629FC0
61D000
60D000
ENDCHAR
STARTCHAR trademark
ENCODING 8482
SWIDTH 547 0
DWIDTH 6 0
BBX 5 3 0 5
BITMAP
7980
1580
1580
ENDCHAR
STARTCHAR Omega
ENCODING 8486
SWIDTH 581 0
DWIDTH 6 0
BBX 6 8 0 0
BITMAP
1F40
34D0
6060
6060
6060
2050
2080
7EE0
ENDCHAR
STARTCHAR estimated
ENCODING 8494
SWIDTH 636 0
DWIDTH 7 0
BBX 6 6 1 0
BITMAP
2E00
9180
D0C0
FFD0
9000
2E40
ENDCHAR
STARTCHAR oneeighth
ENCODING 8539
SWIDTH 666 0
DWIDTH 7 0
BBX 7 8 0 0
BITMAP
2400
7480
2540
2600
05B4
08A4
14A8
00B4
ENDCHAR
STARTCHAR threeeighths
ENCODING 8540
SWIDTH 736 0
DWIDTH 8 0
BBX 8 8 0 0
BITMAP
2C00
2C20
0950
7880
017C
0228
0429
003D
ENDCHAR
STARTCHAR fiveeighths
ENCODING 8541
SWIDTH 736 0
DWIDTH 8 0
BBX 8 8 0 0
BITMAP
7C00
7C20
1990
7880
027C
0528
0869
003D
ENDCHAR
STARTCHAR seveneighths
ENCODING 8542
SWIDTH 692 0
DWIDTH 8 0
BBX 7 8 0 0
BITMAP
BD00
0850
1480
2240
0278
0868
0468
0078
ENDCHAR
STARTCHAR partialdiff
ENCODING 8706
SWIDTH 497 0
DWIDTH 5 0
BBX 5 8 0 0
BITMAP
2E00
0240
0180
2EC0
61C0
60C0
6180
2E00
ENDCHAR
STARTCHAR Delta
ENCODING 8710
SWIDTH 614 0
DWIDTH 7 0
BBX 7 8 0 0
BITMAP
0700
0B40
0D80
18C0
2490
3060
6030
BFF4
ENDCHAR
STARTCHAR product
ENCODING 8719
SWIDTH 614 0
DWIDTH 7 0
BBX 5 9 1 -1
BITMAP
FFC0
80C0
80C0
80C0
80C0
80C0
80C0
80C0
80C0
ENDCHAR
STARTCHAR summation
ENCODING 8721
SWIDTH 513 0
DWIDTH 6 0
BBX 6 9 0 -1
BITMAP
BFC0
6000
1800
0900
0300
0900
1800
6000
BFE0
ENDCHAR
STARTCHAR minus
ENCODING 8722
SWIDTH 499 0
DWIDTH 6 0
BBX 4 1 1 3
BITMAP
FE
ENDCHAR
STARTCHAR radical
ENCODING 8730
SWIDTH 536 0
DWIDTH 6 0
BBX 6 8 0 0
BITMAP
0050
0080
0080
0180
B240
2B00
1E00
0900
ENDCHAR
STARTCHAR infinity
ENCODING 8734
SWIDTH 874 0
DWIDTH 10 0
BBX 9 6 0 0
BITMAP
1E1E00
71B180
60D0C0
60D0C0
71B180
1E1E00
ENDCHAR
STARTCHAR integral
ENCODING 8747
SWIDTH 235 0
DWIDTH 3 0
BBX 3 11 0 -2
BITMAP
2C
30
20
20
20
20
20
20
20
60
D0
ENDCHAR
STARTCHAR approxequal
ENCODING 8776
SWIDTH 492 0
DWIDTH 5 0
BBX 5 4 0 1
BITMAP
7840
4780
7840
4780
ENDCHAR
STARTCHAR notequal
ENCODING 8800
SWIDTH 479 0
DWIDTH 5 0
BBX 5 5 0 1
BITMAP
0200
7F80
0800
7F80
2000
ENDCHAR
STARTCHAR lessequal
ENCODING 8804
SWIDTH 445 0
DWIDTH 5 0
BBX 4 6 0 0
BITMAP
06
29
64
1A
01
BF
ENDCHAR
STARTCHAR greaterequal
ENCODING 8805
SWIDTH 460 0
DWIDTH 5 0
BBX 5 6 0 0
BITMAP
6000
1A00
0640
2800
0000
7F80
ENDCHAR
STARTCHAR lozenge
ENCODING 9674
SWIDTH 442 0
DWIDTH 5 0
BBX 5 8 0 0
BITMAP
0C00
2900
2300
5240
5240
3300
2900
0C00
ENDCHAR
STARTCHAR uniEE01
ENCODING 60929
SWIDTH 271 0
DWIDTH 3 0
BBX 1 6 1 1
BITMAP
C0
00
00
00
00
C0
ENDCHAR
STARTCHAR uniEE02
ENCODING 60930
SWIDTH 298 0
DWIDTH 3 0
BBX 3 2 0 4
BITMAP
58
58
ENDCHAR
STARTCHAR uniF6C3
ENCODING 63171
SWIDTH 235 0
DWIDTH 3 0
BBX 2 2 0 -1
BITMAP
60
50
ENDCHAR
STARTCHAR uniFB01
ENCODING 64257
SWIDTH 489 0
DWIDTH 5 0
BBX 5 9 0 0
BITMAP
1F00
3000
3000
BD80
3180
3180
3180
3180
3180
ENDCHAR
STARTCHAR uniFB02
ENCODING 64258
SWIDTH 503 0
DWIDTH 6 0
BBX 5 9 0 0
BITMAP
1F80
2580
3180
BD80
3180
3180
3180
3180
3180
ENDCHAR
STARTCHAR uniFB03
ENCODING 64259
SWIDTH 744 0
DWIDTH 8 0
BBX 8 9 0 0
BITMAP
1DB8
24C0
3180
BFE9
3189
3189
3189
3189
3189
ENDCHAR
STARTCHAR uniFB04
ENCODING 64260
SWIDTH 744 0
DWIDTH 8 0
BBX 8 9 0 0
BITMAP
1DBD
24C9
3189
BFE9
3189
3189
3189
3189
3189
ENDCHAR
STARTCHAR uniFEFF
ENCODING 65279
SWIDTH 0 0
DWIDTH 0 0
BBX 1 1 0 0
BITMAP
00
ENDCHAR
STARTCHAR uniFFFC
ENCODING 65532
SWIDTH 1024 0
DWIDTH 11 0
BBX 11 10 0 -2
BITMAP
B777AC
800008
000000
800008
0B7820
89B928
0B7DD0
800008
000000
B777AC
ENDCHAR
STARTCHAR uniFFFD
ENCODING 65533
SWIDTH 1025 0
DWIDTH 11 0
BBX 11 11 0 -2
BITMAP
002400
00BC00
02FF00
0B4780
2F72E0
7FE3F8
2FCBE0
0BFF80
02CF00
00BC00
002400
ENDCHAR
STARTCHAR .notdef
ENCODING -1
SWIDTH 392 0
DWIDTH 4 0
BBX 4 8 0 0
BITMAP
7E
41
41
45
45
41
41
7E
ENDCHAR
STARTCHAR glyph369
ENCODING -1
SWIDTH 364 0
DWIDTH 4 0
BBX 4 2 0 6
BITMAP
69
28
ENDCHAR
STARTCHAR uni2009.locl
ENCODING -1
SWIDTH 124 0
DWIDTH 1 0
BBX 1 1 0 0
BITMAP
00
ENDCHAR
STARTCHAR f_f.dlig
ENCODING -1
SWIDTH 546 0
DWIDTH 6 0
BBX 6 9 0 0
BITMAP
1DB0
2580
3180
BFE0
3180
3180
3180
3180
3180
ENDCHAR
STARTCHAR longs_t.dlig
ENCODING -1
SWIDTH 544 0
DWIDTH 6 0
BBX 6 9 0 0
BITMAP
1E40
2580
3180
B7E0
3180
3180
3180
3180
30D0
ENDCHAR
STARTCHAR s_t.dlig
ENCODING -1
SWIDTH 710 0
DWIDTH 8 0
BBX 8 9 0 0
BITMAP
01E0
0324
0318
2FBD
6258
2918
0758
6258
2E1D
ENDCHAR
STARTCHAR two.dnom
ENCODING -1
SWIDTH 329 0
DWIDTH 4 0
BBX 4 4 0 0
BITMAP
78
58
20
BD
ENDCHAR
STARTCHAR one.dnom
ENCODING -1
SWIDTH 329 0
DWIDTH 4 0
BBX 3 4 0 0
BITMAP
24
74
14
14
ENDCHAR
STARTCHAR zero.dnom
ENCODING -1
SWIDTH 329 0
DWIDTH 4 0
BBX 3 4 0 0
BITMAP
78
98
98
78
ENDCHAR
STARTCHAR nine.c2sc
ENCODING -1
SWIDTH 447 0
DWIDTH 5 0
BBX 5 6 0 0
BITMAP
2E00
6300
6240
2F40
0700
2900
ENDCHAR
STARTCHAR eight.c2sc
ENCODING -1
SWIDTH 447 0
DWIDTH 5 0
BBX 5 6 0 0
BITMAP
2E00
6300
2E00
6240
6240
2E00
ENDCHAR
STARTCHAR seven.c2sc
ENCODING -1
SWIDTH 447 0
DWIDTH 5 0
BBX 5 6 0 0
BITMAP
BF40
0200
0600
0900
1800
2400
ENDCHAR
STARTCHAR six.c2sc
ENCODING -1
SWIDTH 447 0
DWIDTH 5 0
BBX 5 6 0 0
BITMAP
1E00
3400
7E00
6240
6240
2E00
ENDCHAR
STARTCHAR five.c2sc
ENCODING -1
SWIDTH 447 0
DWIDTH 5 0
BBX 5 6 0 0
BITMAP
3F40
3000
3E00
0240
6240
2E00
ENDCHAR
STARTCHAR four.c2sc
ENCODING -1
SWIDTH 447 0
DWIDTH 5 0
BBX 5 6 0 0
BITMAP
0700
0F00
2700
6300
BF80
0300
ENDCHAR
STARTCHAR three.c2sc
ENCODING -1
SWIDTH 447 0
DWIDTH 5 0
BBX 5 6 0 0
BITMAP
2E00
6300
1E00
0240
6240
2E00
ENDCHAR
STARTCHAR two.c2sc
ENCODING -1
SWIDTH 447 0
DWIDTH 5 0
BBX 5 6 0 0
BITMAP
2E00
6240
0300
0900
2400
7F80
ENDCHAR
STARTCHAR one.c2sc
ENCODING -1
SWIDTH 447 0
DWIDTH 5 0
BBX 4 6 0 0
BITMAP
19
6D
09
09
09
09
ENDCHAR
STARTCHAR zero.c2sc
ENCODING -1
SWIDTH 447 0
DWIDTH 5 0
BBX 5 6 0 0
BITMAP
2E00
6240
5240
5240
6240
2E00
ENDCHAR
STARTCHAR Z.c2sc
ENCODING -1
SWIDTH 454 0
DWIDTH 5 0
BBX 5 6 0 0
BITMAP
BF40
0200
0900
1800
2000
BF80
ENDCHAR
STARTCHAR Y.c2sc
ENCODING -1
SWIDTH 458 0
DWIDTH 5 0
BBX 5 6 0 0
BITMAP
9180
3300
2A00
0C00
0C00
0C00
ENDCHAR
STARTCHAR X.c2sc
ENCODING -1
SWIDTH 478 0
DWIDTH 5 0
BBX 5 6 0 0
BITMAP
6180
2700
1D00
1E00
2700
6180
ENDCHAR
STARTCHAR W.c2sc
ENCODING -1
SWIDTH 655 0
DWIDTH 7 0
BBX 7 6 0 0
BITMAP
934C
6358
2594
28A4
28B0
1860
ENDCHAR
STARTCHAR V.c2sc
ENCODING -1
SWIDTH 487 0
DWIDTH 5 0
BBX 5 6 0 0
BITMAP
90C0
6180
3240
2700
1A00
0D00
ENDCHAR
STARTCHAR U.c2sc
ENCODING -1
SWIDTH 488 0
DWIDTH 5 0
BBX 5 6 0 0
BITMAP
6080
6080
6080
6080
6180
2E40
ENDCHAR
STARTCHAR T.c2sc
ENCODING -1
SWIDTH 456 0
DWIDTH 5 0
BBX 5 6 0 0
BITMAP
BF80
0C00
0C00
0C00
0C00
0C00
ENDCHAR
STARTCHAR S.c2sc
ENCODING -1
SWIDTH 453 0
DWIDTH 5 0
BBX 5 6 0 0
BITMAP
2E00
6240
3900
0640
6280
2E00
ENDCHAR
STARTCHAR R.c2sc
ENCODING -1
SWIDTH 465 0
DWIDTH 5 0
BBX 5 6 0 0
BITMAP
7E00
6180
6180
7F00
6300
6180
ENDCHAR
STARTCHAR Q.c2sc
ENCODING -1
SWIDTH 519 0
DWIDTH 6 0
BBX 5 7 0 -1
BITMAP
2F40
61C0
5080
5080
61C0
2F40
0080
ENDCHAR
STARTCHAR P.c2sc
ENCODING -1
SWIDTH 481 0
DWIDTH 5 0
BBX 5 6 0 0
BITMAP
7F40
6180
61C0
7F40
6000
6000
ENDCHAR
STARTCHAR O.c2sc
ENCODING -1
SWIDTH 519 0
DWIDTH 6 0
BBX 5 6 0 0
BITMAP
1F40
71C0
6080
6080
71C0
1F40
ENDCHAR
STARTCHAR N.c2sc
ENCODING -1
SWIDTH 533 0
DWIDTH 6 0
BBX 5 6 0 0
BITMAP
7080
7880
6880
6680
62C0
60C0
ENDCHAR
STARTCHAR M.c2sc
ENCODING -1
SWIDTH 652 0
DWIDTH 7 0
BBX 7 6 0 0
BITMAP
7034
7474
68A4
6994
6754
6314
ENDCHAR
STARTCHAR L.c2sc
ENCODING -1
SWIDTH 411 0
DWIDTH 5 0
BBX 5 6 0 0
BITMAP
6000
6000
6000
6000
6000
7F40
ENDCHAR
STARTCHAR K.c2sc
ENCODING -1
SWIDTH 473 0
DWIDTH 5 0
BBX 5 6 0 0
BITMAP
6280
6600
6C00
7900
6340
6180
ENDCHAR
STARTCHAR J.c2sc
ENCODING -1
SWIDTH 419 0
DWIDTH 5 0
BBX 4 6 0 0
BITMAP
03
03
03
03
97
7D
ENDCHAR
STARTCHAR I.c2sc
ENCODING -1
SWIDTH 221 0
DWIDTH 2 0
BBX 2 6 0 0
BITMAP
60
60
60
60
60
60
ENDCHAR
STARTCHAR H.c2sc
ENCODING -1
SWIDTH 533 0
DWIDTH 6 0
BBX 5 6 0 0
BITMAP
6080
6080
7FC0
6080
6080
6080
ENDCHAR
STARTCHAR G.c2sc
ENCODING -1
SWIDTH 509 0
DWIDTH 6 0
BBX 5 6 0 0
BITMAP
2F40
6180
6000
63C0
70C0
1F80
ENDCHAR
STARTCHAR F.c2sc
ENCODING -1
SWIDTH 415 0
DWIDTH 5 0
BBX 5 6 0 0
BITMAP
7F40
6000
7F00
6000
6000
6000
ENDCHAR
STARTCHAR dollar.c2sc
ENCODING -1
SWIDTH 453 0
DWIDTH 5 0
BBX 5 8 0 -1
BITMAP
0800
2E00
6240
3900
0740
6280
2E00
0800
ENDCHAR
STARTCHAR sterling.c2sc
ENCODING -1
SWIDTH 467 0
DWIDTH 5 0
BBX 5 6 0 0
BITMAP
1E00
3240
3000
BE00
3000
7F80
ENDCHAR
STARTCHAR yen.c2sc
ENCODING -1
SWIDTH 400 0
DWIDTH 4 0
BBX 4 6 0 0
BITMAP
92
25
7B
18
7F
18
ENDCHAR
STARTCHAR Gamma.c2sc
ENCODING -1
SWIDTH 405 0
DWIDTH 4 0
BBX 5 6 0 0
BITMAP
7F40
6000
6000
6000
6000
6000
ENDCHAR
STARTCHAR Delta.c2sc
ENCODING -1
SWIDTH 487 0
DWIDTH 5 0
BBX 5 6 0 0
BITMAP
0D00
1A00
2600
3240
6180
BFC0
ENDCHAR
STARTCHAR Theta.c2sc
ENCODING -1
SWIDTH 519 0
DWIDTH 6 0
BBX 5 6 0 0
BITMAP
1F40
71C0
6F80
6080
71C0
1F40
ENDCHAR
STARTCHAR Lambda.c2sc
ENCODING -1
SWIDTH 487 0
DWIDTH 5 0
BBX 5 6 0 0
BITMAP
0D00
1A00
2700
3240
6180
90C0
ENDCHAR
STARTCHAR Xi.c2sc
ENCODING -1
SWIDTH 389 0
DWIDTH 4 0
BBX 4 6 0 0
BITMAP
BF
00
7E
00
00
BF
ENDCHAR
STARTCHAR Pi.c2sc
ENCODING -1
SWIDTH 525 0
DWIDTH 6 0
BBX 5 6 0 0
BITMAP
7FC0
60C0
60C0
60C0
60C0
60C0
ENDCHAR
STARTCHAR Sigma.c2sc
ENCODING -1
SWIDTH 435 0
DWIDTH 5 0
BBX 5 6 0 0
BITMAP
BF40
6000
2800
2800
6000
BF40
ENDCHAR
STARTCHAR Phi.c2sc
ENCODING -1
SWIDTH 587 0
DWIDTH 6 0
BBX 6 6 0 0
BITMAP
0600
2F90
6660
6660
2F90
0600
ENDCHAR
STARTCHAR Psi.c2sc
ENCODING -1
SWIDTH 560 0
DWIDTH 6 0
BBX 6 6 0 0
BITMAP
5660
5660
6660
3690
1F80
0600
ENDCHAR
STARTCHAR Omega.c2sc
ENCODING -1
SWIDTH 540 0
DWIDTH 6 0
BBX 6 6 0 0
BITMAP
1F40
70C0
6090
6090
2180
7AD0
ENDCHAR
STARTCHAR uni0402.c2sc
ENCODING -1
SWIDTH 596 0
DWIDTH 7 0
BBX 6 6 0 0
BITMAP
BF40
0800
0FD0
0C30
0830
08E0
ENDCHAR
STARTCHAR uni0404.c2sc
ENCODING -1
SWIDTH 490 0
DWIDTH 5 0
BBX 5 6 0 0
BITMAP
2F40
61C0
7D00
6000
7180
2F40
ENDCHAR
STARTCHAR uni0409.c2sc
ENCODING -1
SWIDTH 782 0
DWIDTH 9 0
BBX 8 6 0 0
BITMAP
2FC0
24C0
24FE
24C3
30C3
A0FD
ENDCHAR
STARTCHAR uni040A.c2sc
ENCODING -1
SWIDTH 788 0
DWIDTH 9 0
BBX 8 6 0 0
BITMAP
60C0
60C0
7FFE
60C3
60C3
60FE
ENDCHAR
STARTCHAR uni040B.c2sc
ENCODING -1
SWIDTH 596 0
DWIDTH 7 0
BBX 6 6 0 0
BITMAP
BF40
0800
0FD0
0C30
0820
0820
ENDCHAR
STARTCHAR uni040F.c2sc
ENCODING -1
SWIDTH 524 0
DWIDTH 6 0
BBX 5 8 0 -2
BITMAP
60C0
60C0
60C0
60C0
60C0
7FC0
0900
0900
ENDCHAR
STARTCHAR uni0411.c2sc
ENCODING -1
SWIDTH 479 0
DWIDTH 5 0
BBX 5 6 0 0
BITMAP
7F40
6000
7F40
6180
6180
7F40
ENDCHAR
STARTCHAR uni0414.c2sc
ENCODING -1
SWIDTH 563 0
DWIDTH 6 0
BBX 6 8 0 -2
BITMAP
1FD0
1890
1490
2490
3090
BFF0
9030
9030
ENDCHAR
STARTCHAR uni0416.c2sc
ENCODING -1
SWIDTH 651 0
DWIDTH 7 0
BBX 7 6 0 0
BITMAP
6324
2760
1FD0
2B60
3334
A318
ENDCHAR
STARTCHAR uni0417.c2sc
ENCODING -1
SWIDTH 466 0
DWIDTH 5 0
BBX 5 6 0 0
BITMAP
2E00
5240
0E00
0240
5240
2E00
ENDCHAR
STARTCHAR uni0418.c2sc
ENCODING -1
SWIDTH 537 0
DWIDTH 6 0
BBX 6 6 0 0
BITMAP
60D0
62D0
6690
6890
7890
7090
ENDCHAR
STARTCHAR uni041A.c2sc
ENCODING -1
SWIDTH 473 0
DWIDTH 5 0
BBX 5 6 0 0
BITMAP
6240
6A00
7C00
6900
6300
6280
ENDCHAR
STARTCHAR uni041B.c2sc
ENCODING -1
SWIDTH 521 0
DWIDTH 6 0
BBX 5 6 0 0
BITMAP
2FC0
24C0
24C0
24C0
30C0
A0C0
ENDCHAR
STARTCHAR uni0423.c2sc
ENCODING -1
SWIDTH 454 0
DWIDTH 5 0
BBX 5 6 0 0
BITMAP
A180
3240
2600
1D00
0C00
3400
ENDCHAR
STARTCHAR uni0426.c2sc
ENCODING -1
SWIDTH 564 0
DWIDTH 6 0
BBX 6 8 0 -2
BITMAP
60C0
60C0
60C0
60C0
60C0
7FF0
0030
0020
ENDCHAR
STARTCHAR uni0427.c2sc
ENCODING -1
SWIDTH 487 0
DWIDTH 5 0
BBX 5 6 0 0
BITMAP
9180
9180
A180
2F80
0180
0180
ENDCHAR
STARTCHAR uni0428.c2sc
ENCODING -1
SWIDTH 691 0
DWIDTH 8 0
BBX 7 6 0 0
BITMAP
624C
624C
624C
624C
624C
7FFC
ENDCHAR
STARTCHAR uni0429.c2sc
ENCODING -1
SWIDTH 731 0
DWIDTH 8 0
BBX 8 8 0 -2
BITMAP
624C
624C
624C
624C
624C
7FFE
0006
0006
ENDCHAR
STARTCHAR uni042A.c2sc
ENCODING -1
SWIDTH 559 0
DWIDTH 6 0
BBX 6 6 0 0
BITMAP
F800
1800
1F90
1860
1860
1F80
ENDCHAR
STARTCHAR uni042B.c2sc
ENCODING -1
SWIDTH 658 0
DWIDTH 7 0
BBX 7 6 0 0
BITMAP
6018
6018
7F58
6198
6198
7F58
ENDCHAR
STARTCHAR uni042C.c2sc
ENCODING -1
SWIDTH 475 0
DWIDTH 5 0
BBX 5 6 0 0
BITMAP
6000
6000
7F40
6180
6180
7F40
ENDCHAR
STARTCHAR uni042D.c2sc
ENCODING -1
SWIDTH 491 0
DWIDTH 5 0
BBX 5 6 0 0
BITMAP
2E00
6180
0FC0
00C0
6280
2E00
ENDCHAR
STARTCHAR uni042E.c2sc
ENCODING -1
SWIDTH 705 0
DWIDTH 8 0
BBX 8 6 0 0
BITMAP
62F4
671C
7E09
6609
631C
61F4
ENDCHAR
STARTCHAR uni042F.c2sc
ENCODING -1
SWIDTH 499 0
DWIDTH 5 0
BBX 5 6 0 0
BITMAP
2F80
6180
2180
2F80
2580
6180
ENDCHAR
STARTCHAR uni0492.c2sc
ENCODING -1
SWIDTH 444 0
DWIDTH 5 0
BBX 5 6 0 0
BITMAP
3F80
3000
3000
FC00
3000
3000
ENDCHAR
STARTCHAR uni0496.c2sc
ENCODING -1
SWIDTH 676 0
DWIDTH 7 0
BBX 8 8 0 -2
BITMAP
6324
2760
1FD0
2B60
3334
A31D
0009
0009
ENDCHAR
STARTCHAR uni049A.c2sc
ENCODING -1
SWIDTH 492 0
DWIDTH 5 0
BBX 5 8 0 -2
BITMAP
6240
6A00
7C00
6900
6300
62C0
0080
0080
ENDCHAR
STARTCHAR uni049C.c2sc
ENCODING -1
SWIDTH 562 0
DWIDTH 6 0
BBX 6 6 0 0
BITMAP
6090
6A80
7F00
6A40
60C0
60A0
ENDCHAR
STARTCHAR uni04A0.c2sc
ENCODING -1
SWIDTH 571 0
DWIDTH 6 0
BBX 6 6 0 0
BITMAP
B890
1980
1F00
1A80
18C0
1860
ENDCHAR
STARTCHAR uni04A8.c2sc
ENCODING -1
SWIDTH 625 0
DWIDTH 7 0
BBX 7 6 0 0
BITMAP
2AD0
6630
5620
6630
3660
1FE4
ENDCHAR
STARTCHAR uni04B0.c2sc
ENCODING -1
SWIDTH 480 0
DWIDTH 5 0
BBX 5 6 0 0
BITMAP
9180
3300
2A00
0C00
3F00
0C00
ENDCHAR
STARTCHAR uni04B2.c2sc
ENCODING -1
SWIDTH 514 0
DWIDTH 6 0
BBX 6 8 0 -2
BITMAP
6180
2700
1D00
1E00
2740
61D0
0090
0090
ENDCHAR
STARTCHAR uni04B4.c2sc
ENCODING -1
SWIDTH 695 0
DWIDTH 8 0
BBX 7 8 0 -2
BITMAP
BF64
0824
0824
0824
0824
0FFC
000C
000C
ENDCHAR
STARTCHAR uni04B8.c2sc
ENCODING -1
SWIDTH 487 0
DWIDTH 5 0
BBX 5 6 0 0
BITMAP
9180
9580
A980
2F80
0980
0180
ENDCHAR
STARTCHAR uni04BA.c2sc
ENCODING -1
SWIDTH 487 0
DWIDTH 5 0
BBX 5 6 0 0
BITMAP
6000
6000
7F40
61C0
60C0
60C0
ENDCHAR
STARTCHAR uni04BC.c2sc
ENCODING -1
SWIDTH 632 0
DWIDTH 7 0
BBX 7 6 0 0
BITMAP
07D0
0D30
9824
7FF4
1C00
07E0
ENDCHAR
STARTCHAR uni04D8.c2sc
ENCODING -1
SWIDTH 527 0
DWIDTH 6 0
BBX 6 6 0 0
BITMAP
2F40
01C0
0090
7FD0
6080
2F40
ENDCHAR
STARTCHAR uni04E0.c2sc
ENCODING -1
SWIDTH 466 0
DWIDTH 5 0
BBX 5 6 0 0
BITMAP
7F40
0A00
0E00
0240
5240
2E00
ENDCHAR
STARTCHAR uni04E8.c2sc
ENCODING -1
SWIDTH 519 0
DWIDTH 6 0
BBX 5 6 0 0
BITMAP
1F40
6080
7FC0
60C0
71C0
1F40
ENDCHAR
STARTCHAR lira.c2sc
ENCODING -1
SWIDTH 467 0
DWIDTH 5 0
BBX 5 6 0 0
BITMAP
1F40
3000
BE00
3000
BE00
7F80
ENDCHAR
STARTCHAR Euro.c2sc
ENCODING -1
SWIDTH 433 0
DWIDTH 5 0
BBX 5 6 0 0
BITMAP
1F40
2400
BF00
3000
BF00
2F40
ENDCHAR
STARTCHAR uni2116.c2sc
ENCODING -1
SWIDTH 884 0
DWIDTH 10 0
BBX 9 6 0 0
BITMAP
708B80
789CC0
689CC0
668B80
62C000
60CB80
ENDCHAR
STARTCHAR uni20BD.c2sc
ENCODING -1
SWIDTH 512 0
DWIDTH 6 0
BBX 6 6 0 0
BITMAP
3F80
30D0
BF80
3000
BD00
3000
ENDCHAR
STARTCHAR three.dnom
ENCODING -1
SWIDTH 329 0
DWIDTH 4 0
BBX 3 4 0 0
BITMAP
68
28
08
78
ENDCHAR
STARTCHAR four.dnom
ENCODING -1
SWIDTH 329 0
DWIDTH 4 0
BBX 4 4 0 0
BITMAP
18
28
BD
08
ENDCHAR
STARTCHAR five.dnom
ENCODING -1
SWIDTH 329 0
DWIDTH 4 0
BBX 3 4 0 0
BITMAP
7C
78
08
78
ENDCHAR
STARTCHAR six.dnom
ENCODING -1
SWIDTH 329 0
DWIDTH 4 0
BBX 4 4 0 0
BITMAP
28
7C
59
78
ENDCHAR
STARTCHAR seven.dnom
ENCODING -1
SWIDTH 329 0
DWIDTH 4 0
BBX 3 4 0 0
BITMAP
BC
08
14
20
ENDCHAR
STARTCHAR eight.dnom
ENCODING -1
SWIDTH 329 0
DWIDTH 4 0
BBX 3 4 0 0
BITMAP
78
68
68
78
ENDCHAR
STARTCHAR nine.dnom
ENCODING -1
SWIDTH 329 0
DWIDTH 4 0
BBX 3 4 0 0
BITMAP
78
6C
1C
34
ENDCHAR
STARTCHAR glyph550
ENCODING -1
SWIDTH 404 0
DWIDTH 4 0
BBX 4 1 0 3
BITMAP
7E
ENDCHAR
STARTCHAR glyph551
ENCODING -1
SWIDTH 306 0
DWIDTH 3 0
BBX 2 4 1 6
BITMAP
60
50
D0
D0
ENDCHAR
STARTCHAR E.c2sc
ENCODING -1
SWIDTH 428 0
DWIDTH 5 0
BBX 5 6 0 0
BITMAP
7F40
6000
7F00
6000
6000
7F40
ENDCHAR
STARTCHAR g.ss01
ENCODING -1
SWIDTH 463 0
DWIDTH 5 0
BBX 5 8 0 -2
BITMAP
2FC0
6240
6240
3E00
6000
7F40
9180
7E00
ENDCHAR
STARTCHAR alpha.ss02
ENCODING -1
SWIDTH 523 0
DWIDTH 6 0
BBX 5 6 0 0
BITMAP
2E80
72C0
6180
6180
62C0
2E80
ENDCHAR
STARTCHAR R.ss03
ENCODING -1
SWIDTH 577 0
DWIDTH 6 0
BBX 5 8 1 0
BITMAP
FE00
C240
C180
C240
FE00
C240
C240
C180
ENDCHAR
STARTCHAR K.ss04
ENCODING -1
SWIDTH 560 0
DWIDTH 6 0
BBX 5 8 1 0
BITMAP
C280
C600
DC00
F800
CC00
CA00
C340
C180
ENDCHAR
STARTCHAR k.ss04
ENCODING -1
SWIDTH 453 0
DWIDTH 5 0
BBX 5 9 0 0
BITMAP
6000
6000
6000
6240
6600
7C00
6600
6300
6180
ENDCHAR
STARTCHAR K.ss05
ENCODING -1
SWIDTH 572 0
DWIDTH 6 0
BBX 5 8 1 0
BITMAP
C240
CA00
DC00
F400
F400
DC00
C600
C280
ENDCHAR
STARTCHAR k.ss05
ENCODING -1
SWIDTH 454 0
DWIDTH 5 0
BBX 5 9 0 0
BITMAP
6000
6000
6000
6340
6900
7800
6C00
6600
6240
ENDCHAR
STARTCHAR D.c2sc
ENCODING -1
SWIDTH 492 0
DWIDTH 5 0
BBX 5 6 0 0
BITMAP
7E00
6280
6080
6080
6280
7E00
ENDCHAR
STARTCHAR C.c2sc
ENCODING -1
SWIDTH 490 0
DWIDTH 5 0
BBX 5 6 0 0
BITMAP
2F40
6180
6040
6040
6180
2F40
ENDCHAR
STARTCHAR B.c2sc
ENCODING -1
SWIDTH 475 0
DWIDTH 5 0
BBX 5 6 0 0
BITMAP
7F40
6240
7F00
6180
6180
7F40
ENDCHAR
STARTCHAR A.c2sc
ENCODING -1
SWIDTH 501 0
DWIDTH 6 0
BBX 5 6 0 0
BITMAP
0900
1E00
2700
3240
7F80
90C0
ENDCHAR
STARTCHAR glyph564
ENCODING -1
SWIDTH 236 0
DWIDTH 3 0
BBX 1 2 1 7
BITMAP
80
80
ENDCHAR
STARTCHAR glyph565
ENCODING -1
SWIDTH 402 0
DWIDTH 4 0
BBX 4 4 0 7
BITMAP
20
14
65
2C
ENDCHAR
STARTCHAR glyph566
ENCODING -1
SWIDTH 0 0
DWIDTH 0 0
BBX 3 2 -4 7
BITMAP
24
64
ENDCHAR
STARTCHAR glyph567
ENCODING -1
SWIDTH 455 0
DWIDTH 5 0
BBX 4 3 1 7
BITMAP
03
76
98
ENDCHAR
STARTCHAR glyph568
ENCODING -1
SWIDTH 454 0
DWIDTH 5 0
BBX 5 3 -1 7
BITMAP
6000
2B40
0980
ENDCHAR
STARTCHAR glyph569
ENCODING -1
SWIDTH 446 0
DWIDTH 5 0
BBX 4 4 1 7
BITMAP
05
02
B9
88
ENDCHAR
STARTCHAR glyph570
ENCODING -1
SWIDTH 453 0
DWIDTH 5 0
BBX 3 4 1 7
BITMAP
94
64
70
98
ENDCHAR
STARTCHAR uni0490.c2sc
ENCODING -1
SWIDTH 405 0
DWIDTH 4 0
BBX 5 8 0 0
BITMAP
0200
0240
7F40
6000
6000
6000
6000
6000
ENDCHAR
STARTCHAR glyph572
ENCODING -1
SWIDTH 404 0
DWIDTH 4 0
BBX 4 4 0 7
BITMAP
08
04
65
2C
ENDCHAR
STARTCHAR glyph573
ENCODING -1
SWIDTH 404 0
DWIDTH 4 0
BBX 4 5 0 7
BITMAP
08
08
14
69
28
ENDCHAR
STARTCHAR zero.numr
ENCODING -1
SWIDTH 329 0
DWIDTH 4 0
BBX 3 4 0 4
BITMAP
78
98
98
78
ENDCHAR
STARTCHAR four.numr
ENCODING -1
SWIDTH 329 0
DWIDTH 4 0
BBX 4 4 0 4
BITMAP
18
28
BD
08
ENDCHAR
STARTCHAR five.numr
ENCODING -1
SWIDTH 329 0
DWIDTH 4 0
BBX 3 4 0 4
BITMAP
7C
78
08
78
ENDCHAR
STARTCHAR six.numr
ENCODING -1
SWIDTH 329 0
DWIDTH 4 0
BBX 4 4 0 4
BITMAP
28
7C
59
78
ENDCHAR
STARTCHAR seven.numr
ENCODING -1
SWIDTH 329 0
DWIDTH 4 0
BBX 3 4 0 4
BITMAP
BC
08
14
20
ENDCHAR
STARTCHAR eight.numr
ENCODING -1
SWIDTH 329 0
DWIDTH 4 0
BBX 3 4 0 4
BITMAP
78
68
68
78
ENDCHAR
STARTCHAR nine.numr
ENCODING -1
SWIDTH 329 0
DWIDTH 4 0
BBX 3 4 0 4
BITMAP
78
6C
1C
34
ENDCHAR
STARTCHAR C.ss06
ENCODING -1
SWIDTH 603 0
DWIDTH 7 0
BBX 6 8 0 0
BITMAP
0B80
2460
3020
6000
6000
3020
2460
0B80
ENDCHAR
STARTCHAR G.ss06
ENCODING -1
SWIDTH 618 0
DWIDTH 7 0
BBX 6 8 0 0
BITMAP
0B90
2460
3010
6000
61F0
3030
2870
0BD0
ENDCHAR
STARTCHAR D.ss06
ENCODING -1
SWIDTH 608 0
DWIDTH 7 0
BBX 5 8 1 0
BITMAP
FD00
C240
C180
C0C0
C0C0
C180
C640
FD00
ENDCHAR
STARTCHAR O.ss06
ENCODING -1
SWIDTH 643 0
DWIDTH 7 0
BBX 7 8 0 0
BITMAP
0B80
2860
3034
6024
6024
3034
2860
0B80
ENDCHAR
STARTCHAR Q.ss06
ENCODING -1
SWIDTH 644 0
DWIDTH 7 0
BBX 7 9 0 -1
BITMAP
0B80
2860
3034
6024
6024
3034
2860
0BD0
0060
ENDCHAR
STARTCHAR one.oldstyle.pnum
ENCODING -1
SWIDTH 421 0
DWIDTH 5 0
BBX 3 6 1 0
BITMAP
64
A4
24
24
24
24
ENDCHAR
STARTCHAR two.oldstyle.pnum
ENCODING -1
SWIDTH 492 0
DWIDTH 5 0
BBX 4 6 1 0
BITMAP
7D
C6
09
28
A0
FF
ENDCHAR
STARTCHAR three.oldstyle.pnum
ENCODING -1
SWIDTH 474 0
DWIDTH 5 0
BBX 5 8 0 -2
BITMAP
BF80
0200
0900
1E00
0240
0180
4240
7E00
ENDCHAR
STARTCHAR four.oldstyle.pnum
ENCODING -1
SWIDTH 524 0
DWIDTH 6 0
BBX 6 8 0 -2
BITMAP
0280
0780
0980
1580
2180
BFD0
0180
0180
ENDCHAR
STARTCHAR five.oldstyle.pnum
ENCODING -1
SWIDTH 483 0
DWIDTH 5 0
BBX 5 8 0 -2
BITMAP
3F80
3000
2000
7E00
1280
0180
1280
2E00
ENDCHAR
STARTCHAR seven.oldstyle.pnum
ENCODING -1
SWIDTH 458 0
DWIDTH 5 0
BBX 5 8 0 -2
BITMAP
BF80
0240
0300
0600
0900
0C00
1400
2000
ENDCHAR
STARTCHAR glyph592
ENCODING -1
SWIDTH 402 0
DWIDTH 4 0
BBX 4 5 0 7
BITMAP
25
18
00
69
28
ENDCHAR
STARTCHAR glyph593
ENCODING -1
SWIDTH 183 0
DWIDTH 2 0
BBX 2 3 0 -2
BITMAP
90
90
90
ENDCHAR
STARTCHAR OE.c2sc
ENCODING -1
SWIDTH 714 0
DWIDTH 8 0
BBX 8 6 0 0
BITMAP
1FFD
7080
60FC
6080
7080
1FFE
ENDCHAR
STARTCHAR nine.oldstyle.pnum
ENCODING -1
SWIDTH 520 0
DWIDTH 6 0
BBX 5 8 0 -2
BITMAP
1F40
3180
60C0
31C0
1FC0
00C0
0280
2E00
ENDCHAR
STARTCHAR glyph596
ENCODING -1
SWIDTH 234 0
DWIDTH 3 0
BBX 2 3 0 -2
BITMAP
20
60
D0
ENDCHAR
STARTCHAR three.oldstyle
ENCODING -1
SWIDTH 494 0
DWIDTH 5 0
BBX 5 8 0 -2
BITMAP
7F80
0240
0900
0E00
0280
0180
4280
7E00
ENDCHAR
STARTCHAR five.oldstyle
ENCODING -1
SWIDTH 494 0
DWIDTH 5 0
BBX 4 8 1 -2
BITMAP
BE
C0
80
FC
46
02
4A
B8
ENDCHAR
STARTCHAR four.oldstyle
ENCODING -1
SWIDTH 494 0
DWIDTH 5 0
BBX 6 8 0 -2
BITMAP
0240
0740
0A40
2640
6240
BFD0
0240
0240
ENDCHAR
STARTCHAR two.oldstyle
ENCODING -1
SWIDTH 494 0
DWIDTH 5 0
BBX 5 6 0 0
BITMAP
1E00
6280
0240
0A00
2800
7F80
ENDCHAR
STARTCHAR seven.oldstyle
ENCODING -1
SWIDTH 494 0
DWIDTH 5 0
BBX 5 8 0 -2
BITMAP
7FC0
0180
0240
0200
0500
0800
1800
2400
ENDCHAR
STARTCHAR zero.oldstyle
ENCODING -1
SWIDTH 494 0
DWIDTH 5 0
BBX 5 6 0 0
BITMAP
2E40
6180
90C0
90C0
6180
2E40
ENDCHAR
STARTCHAR six.oldstyle
ENCODING -1
SWIDTH 494 0
DWIDTH 5 0
BBX 5 8 0 0
BITMAP
0B00
2400
2000
7F40
7180
6080
3180
1E00
ENDCHAR
STARTCHAR nine.oldstyle
ENCODING -1
SWIDTH 494 0
DWIDTH 5 0
BBX 5 8 0 -2
BITMAP
2E00
6180
60C0
61C0
2EC0
0180
0240
3E00
ENDCHAR
STARTCHAR eight.oldstyle
ENCODING -1
SWIDTH 494 0
DWIDTH 5 0
BBX 5 8 0 0
BITMAP
2E00
3280
3180
2F00
2180
6180
6180
2E00
ENDCHAR
STARTCHAR one.oldstyle
ENCODING -1
SWIDTH 494 0
DWIDTH 5 0
BBX 3 6 1 0
BITMAP
28
A8
18
18
18
18
ENDCHAR
STARTCHAR glyph607
ENCODING -1
SWIDTH 237 0
DWIDTH 3 0
BBX 2 8 0 -2
BITMAP
20
20
20
20
20
20
60
D0
ENDCHAR
STARTCHAR glyph608
ENCODING -1
SWIDTH 238 0
DWIDTH 3 0
BBX 2 8 0 -2
BITMAP
20
20
20
20
20
20
60
D0
ENDCHAR
STARTCHAR glyph609
ENCODING -1
SWIDTH 235 0
DWIDTH 3 0
BBX 2 6 0 0
BITMAP
60
60
60
60
60
60
ENDCHAR
STARTCHAR glyph610
ENCODING -1
SWIDTH 235 0
DWIDTH 3 0
BBX 2 8 0 -2
BITMAP
60
60
60
60
60
70
80
A0
ENDCHAR
STARTCHAR glyph611
ENCODING -1
SWIDTH 235 0
DWIDTH 3 0
BBX 2 6 0 0
BITMAP
60
60
60
60
60
60
ENDCHAR
STARTCHAR germandbls.sc
ENCODING -1
SWIDTH 475 0
DWIDTH 5 0
BBX 5 6 0 0
BITMAP
2E00
6300
6500
6B40
6180
6F40
ENDCHAR
STARTCHAR zero.oldstyle.pnum
ENCODING -1
SWIDTH 545 0
DWIDTH 6 0
BBX 6 6 0 0
BITMAP
1F40
30C0
6090
6090
30C0
1F40
ENDCHAR
STARTCHAR seven.pnum
ENCODING -1
SWIDTH 458 0
DWIDTH 5 0
BBX 5 8 0 0
BITMAP
BF80
0240
0200
0600
0900
0C00
1800
2400
ENDCHAR
STARTCHAR b.ss06
ENCODING -1
SWIDTH 493 0
DWIDTH 5 0
BBX 5 8 0 0
BITMAP
6000
6000
6F40
7180
60C0
60C0
7180
6F40
ENDCHAR
STARTCHAR c.ss06
ENCODING -1
SWIDTH 460 0
DWIDTH 5 0
BBX 5 6 0 0
BITMAP
2E00
6180
6000
6000
6180
2E00
ENDCHAR
STARTCHAR d.ss06
ENCODING -1
SWIDTH 503 0
DWIDTH 6 0
BBX 5 8 0 0
BITMAP
0080
0080
2E80
7180
6080
6080
7180
2E80
ENDCHAR
STARTCHAR g.ss06
ENCODING -1
SWIDTH 500 0
DWIDTH 6 0
BBX 5 8 0 -2
BITMAP
2E80
7180
6080
6080
7180
2E80
0180
2E00
ENDCHAR
STARTCHAR o.ss06
ENCODING -1
SWIDTH 508 0
DWIDTH 6 0
BBX 5 6 0 0
BITMAP
1E00
7180
60C0
60C0
7180
1F40
ENDCHAR
STARTCHAR p.ss06
ENCODING -1
SWIDTH 500 0
DWIDTH 6 0
BBX 5 8 0 -2
BITMAP
6F40
6180
60C0
60C0
6180
7F40
6000
6000
ENDCHAR
STARTCHAR q.ss06
ENCODING -1
SWIDTH 508 0
DWIDTH 6 0
BBX 5 8 0 -2
BITMAP
2E80
7180
6080
6080
7180
2E80
0080
0080
ENDCHAR
STARTCHAR e.ss07
ENCODING -1
SWIDTH 468 0
DWIDTH 5 0
BBX 5 6 0 0
BITMAP
1E00
6180
7F80
6000
7400
1F40
ENDCHAR
STARTCHAR g.ss07
ENCODING -1
SWIDTH 492 0
DWIDTH 5 0
BBX 5 8 0 -2
BITMAP
2E80
6180
6180
6180
6180
2E80
0280
2E00
ENDCHAR
STARTCHAR one.pnum
ENCODING -1
SWIDTH 382 0
DWIDTH 4 0
BBX 3 8 0 0
BITMAP
18
6C
0C
0C
0C
0C
0C
0C
ENDCHAR
STARTCHAR ampersand.c2sc
ENCODING -1
SWIDTH 526 0
DWIDTH 6 0
BBX 5 6 0 0
BITMAP
2D00
3600
2D00
2980
6280
2E80
ENDCHAR
STARTCHAR Lslash.c2sc
ENCODING -1
SWIDTH 411 0
DWIDTH 5 0
BBX 5 6 0 0
BITMAP
6000
6000
7800
A000
6000
7F40
ENDCHAR
STARTCHAR AE.c2sc
ENCODING -1
SWIDTH 676 0
DWIDTH 7 0
BBX 7 6 0 0
BITMAP
07F8
0A80
09F8
2580
3F80
A1FC
ENDCHAR
STARTCHAR Thorn.c2sc
ENCODING -1
SWIDTH 440 0
DWIDTH 5 0
BBX 5 6 0 0
BITMAP
6000
7E00
6240
6240
7E00
6000
ENDCHAR
STARTCHAR Oslash.c2sc
ENCODING -1
SWIDTH 519 0
DWIDTH 6 0
BBX 5 6 0 0
BITMAP
1F80
72C0
6680
6880
75C0
3F40
ENDCHAR
STARTCHAR Hbar.c2sc
ENCODING -1
SWIDTH 533 0
DWIDTH 6 0
BBX 6 6 0 0
BITMAP
6080
BFE0
6080
7FC0
6080
6080
ENDCHAR
STARTCHAR Eng.c2sc
ENCODING -1
SWIDTH 533 0
DWIDTH 6 0
BBX 5 8 0 -2
BITMAP
7080
7880
6880
6280
62C0
60C0
00C0
0280
ENDCHAR
STARTCHAR Dcroat.c2sc
ENCODING -1
SWIDTH 492 0
DWIDTH 5 0
BBX 6 6 -1 0
BITMAP
1F80
18A0
7E20
1820
18A0
1F80
ENDCHAR
STARTCHAR Eth.c2sc
ENCODING -1
SWIDTH 492 0
DWIDTH 5 0
BBX 6 6 -1 0
BITMAP
1F80
18A0
7E20
1820
18A0
1F80
ENDCHAR
STARTCHAR Tbar.c2sc
ENCODING -1
SWIDTH 456 0
DWIDTH 5 0
BBX 5 6 0 0
BITMAP
BF80
0C00
3F00
0C00
0C00
0C00
ENDCHAR
STARTCHAR Agrave.c2sc
ENCODING -1
SWIDTH 501 0
DWIDTH 6 0
BBX 5 9 0 0
BITMAP
2800
0800
0000
0900
1E00
2700
3240
7F80
90C0
ENDCHAR
STARTCHAR Aacute.c2sc
ENCODING -1
SWIDTH 501 0
DWIDTH 6 0
BBX 5 9 0 0
BITMAP
0300
0500
0000
0900
1E00
2700
3240
7F80
90C0
ENDCHAR
STARTCHAR Acircumflex.c2sc
ENCODING -1
SWIDTH 501 0
DWIDTH 6 0
BBX 5 9 0 0
BITMAP
0900
1600
0000
0900
1E00
2700
3240
7F80
90C0
ENDCHAR
STARTCHAR Atilde.c2sc
ENCODING -1
SWIDTH 501 0
DWIDTH 6 0
BBX 5 9 0 0
BITMAP
1940
2700
0000
0900
1E00
2700
3240
7F80
90C0
ENDCHAR
STARTCHAR Adieresis.c2sc
ENCODING -1
SWIDTH 501 0
DWIDTH 6 0
BBX 5 8 0 0
BITMAP
2240
0000
0900
1E00
2700
3240
7F80
90C0
ENDCHAR
STARTCHAR Aring.c2sc
ENCODING -1
SWIDTH 501 0
DWIDTH 6 0
BBX 5 9 0 0
BITMAP
1A00
1A00
0000
0900
1E00
2700
3240
7F80
90C0
ENDCHAR
STARTCHAR Aringacute.c2sc
ENCODING -1
SWIDTH 501 0
DWIDTH 6 0
BBX 5 10 0 0
BITMAP
0200
0500
0900
0900
0900
1E00
2700
3240
7F80
90C0
ENDCHAR
STARTCHAR Ccedilla.c2sc
ENCODING -1
SWIDTH 490 0
DWIDTH 5 0
BBX 5 8 0 -2
BITMAP
2F40
6180
6040
6040
6180
2F40
0400
0A00
ENDCHAR
STARTCHAR Egrave.c2sc
ENCODING -1
SWIDTH 428 0
DWIDTH 5 0
BBX 5 9 0 0
BITMAP
2400
0800
0000
7F40
6000
7F00
6000
6000
7F40
ENDCHAR
STARTCHAR Eacute.c2sc
ENCODING -1
SWIDTH 428 0
DWIDTH 5 0
BBX 5 9 0 0
BITMAP
0700
0900
0000
7F40
6000
7F00
6000
6000
7F40
ENDCHAR
STARTCHAR Ecircumflex.c2sc
ENCODING -1
SWIDTH 428 0
DWIDTH 5 0
BBX 5 9 0 0
BITMAP
1D00
2600
0000
7F40
6000
7F00
6000
6000
7F40
ENDCHAR
STARTCHAR Edieresis.c2sc
ENCODING -1
SWIDTH 428 0
DWIDTH 5 0
BBX 5 8 0 0
BITMAP
2240
0000
7F40
6000
7F00
6000
6000
7F40
ENDCHAR
STARTCHAR Igrave.c2sc
ENCODING -1
SWIDTH 221 0
DWIDTH 2 0
BBX 2 9 0 0
BITMAP
C0
50
00
60
60
60
60
60
60
ENDCHAR
STARTCHAR Iacute.c2sc
ENCODING -1
SWIDTH 221 0
DWIDTH 2 0
BBX 3 9 0 0
BITMAP
28
20
00
60
60
60
60
60
60
ENDCHAR
STARTCHAR Icircumflex.c2sc
ENCODING -1
SWIDTH 221 0
DWIDTH 2 0
BBX 3 9 0 0
BITMAP
60
94
00
60
60
60
60
60
60
ENDCHAR
STARTCHAR Idieresis.c2sc
ENCODING -1
SWIDTH 221 0
DWIDTH 2 0
BBX 4 8 -1 0
BITMAP
62
00
18
18
18
18
18
18
ENDCHAR
STARTCHAR Ntilde.c2sc
ENCODING -1
SWIDTH 533 0
DWIDTH 6 0
BBX 5 9 0 0
BITMAP
1940
2740
0000
7080
7880
6880
6680
62C0
60C0
ENDCHAR
STARTCHAR Ograve.c2sc
ENCODING -1
SWIDTH 519 0
DWIDTH 6 0
BBX 5 9 0 0
BITMAP
1800
0900
0000
1F40
71C0
6080
6080
71C0
1F40
ENDCHAR
STARTCHAR Oacute.c2sc
ENCODING -1
SWIDTH 519 0
DWIDTH 6 0
BBX 5 9 0 0
BITMAP
0340
0500
0000
1F40
71C0
6080
6080
71C0
1F40
ENDCHAR
STARTCHAR Ocircumflex.c2sc
ENCODING -1
SWIDTH 519 0
DWIDTH 6 0
BBX 5 9 0 0
BITMAP
0A00
1600
0000
1F40
71C0
6080
6080
71C0
1F40
ENDCHAR
STARTCHAR Otilde.c2sc
ENCODING -1
SWIDTH 519 0
DWIDTH 6 0
BBX 5 9 0 0
BITMAP
1940
2700
0000
1F40
71C0
6080
6080
71C0
1F40
ENDCHAR
STARTCHAR Odieresis.c2sc
ENCODING -1
SWIDTH 519 0
DWIDTH 6 0
BBX 5 8 0 0
BITMAP
2540
0000
1F40
71C0
6080
6080
71C0
1F40
ENDCHAR
STARTCHAR Ugrave.c2sc
ENCODING -1
SWIDTH 488 0
DWIDTH 5 0
BBX 5 9 0 0
BITMAP
2800
0800
0000
6080
6080
6080
6080
6180
2E40
ENDCHAR
STARTCHAR Uacute.c2sc
ENCODING -1
SWIDTH 488 0
DWIDTH 5 0
BBX 5 9 0 0
BITMAP
0700
0900
0000
6080
6080
6080
6080
6180
2E40
ENDCHAR
STARTCHAR Ucircumflex.c2sc
ENCODING -1
SWIDTH 488 0
DWIDTH 5 0
BBX 5 9 0 0
BITMAP
0D00
1600
0000
6080
6080
6080
6080
6180
2E40
ENDCHAR
STARTCHAR Udieresis.c2sc
ENCODING -1
SWIDTH 488 0
DWIDTH 5 0
BBX 5 8 0 0
BITMAP
3240
0000
6080
6080
6080
6080
6180
2E40
ENDCHAR
STARTCHAR Yacute.c2sc
ENCODING -1
SWIDTH 458 0
DWIDTH 5 0
BBX 5 9 0 0
BITMAP
0600
0900
0000
9180
3300
2A00
0C00
0C00
0C00
ENDCHAR
STARTCHAR Amacron.c2sc
ENCODING -1
SWIDTH 501 0
DWIDTH 6 0
BBX 5 8 0 0
BITMAP
2F40
0000
0900
1E00
2700
3240
7F80
90C0
ENDCHAR
STARTCHAR Abreve.c2sc
ENCODING -1
SWIDTH 501 0
DWIDTH 6 0
BBX 5 9 0 0
BITMAP
2240
1E00
0000
0900
1E00
2700
3240
7F80
90C0
ENDCHAR
STARTCHAR Aogonek.c2sc
ENCODING -1
SWIDTH 501 0
DWIDTH 6 0
BBX 5 8 0 -2
BITMAP
0900
1E00
2700
3240
7F80
90C0
0180
01C0
ENDCHAR
STARTCHAR Cacute.c2sc
ENCODING -1
SWIDTH 490 0
DWIDTH 5 0
BBX 5 9 0 0
BITMAP
0300
0900
0000
2F40
6180
6040
6040
6180
2F40
ENDCHAR
STARTCHAR Ccircumflex.c2sc
ENCODING -1
SWIDTH 490 0
DWIDTH 5 0
BBX 5 9 0 0
BITMAP
0900
1600
0000
2F40
6180
6040
6040
6180
2F40
ENDCHAR
STARTCHAR Cdotaccent.c2sc
ENCODING -1
SWIDTH 490 0
DWIDTH 5 0
BBX 5 8 0 0
BITMAP
0900
0000
2F40
6180
6040
6040
6180
2F40
ENDCHAR
STARTCHAR Ccaron.c2sc
ENCODING -1
SWIDTH 490 0
DWIDTH 5 0
BBX 5 9 0 0
BITMAP
1600
0900
0000
2F40
6180
6040
6040
6180
2F40
ENDCHAR
STARTCHAR Dcaron.c2sc
ENCODING -1
SWIDTH 492 0
DWIDTH 5 0
BBX 5 9 0 0
BITMAP
2600
1C00
0000
7E00
6280
6080
6080
6280
7E00
ENDCHAR
STARTCHAR Emacron.c2sc
ENCODING -1
SWIDTH 428 0
DWIDTH 5 0
BBX 5 8 0 0
BITMAP
3F00
0000
7F40
6000
7F00
6000
6000
7F40
ENDCHAR
STARTCHAR Ebreve.c2sc
ENCODING -1
SWIDTH 428 0
DWIDTH 5 0
BBX 5 9 0 0
BITMAP
3200
2E00
0000
7F40
6000
7F00
6000
6000
7F40
ENDCHAR
STARTCHAR Edotaccent.c2sc
ENCODING -1
SWIDTH 428 0
DWIDTH 5 0
BBX 5 8 0 0
BITMAP
0C00
0000
7F40
6000
7F00
6000
6000
7F40
ENDCHAR
STARTCHAR Eogonek.c2sc
ENCODING -1
SWIDTH 428 0
DWIDTH 5 0
BBX 5 8 0 -2
BITMAP
7F40
6000
7F00
6000
6000
7F40
0600
0700
ENDCHAR
STARTCHAR Ecaron.c2sc
ENCODING -1
SWIDTH 428 0
DWIDTH 5 0
BBX 5 9 0 0
BITMAP
2600
0C00
0000
7F40
6000
7F00
6000
6000
7F40
ENDCHAR
STARTCHAR Gcircumflex.c2sc
ENCODING -1
SWIDTH 509 0
DWIDTH 6 0
BBX 5 9 0 0
BITMAP
0D00
1600
0000
2F40
6180
6000
63C0
70C0
1F80
ENDCHAR
STARTCHAR Gbreve.c2sc
ENCODING -1
SWIDTH 509 0
DWIDTH 6 0
BBX 5 9 0 0
BITMAP
2240
1E00
0000
2F40
6180
6000
63C0
70C0
1F80
ENDCHAR
STARTCHAR Gdotaccent.c2sc
ENCODING -1
SWIDTH 509 0
DWIDTH 6 0
BBX 5 8 0 0
BITMAP
0900
0000
2F40
6180
6000
63C0
70C0
1F80
ENDCHAR
STARTCHAR uni0122.c2sc
ENCODING -1
SWIDTH 509 0
DWIDTH 6 0
BBX 5 9 0 -3
BITMAP
2F40
6180
6000
63C0
70C0
1F80
0000
0800
0800
ENDCHAR
STARTCHAR Hcircumflex.c2sc
ENCODING -1
SWIDTH 533 0
DWIDTH 6 0
BBX 5 9 0 0
BITMAP
0A00
1600
0000
6080
6080
7FC0
6080
6080
6080
ENDCHAR
STARTCHAR Itilde.c2sc
ENCODING -1
SWIDTH 221 0
DWIDTH 2 0
BBX 4 9 -1 0
BITMAP
36
59
00
18
18
18
18
18
18
ENDCHAR
STARTCHAR Imacron.c2sc
ENCODING -1
SWIDTH 221 0
DWIDTH 2 0
BBX 4 8 -1 0
BITMAP
7E
00
18
18
18
18
18
18
ENDCHAR
STARTCHAR Ibreve.c2sc
ENCODING -1
SWIDTH 221 0
DWIDTH 2 0
BBX 4 9 -1 0
BITMAP
62
2D
00
18
18
18
18
18
18
ENDCHAR
STARTCHAR Iogonek.c2sc
ENCODING -1
SWIDTH 221 0
DWIDTH 2 0
BBX 2 8 0 -2
BITMAP
60
60
60
60
60
70
90
A0
ENDCHAR
STARTCHAR Idotaccent.c2sc
ENCODING -1
SWIDTH 221 0
DWIDTH 2 0
BBX 2 8 0 0
BITMAP
60
00
60
60
60
60
60
60
ENDCHAR
STARTCHAR Jcircumflex.c2sc
ENCODING -1
SWIDTH 419 0
DWIDTH 5 0
BBX 5 9 0 0
BITMAP
0700
0980
0000
0300
0300
0300
0300
9700
7D00
ENDCHAR
STARTCHAR uni0136.c2sc
ENCODING -1
SWIDTH 473 0
DWIDTH 5 0
BBX 5 9 0 -3
BITMAP
6280
6600
6C00
7900
6340
6180
0000
0C00
0800
ENDCHAR
STARTCHAR Lacute.c2sc
ENCODING -1
SWIDTH 411 0
DWIDTH 5 0
BBX 5 9 0 0
BITMAP
2800
2000
0000
6000
6000
6000
6000
6000
7F40
ENDCHAR
STARTCHAR uni013B.c2sc
ENCODING -1
SWIDTH 411 0
DWIDTH 5 0
BBX 5 9 0 -3
BITMAP
6000
6000
6000
6000
6000
7F40
0000
0C00
0800
ENDCHAR
STARTCHAR Lcaron.c2sc
ENCODING -1
SWIDTH 411 0
DWIDTH 5 0
BBX 5 6 0 0
BITMAP
6500
6800
6000
6000
6000
7F40
ENDCHAR
STARTCHAR Ldot.c2sc
ENCODING -1
SWIDTH 411 0
DWIDTH 5 0
BBX 5 6 0 0
BITMAP
6000
6000
6900
6000
6000
7F40
ENDCHAR
STARTCHAR Nacute.c2sc
ENCODING -1
SWIDTH 533 0
DWIDTH 6 0
BBX 5 9 0 0
BITMAP
0340
0600
0000
7080
7880
6880
6680
62C0
60C0
ENDCHAR
STARTCHAR uni0145.c2sc
ENCODING -1
SWIDTH 533 0
DWIDTH 6 0
BBX 5 9 0 -3
BITMAP
7080
7880
6880
6680
62C0
60C0
0000
0900
0800
ENDCHAR
STARTCHAR Ncaron.c2sc
ENCODING -1
SWIDTH 533 0
DWIDTH 6 0
BBX 5 9 0 0
BITMAP
1A00
0900
0000
7080
7880
6880
6680
62C0
60C0
ENDCHAR
STARTCHAR Omacron.c2sc
ENCODING -1
SWIDTH 519 0
DWIDTH 6 0
BBX 5 8 0 0
BITMAP
2F40
0000
1F40
71C0
6080
6080
71C0
1F40
ENDCHAR
STARTCHAR Obreve.c2sc
ENCODING -1
SWIDTH 519 0
DWIDTH 6 0
BBX 5 9 0 0
BITMAP
2640
1E00
0000
1F40
71C0
6080
6080
71C0
1F40
ENDCHAR
STARTCHAR Ohungarumlaut.c2sc
ENCODING -1
SWIDTH 519 0
DWIDTH 6 0
BBX 5 9 0 0
BITMAP
0A80
0A00
0000
1F40
71C0
6080
6080
71C0
1F40
ENDCHAR
STARTCHAR Racute.c2sc
ENCODING -1
SWIDTH 465 0
DWIDTH 5 0
BBX 5 9 0 0
BITMAP
0600
0800
0000
7E00
6180
6180
7F00
6300
6180
ENDCHAR
STARTCHAR uni0156.c2sc
ENCODING -1
SWIDTH 465 0
DWIDTH 5 0
BBX 5 9 0 -3
BITMAP
7E00
6180
6180
7F00
6300
6180
0000
0C00
0800
ENDCHAR
STARTCHAR Rcaron.c2sc
ENCODING -1
SWIDTH 465 0
DWIDTH 5 0
BBX 5 9 0 0
BITMAP
2600
0C00
0000
7E00
6180
6180
7F00
6300
6180
ENDCHAR
STARTCHAR Sacute.c2sc
ENCODING -1
SWIDTH 453 0
DWIDTH 5 0
BBX 5 9 0 0
BITMAP
0700
0900
0000
2E00
6240
3900
0640
6280
2E00
ENDCHAR
STARTCHAR Scircumflex.c2sc
ENCODING -1
SWIDTH 453 0
DWIDTH 5 0
BBX 5 9 0 0
BITMAP
0D00
2600
0000
2E00
6240
3900
0640
6280
2E00
ENDCHAR
STARTCHAR Scedilla.c2sc
ENCODING -1
SWIDTH 453 0
DWIDTH 5 0
BBX 5 8 0 -2
BITMAP
2E00
6240
3900
0640
6280
2E00
0400
0900
ENDCHAR
STARTCHAR Scaron.c2sc
ENCODING -1
SWIDTH 453 0
DWIDTH 5 0
BBX 5 9 0 0
BITMAP
2600
0C00
0000
2E00
6240
3900
0640
6280
2E00
ENDCHAR
STARTCHAR uni021A.c2sc
ENCODING -1
SWIDTH 456 0
DWIDTH 5 0
BBX 5 9 0 -3
BITMAP
BF80
0C00
0C00
0C00
0C00
0C00
0000
0C00
0800
ENDCHAR
STARTCHAR Tcaron.c2sc
ENCODING -1
SWIDTH 456 0
DWIDTH 5 0
BBX 5 9 0 0
BITMAP
2600
0C00
0000
BF80
0C00
0C00
0C00
0C00
0C00
ENDCHAR
STARTCHAR uni0162.c2sc
ENCODING -1
SWIDTH 456 0
DWIDTH 5 0
BBX 5 8 0 -2
BITMAP
BF80
0C00
0C00
0C00
0C00
0C00
0400
0D00
ENDCHAR
STARTCHAR Utilde.c2sc
ENCODING -1
SWIDTH 488 0
DWIDTH 5 0
BBX 5 9 0 0
BITMAP
2940
2700
0000
6080
6080
6080
6080
6180
2E40
ENDCHAR
STARTCHAR Umacron.c2sc
ENCODING -1
SWIDTH 488 0
DWIDTH 5 0
BBX 5 8 0 0
BITMAP
3F40
0000
6080
6080
6080
6080
6180
2E40
ENDCHAR
STARTCHAR Ubreve.c2sc
ENCODING -1
SWIDTH 488 0
DWIDTH 5 0
BBX 5 9 0 0
BITMAP
3240
1E00
0000
6080
6080
6080
6080
6180
2E40
ENDCHAR
STARTCHAR Uring.c2sc
ENCODING -1
SWIDTH 488 0
DWIDTH 5 0
BBX 5 9 0 0
BITMAP
1900
1A00
0000
6080
6080
6080
6080
6180
2E40
ENDCHAR
STARTCHAR Uhungarumlaut.c2sc
ENCODING -1
SWIDTH 488 0
DWIDTH 5 0
BBX 5 9 0 0
BITMAP
0E80
1A00
0000
6080
6080
6080
6080
6180
2E40
ENDCHAR
STARTCHAR Uogonek.c2sc
ENCODING -1
SWIDTH 488 0
DWIDTH 5 0
BBX 5 8 0 -2
BITMAP
6080
6080
6080
6080
6180
2F00
0900
0A00
ENDCHAR
STARTCHAR Wcircumflex.c2sc
ENCODING -1
SWIDTH 655 0
DWIDTH 7 0
BBX 7 9 0 0
BITMAP
0340
0580
0000
934C
6358
2594
28A4
28B0
1860
ENDCHAR
STARTCHAR Ycircumflex.c2sc
ENCODING -1
SWIDTH 458 0
DWIDTH 5 0
BBX 5 9 0 0
BITMAP
1D00
2600
0000
9180
3300
2A00
0C00
0C00
0C00
ENDCHAR
STARTCHAR Ydieresis.c2sc
ENCODING -1
SWIDTH 458 0
DWIDTH 5 0
BBX 5 8 0 0
BITMAP
2200
0000
9180
3300
2A00
0C00
0C00
0C00
ENDCHAR
STARTCHAR Zacute.c2sc
ENCODING -1
SWIDTH 454 0
DWIDTH 5 0
BBX 5 9 0 0
BITMAP
0600
0900
0000
BF40
0200
0900
1800
2000
BF80
ENDCHAR
STARTCHAR Zdotaccent.c2sc
ENCODING -1
SWIDTH 454 0
DWIDTH 5 0
BBX 5 8 0 0
BITMAP
0C00
0000
BF40
0200
0900
1800
2000
BF80
ENDCHAR
STARTCHAR Zcaron.c2sc
ENCODING -1
SWIDTH 454 0
DWIDTH 5 0
BBX 5 9 0 0
BITMAP
2600
0C00
0000
BF40
0200
0900
1800
2000
BF80
ENDCHAR
STARTCHAR two.pnum
ENCODING -1
SWIDTH 493 0
DWIDTH 5 0
BBX 5 8 0 0
BITMAP
2E00
6280
5180
0240
0600
1800
2400
7FC0
ENDCHAR
STARTCHAR three.pnum
ENCODING -1
SWIDTH 493 0
DWIDTH 5 0
BBX 5 8 0 0
BITMAP
2E00
6280
1240
0F00
0280
1180
6280
2E00
ENDCHAR
STARTCHAR four.pnum
ENCODING -1
SWIDTH 493 0
DWIDTH 5 0
BBX 5 8 0 0
BITMAP
0340
0B40
0A40
2640
6240
BFC0
0240
0240
ENDCHAR
STARTCHAR five.pnum
ENCODING -1
SWIDTH 493 0
DWIDTH 5 0
BBX 4 8 1 0
BITMAP
BE
80
C0
FD
46
03
C6
7D
ENDCHAR
STARTCHAR six.pnum
ENCODING -1
SWIDTH 503 0
DWIDTH 6 0
BBX 5 8 0 0
BITMAP
0B00
2800
3000
3F40
75C0
20C0
3580
1F40
ENDCHAR
STARTCHAR eight.pnum
ENCODING -1
SWIDTH 513 0
DWIDTH 6 0
BBX 5 8 0 0
BITMAP
1F40
3180
3180
1F00
3180
60C0
3180
1F40
ENDCHAR
STARTCHAR nine.pnum
ENCODING -1
SWIDTH 503 0
DWIDTH 6 0
BBX 5 8 0 0
BITMAP
2E00
3240
6180
6180
7280
2E80
0740
2D00
ENDCHAR
STARTCHAR zero.pnum
ENCODING -1
SWIDTH 513 0
DWIDTH 6 0
BBX 5 8 0 0
BITMAP
1E00
3180
60C0
60C0
60C0
60C0
3180
1E00
ENDCHAR
STARTCHAR G_acutecomb.ccmp
ENCODING -1
SWIDTH 590 0
DWIDTH 7 0
BBX 6 11 0 0
BITMAP
0240
0600
0000
1F80
3490
6050
6000
62E0
6060
3460
1B90
ENDCHAR
STARTCHAR g_acutecomb.ccmp
ENCODING -1
SWIDTH 492 0
DWIDTH 5 0
BBX 5 11 0 -2
BITMAP
0700
0900
0000
2E80
6180
5180
5180
6180
2E80
0180
2E00
ENDCHAR
STARTCHAR N_gravecomb.ccmp
ENCODING -1
SWIDTH 619 0
DWIDTH 7 0
BBX 5 11 1 0
BITMAP
3400
1800
0000
C0C0
E0C0
E0C0
98C0
88C0
86C0
82C0
81C0
ENDCHAR
STARTCHAR n_gravecomb.ccmp
ENCODING -1
SWIDTH 483 0
DWIDTH 5 0
BBX 5 9 0 0
BITMAP
2800
0800
0000
6F40
7280
6180
6180
6180
6180
ENDCHAR
STARTCHAR A_uni030F.ccmp
ENCODING -1
SWIDTH 576 0
DWIDTH 6 0
BBX 6 11 0 0
BITMAP
3A00
1A00
0000
0600
0B00
0A40
1980
24C0
3FD0
6060
9030
ENDCHAR
STARTCHAR a_uni030F.ccmp
ENCODING -1
SWIDTH 479 0
DWIDTH 5 0
BBX 5 9 0 0
BITMAP
6800
2A00
0000
2E00
1240
2F80
6180
6280
2E80
ENDCHAR
STARTCHAR E_uni030F.ccmp
ENCODING -1
SWIDTH 496 0
DWIDTH 5 0
BBX 5 11 0 0
BITMAP
7900
2A00
0000
3FC0
2000
2000
3F80
2000
2000
2000
3FC0
ENDCHAR
STARTCHAR e_uni030F.ccmp
ENCODING -1
SWIDTH 468 0
DWIDTH 5 0
BBX 5 9 0 0
BITMAP
6C00
2900
0000
2E00
6180
7F80
6000
6000
2F40
ENDCHAR
STARTCHAR I_uni030F.ccmp
ENCODING -1
SWIDTH 250 0
DWIDTH 3 0
BBX 3 11 -1 0
BITMAP
A8
28
00
0C
0C
0C
0C
0C
0C
0C
0C
ENDCHAR
STARTCHAR dotlessi_uni030F.ccmp
ENCODING -1
SWIDTH 234 0
DWIDTH 3 0
BBX 3 9 -1 0
BITMAP
A8
28
00
18
18
18
18
18
18
ENDCHAR
STARTCHAR O_uni030F.ccmp
ENCODING -1
SWIDTH 600 0
DWIDTH 7 0
BBX 6 11 0 0
BITMAP
2A00
0A00
0000
1B80
34A0
6020
6030
6030
6030
34A0
1F80
ENDCHAR
STARTCHAR o_uni030F.ccmp
ENCODING -1
SWIDTH 501 0
DWIDTH 6 0
BBX 5 9 0 0
BITMAP
6C00
2900
0000
2E40
6180
60C0
60C0
6180
2E40
ENDCHAR
STARTCHAR R_uni030F.ccmp
ENCODING -1
SWIDTH 530 0
DWIDTH 6 0
BBX 6 11 0 0
BITMAP
6900
2A00
0000
3F80
20D0
2090
20D0
3F80
2240
20C0
2090
ENDCHAR
STARTCHAR r_uni030F.ccmp
ENCODING -1
SWIDTH 304 0
DWIDTH 3 0
BBX 4 9 -1 0
BITMAP
79
1A
00
1B
1C
18
18
18
18
ENDCHAR
STARTCHAR U_uni030F.ccmp
ENCODING -1
SWIDTH 561 0
DWIDTH 6 0
BBX 6 11 0 0
BITMAP
3900
1A00
0000
6060
6060
6060
6060
6060
6090
3090
1F80
ENDCHAR
STARTCHAR u_uni030F.ccmp
ENCODING -1
SWIDTH 483 0
DWIDTH 5 0
BBX 5 9 0 0
BITMAP
6C00
2900
0000
6180
6180
6180
6180
6280
2E80
ENDCHAR
STARTCHAR Upsilon1_acutecomb.ccmp
ENCODING -1
SWIDTH 514 0
DWIDTH 6 0
BBX 8 9 -2 0
BITMAP
6000
560A
024C
0198
00F0
00A0
0060
0060
0060
ENDCHAR
STARTCHAR B_dotbelowcomb.ccmp
ENCODING -1
SWIDTH 545 0
DWIDTH 6 0
BBX 5 10 1 -2
BITMAP
FE00
8300
8300
FE00
8340
8240
8340
FE00
0000
2400
ENDCHAR
STARTCHAR b_dotbelowcomb.ccmp
ENCODING -1
SWIDTH 493 0
DWIDTH 5 0
BBX 5 10 0 -2
BITMAP
6000
6000
6F40
7180
60C0
60C0
7180
6F40
0000
0900
ENDCHAR
STARTCHAR D_dotbelowcomb.ccmp
ENCODING -1
SWIDTH 570 0
DWIDTH 6 0
BBX 5 10 1 -2
BITMAP
FD00
8740
8140
8180
8180
8140
8740
FD00
0000
2400
ENDCHAR
STARTCHAR d_dotbelowcomb.ccmp
ENCODING -1
SWIDTH 496 0
DWIDTH 5 0
BBX 5 10 0 -2
BITMAP
0180
0180
2E80
6180
5180
5180
6180
2E80
0000
0900
ENDCHAR
STARTCHAR D_uniF6C3.ccmp
ENCODING -1
SWIDTH 570 0
DWIDTH 6 0
BBX 5 11 1 -3
BITMAP
FD00
8740
8140
8180
8180
8140
8740
FD00
0000
2400
2000
ENDCHAR
STARTCHAR d_uniF6C3.ccmp
ENCODING -1
SWIDTH 496 0
DWIDTH 5 0
BBX 5 11 0 -3
BITMAP
0180
0180
2E80
6180
5180
5180
6180
2E80
0000
0900
0800
ENDCHAR
STARTCHAR H_dotbelowcomb.ccmp
ENCODING -1
SWIDTH 620 0
DWIDTH 7 0
BBX 5 10 1 -2
BITMAP
80C0
80C0
80C0
FFC0
80C0
80C0
80C0
80C0
0000
1800
ENDCHAR
STARTCHAR h_dotbelowcomb.ccmp
ENCODING -1
SWIDTH 482 0
DWIDTH 5 0
BBX 5 10 0 -2
BITMAP
6000
6000
6F40
7280
6180
6180
6180
6180
0000
0900
ENDCHAR
STARTCHAR K_acutecomb.ccmp
ENCODING -1
SWIDTH 544 0
DWIDTH 6 0
BBX 5 11 1 0
BITMAP
0D00
1400
0000
8240
8600
9C00
F400
E800
C900
8300
8280
ENDCHAR
STARTCHAR k_acutecomb.ccmp
ENCODING -1
SWIDTH 450 0
DWIDTH 5 0
BBX 5 11 0 0
BITMAP
0700
0900
0000
6000
6000
6240
6A00
6C00
7900
6700
6280
ENDCHAR
STARTCHAR K_dotbelowcomb.ccmp
ENCODING -1
SWIDTH 544 0
DWIDTH 6 0
BBX 5 10 1 -2
BITMAP
8240
8600
9C00
F400
E800
C900
8300
8280
0000
1800
ENDCHAR
STARTCHAR k_dotbelowcomb.ccmp
ENCODING -1
SWIDTH 450 0
DWIDTH 5 0
BBX 5 10 0 -2
BITMAP
6000
6000
6240
6A00
6C00
7900
6700
6280
0000
0C00
ENDCHAR
STARTCHAR L_dotbelowcomb.ccmp
ENCODING -1
SWIDTH 475 0
DWIDTH 5 0
BBX 4 10 1 -2
BITMAP
80
80
80
80
80
80
80
FF
00
24
ENDCHAR
STARTCHAR l_dotbelowcomb.ccmp
ENCODING -1
SWIDTH 229 0
DWIDTH 3 0
BBX 2 10 0 -2
BITMAP
60
60
60
60
60
60
60
60
00
60
ENDCHAR
STARTCHAR M_dotbelowcomb.ccmp
ENCODING -1
SWIDTH 755 0
DWIDTH 8 0
BBX 7 10 1 -2
BITMAP
D034
E074
B0A4
A4E4
99A4
8A64
8B24
8624
0000
0600
ENDCHAR
STARTCHAR m_dotbelowcomb.ccmp
ENCODING -1
SWIDTH 752 0
DWIDTH 8 0
BBX 8 8 0 -2
BITMAP
6F7C
62C9
6186
6186
6186
6186
0000
0180
ENDCHAR
STARTCHAR N_dotbelowcomb.ccmp
ENCODING -1
SWIDTH 619 0
DWIDTH 7 0
BBX 5 10 1 -2
BITMAP
C0C0
E0C0
E0C0
98C0
88C0
86C0
82C0
81C0
0000
1800
ENDCHAR
STARTCHAR n_dotbelowcomb.ccmp
ENCODING -1
SWIDTH 483 0
DWIDTH 5 0
BBX 5 8 0 -2
BITMAP
6F40
7280
6180
6180
6180
6180
0000
0800
ENDCHAR
STARTCHAR O_tildecomb_acutecomb.ccmp
ENCODING -1
SWIDTH 600 0
DWIDTH 7 0
BBX 6 11 0 0
BITMAP
0200
0A40
0000
1B80
34A0
6020
6030
6030
6030
34A0
1F80
ENDCHAR
STARTCHAR P_acutecomb.ccmp
ENCODING -1
SWIDTH 554 0
DWIDTH 6 0
BBX 5 11 1 0
BITMAP
0D00
1400
0000
FE00
8240
8180
8240
FE00
8000
8000
8000
ENDCHAR
STARTCHAR p_acutecomb.ccmp
ENCODING -1
SWIDTH 493 0
DWIDTH 5 0
BBX 5 11 0 -2
BITMAP
0340
0600
0000
6F40
6180
60C0
60C0
6180
6F40
6000
6000
ENDCHAR
STARTCHAR R_dotbelowcomb.ccmp
ENCODING -1
SWIDTH 530 0
DWIDTH 6 0
BBX 5 10 1 -2
BITMAP
FE00
8340
8240
8340
FE00
8900
8300
8240
0000
2400
ENDCHAR
STARTCHAR r_dotbelowcomb.ccmp
ENCODING -1
SWIDTH 304 0
DWIDTH 3 0
BBX 3 8 0 -2
BITMAP
6C
70
60
60
60
60
00
60
ENDCHAR
STARTCHAR S_dotbelowcomb.ccmp
ENCODING -1
SWIDTH 518 0
DWIDTH 6 0
BBX 6 10 0 -2
BITMAP
1F40
71C0
6040
2900
0680
5090
60C0
1F40
0000
0900
ENDCHAR
STARTCHAR s_dotbelowcomb.ccmp
ENCODING -1
SWIDTH 455 0
DWIDTH 5 0
BBX 5 8 0 -2
BITMAP
2E00
6240
3900
0740
6240
2E00
0000
0800
ENDCHAR
STARTCHAR T_dotbelowcomb.ccmp
ENCODING -1
SWIDTH 520 0
DWIDTH 6 0
BBX 6 10 0 -2
BITMAP
BFD0
0900
0900
0900
0900
0900
0900
0900
0000
0900
ENDCHAR
STARTCHAR t_dotbelowcomb.ccmp
ENCODING -1
SWIDTH 295 0
DWIDTH 3 0
BBX 3 9 0 -2
BITMAP
30
F8
30
30
30
30
28
00
18
ENDCHAR
STARTCHAR U_tildecomb_acutecomb.ccmp
ENCODING -1
SWIDTH 561 0
DWIDTH 6 0
BBX 6 11 0 0
BITMAP
0200
0A40
0000
6060
6060
6060
6060
6060
6090
3090
1F80
ENDCHAR
STARTCHAR V_tildecomb.ccmp
ENCODING -1
SWIDTH 560 0
DWIDTH 6 0
BBX 6 11 0 0
BITMAP
1D80
1640
0000
9060
6090
30D0
24C0
1980
0A40
0B00
0600
ENDCHAR
STARTCHAR v_tildecomb.ccmp
ENCODING -1
SWIDTH 427 0
DWIDTH 5 0
BBX 5 9 0 0
BITMAP
2600
5A00
0000
9240
6300
2200
2500
1C00
0C00
ENDCHAR
STARTCHAR V_dotbelowcomb.ccmp
ENCODING -1
SWIDTH 560 0
DWIDTH 6 0
BBX 6 10 0 -2
BITMAP
9060
6090
30D0
24C0
1980
0A40
0B00
0600
0000
0600
ENDCHAR
STARTCHAR v_dotbelowcomb.ccmp
ENCODING -1
SWIDTH 427 0
DWIDTH 5 0
BBX 5 8 0 -2
BITMAP
9240
6300
2200
2500
1C00
0C00
0000
0800
ENDCHAR
STARTCHAR W_dotbelowcomb.ccmp
ENCODING -1
SWIDTH 761 0
DWIDTH 8 0
BBX 8 10 0 -2
BITMAP
9183
61C2
2296
3259
2629
2928
1D28
0C18
0000
0180
ENDCHAR
STARTCHAR w_dotbelowcomb.ccmp
ENCODING -1
SWIDTH 649 0
DWIDTH 7 0
BBX 7 8 0 -2
BITMAP
9318
6758
26A4
38A0
28A0
1860
0000
0300
ENDCHAR
STARTCHAR Z_dotbelowcomb.ccmp
ENCODING -1
SWIDTH 522 0
DWIDTH 6 0
BBX 6 10 0 -2
BITMAP
7FC0
0180
0240
0600
0C00
2400
7000
BFD0
0000
0900
ENDCHAR
STARTCHAR z_dotbelowcomb.ccmp
ENCODING -1
SWIDTH 438 0
DWIDTH 5 0
BBX 5 8 0 -2
BITMAP
7F40
0600
0900
1800
3000
7F40
0000
0C00
ENDCHAR
STARTCHAR Alphatonos.c2sc
ENCODING -1
SWIDTH 501 0
DWIDTH 6 0
BBX 5 7 0 0
BITMAP
2000
5900
1E00
2700
3240
7F80
90C0
ENDCHAR
STARTCHAR Epsilontonos.c2sc
ENCODING -1
SWIDTH 458 0
DWIDTH 5 0
BBX 6 7 -1 0
BITMAP
9000
8FE0
0C00
0FD0
0C00
0C00
0FE0
ENDCHAR
STARTCHAR Etatonos.c2sc
ENCODING -1
SWIDTH 562 0
DWIDTH 6 0
BBX 7 7 -1 0
BITMAP
5000
4C14
0C14
0FF4
0C14
0C14
0C14
ENDCHAR
STARTCHAR Iotatonos.c2sc
ENCODING -1
SWIDTH 250 0
DWIDTH 3 0
BBX 3 7 -1 0
BITMAP
50
4C
0C
0C
0C
0C
0C
ENDCHAR
STARTCHAR Omicrontonos.c2sc
ENCODING -1
SWIDTH 523 0
DWIDTH 6 0
BBX 6 7 0 0
BITMAP
8000
5F40
71C0
6090
6090
31C0
1F40
ENDCHAR
STARTCHAR Upsilontonos.c2sc
ENCODING -1
SWIDTH 487 0
DWIDTH 5 0
BBX 6 7 -1 0
BITMAP
C000
9830
0990
06C0
0240
0240
0240
ENDCHAR
STARTCHAR Omegatonos.c2sc
ENCODING -1
SWIDTH 545 0
DWIDTH 6 0
BBX 6 7 0 0
BITMAP
C000
9F40
30C0
6090
6090
2480
7AD0
ENDCHAR
STARTCHAR Alpha.c2sc
ENCODING -1
SWIDTH 501 0
DWIDTH 6 0
BBX 5 6 0 0
BITMAP
0900
1E00
2700
3240
7F80
90C0
ENDCHAR
STARTCHAR Beta.c2sc
ENCODING -1
SWIDTH 475 0
DWIDTH 5 0
BBX 5 6 0 0
BITMAP
7F40
6240
7F00
6180
6180
7F40
ENDCHAR
STARTCHAR Epsilon.c2sc
ENCODING -1
SWIDTH 428 0
DWIDTH 5 0
BBX 5 6 0 0
BITMAP
7F40
6000
7F00
6000
6000
7F40
ENDCHAR
STARTCHAR Zeta.c2sc
ENCODING -1
SWIDTH 454 0
DWIDTH 5 0
BBX 5 6 0 0
BITMAP
BF40
0200
0900
1800
2000
BF80
ENDCHAR
STARTCHAR Eta.c2sc
ENCODING -1
SWIDTH 533 0
DWIDTH 6 0
BBX 5 6 0 0
BITMAP
6080
6080
7FC0
6080
6080
6080
ENDCHAR
STARTCHAR Iota.c2sc
ENCODING -1
SWIDTH 221 0
DWIDTH 2 0
BBX 2 6 0 0
BITMAP
60
60
60
60
60
60
ENDCHAR
STARTCHAR Kappa.c2sc
ENCODING -1
SWIDTH 473 0
DWIDTH 5 0
BBX 5 6 0 0
BITMAP
6280
6600
6C00
7900
6340
6180
ENDCHAR
STARTCHAR Mu.c2sc
ENCODING -1
SWIDTH 652 0
DWIDTH 7 0
BBX 7 6 0 0
BITMAP
7034
7474
68A4
6994
6754
6314
ENDCHAR
STARTCHAR Nu.c2sc
ENCODING -1
SWIDTH 533 0
DWIDTH 6 0
BBX 5 6 0 0
BITMAP
7080
7880
6880
6680
62C0
60C0
ENDCHAR
STARTCHAR Omicron.c2sc
ENCODING -1
SWIDTH 519 0
DWIDTH 6 0
BBX 5 6 0 0
BITMAP
1F40
71C0
6080
6080
71C0
1F40
ENDCHAR
STARTCHAR Rho.c2sc
ENCODING -1
SWIDTH 481 0
DWIDTH 5 0
BBX 5 6 0 0
BITMAP
7F40
6180
61C0
7F40
6000
6000
ENDCHAR
STARTCHAR Tau.c2sc
ENCODING -1
SWIDTH 456 0
DWIDTH 5 0
BBX 5 6 0 0
BITMAP
BF80
0C00
0C00
0C00
0C00
0C00
ENDCHAR
STARTCHAR Upsilon.c2sc
ENCODING -1
SWIDTH 458 0
DWIDTH 5 0
BBX 5 6 0 0
BITMAP
9180
3300
2A00
0C00
0C00
0C00
ENDCHAR
STARTCHAR Chi.c2sc
ENCODING -1
SWIDTH 478 0
DWIDTH 5 0
BBX 5 6 0 0
BITMAP
6180
2700
1D00
1E00
2700
6180
ENDCHAR
STARTCHAR Iotadieresis.c2sc
ENCODING -1
SWIDTH 221 0
DWIDTH 2 0
BBX 4 8 -1 0
BITMAP
62
00
18
18
18
18
18
18
ENDCHAR
STARTCHAR Upsilondieresis.c2sc
ENCODING -1
SWIDTH 458 0
DWIDTH 5 0
BBX 5 8 0 0
BITMAP
2200
0000
9180
3300
2A00
0C00
0C00
0C00
ENDCHAR
STARTCHAR uni0401.c2sc
ENCODING -1
SWIDTH 428 0
DWIDTH 5 0
BBX 5 8 0 0
BITMAP
2240
0000
7F40
6000
7F00
6000
6000
7F40
ENDCHAR
STARTCHAR uni0403.c2sc
ENCODING -1
SWIDTH 405 0
DWIDTH 4 0
BBX 5 9 0 0
BITMAP
0700
0900
0000
7F40
6000
6000
6000
6000
6000
ENDCHAR
STARTCHAR uni0405.c2sc
ENCODING -1
SWIDTH 453 0
DWIDTH 5 0
BBX 5 6 0 0
BITMAP
2E00
6240
3900
0640
6280
2E00
ENDCHAR
STARTCHAR uni0406.c2sc
ENCODING -1
SWIDTH 221 0
DWIDTH 2 0
BBX 2 6 0 0
BITMAP
60
60
60
60
60
60
ENDCHAR
STARTCHAR uni0407.c2sc
ENCODING -1
SWIDTH 221 0
DWIDTH 2 0
BBX 4 8 -1 0
BITMAP
62
00
18
18
18
18
18
18
ENDCHAR
STARTCHAR uni0408.c2sc
ENCODING -1
SWIDTH 419 0
DWIDTH 5 0
BBX 4 6 0 0
BITMAP
03
03
03
03
97
7D
ENDCHAR
STARTCHAR uni040C.c2sc
ENCODING -1
SWIDTH 473 0
DWIDTH 5 0
BBX 5 9 0 0
BITMAP
0600
0800
0000
6280
6600
6C00
7900
6340
6180
ENDCHAR
STARTCHAR uni040E.c2sc
ENCODING -1
SWIDTH 454 0
DWIDTH 5 0
BBX 5 9 0 0
BITMAP
3300
2E00
0000
A180
3240
2600
1D00
0C00
3400
ENDCHAR
STARTCHAR uni0410.c2sc
ENCODING -1
SWIDTH 501 0
DWIDTH 6 0
BBX 5 6 0 0
BITMAP
0900
1E00
2700
3240
7F80
90C0
ENDCHAR
STARTCHAR uni0412.c2sc
ENCODING -1
SWIDTH 475 0
DWIDTH 5 0
BBX 5 6 0 0
BITMAP
7F40
6240
7F00
6180
6180
7F40
ENDCHAR
STARTCHAR uni0413.c2sc
ENCODING -1
SWIDTH 405 0
DWIDTH 4 0
BBX 5 6 0 0
BITMAP
7F40
6000
6000
6000
6000
6000
ENDCHAR
STARTCHAR uni0415.c2sc
ENCODING -1
SWIDTH 428 0
DWIDTH 5 0
BBX 5 6 0 0
BITMAP
7F40
6000
7F00
6000
6000
7F40
ENDCHAR
STARTCHAR uni0419.c2sc
ENCODING -1
SWIDTH 537 0
DWIDTH 6 0
BBX 6 9 0 0
BITMAP
2540
1F00
0000
60D0
62D0
6690
6890
7890
7090
ENDCHAR
STARTCHAR uni041C.c2sc
ENCODING -1
SWIDTH 652 0
DWIDTH 7 0
BBX 7 6 0 0
BITMAP
7034
7474
68A4
6994
6754
6314
ENDCHAR
STARTCHAR uni041D.c2sc
ENCODING -1
SWIDTH 533 0
DWIDTH 6 0
BBX 5 6 0 0
BITMAP
6080
6080
7FC0
6080
6080
6080
ENDCHAR
STARTCHAR uni041E.c2sc
ENCODING -1
SWIDTH 519 0
DWIDTH 6 0
BBX 5 6 0 0
BITMAP
1F40
71C0
6080
6080
71C0
1F40
ENDCHAR
STARTCHAR uni041F.c2sc
ENCODING -1
SWIDTH 525 0
DWIDTH 6 0
BBX 5 6 0 0
BITMAP
7FC0
60C0
60C0
60C0
60C0
60C0
ENDCHAR
STARTCHAR uni0420.c2sc
ENCODING -1
SWIDTH 481 0
DWIDTH 5 0
BBX 5 6 0 0
BITMAP
7F40
6180
61C0
7F40
6000
6000
ENDCHAR
STARTCHAR uni0421.c2sc
ENCODING -1
SWIDTH 490 0
DWIDTH 5 0
BBX 5 6 0 0
BITMAP
2F40
6180
6040
6040
6180
2F40
ENDCHAR
STARTCHAR uni0422.c2sc
ENCODING -1
SWIDTH 456 0
DWIDTH 5 0
BBX 5 6 0 0
BITMAP
BF80
0C00
0C00
0C00
0C00
0C00
ENDCHAR
STARTCHAR uni0425.c2sc
ENCODING -1
SWIDTH 478 0
DWIDTH 5 0
BBX 5 6 0 0
BITMAP
6180
2700
1D00
1E00
2700
6180
ENDCHAR
STARTCHAR uni0498.c2sc
ENCODING -1
SWIDTH 466 0
DWIDTH 5 0
BBX 5 8 0 -2
BITMAP
2E00
5240
0E00
0240
5240
7E00
0C00
0C00
ENDCHAR
STARTCHAR uni04A2.c2sc
ENCODING -1
SWIDTH 533 0
DWIDTH 6 0
BBX 6 8 0 -2
BITMAP
6080
6080
7FC0
6080
6080
60B0
0030
0030
ENDCHAR
STARTCHAR uni04AA.c2sc
ENCODING -1
SWIDTH 490 0
DWIDTH 5 0
BBX 5 8 0 -2
BITMAP
1F40
61C0
6000
6000
6180
2F40
0900
0900
ENDCHAR
STARTCHAR uni04AE.c2sc
ENCODING -1
SWIDTH 458 0
DWIDTH 5 0
BBX 5 6 0 0
BITMAP
9180
3300
2A00
0C00
0C00
0C00
ENDCHAR
STARTCHAR uni04BE.c2sc
ENCODING -1
SWIDTH 632 0
DWIDTH 7 0
BBX 7 8 0 -2
BITMAP
07D0
0D30
9824
7FF4
1C00
07E0
0180
0180
ENDCHAR
STARTCHAR uni04E2.c2sc
ENCODING -1
SWIDTH 537 0
DWIDTH 6 0
BBX 6 8 0 0
BITMAP
2F80
0000
60D0
62D0
6690
6890
7890
7090
ENDCHAR
STARTCHAR uni04EE.c2sc
ENCODING -1
SWIDTH 454 0
DWIDTH 5 0
BBX 5 8 0 0
BITMAP
3F00
0000
A180
3240
2600
1D00
0C00
3400
ENDCHAR
STARTCHAR uni0424.c2sc
ENCODING -1
SWIDTH 587 0
DWIDTH 6 0
BBX 6 6 0 0
BITMAP
0600
2F90
6660
6660
2F90
0600
ENDCHAR
STARTCHAR IJ.c2sc
ENCODING -1
SWIDTH 641 0
DWIDTH 7 0
BBX 7 6 0 0
BITMAP
6024
6024
6024
6024
6624
62E0
ENDCHAR
STARTCHAR AEacute.c2sc
ENCODING -1
SWIDTH 676 0
DWIDTH 7 0
BBX 7 9 0 0
BITMAP
00A0
0080
0000
07F8
0A80
09F8
2580
3F80
A1FC
ENDCHAR
STARTCHAR Oslashacute.c2sc
ENCODING -1
SWIDTH 519 0
DWIDTH 6 0
BBX 5 9 0 0
BITMAP
0340
0500
0000
1F80
72C0
6680
6880
75C0
3F40
ENDCHAR
STARTCHAR uni0218.c2sc
ENCODING -1
SWIDTH 453 0
DWIDTH 5 0
BBX 5 9 0 -3
BITMAP
2E00
6240
3900
0640
6280
2E00
0000
0C00
0800
ENDCHAR
STARTCHAR Wgrave.c2sc
ENCODING -1
SWIDTH 655 0
DWIDTH 7 0
BBX 7 9 0 0
BITMAP
0A00
0200
0000
934C
6358
2594
28A4
28B0
1860
ENDCHAR
STARTCHAR Wacute.c2sc
ENCODING -1
SWIDTH 655 0
DWIDTH 7 0
BBX 7 9 0 0
BITMAP
01C0
0240
0000
934C
6358
2594
28A4
28B0
1860
ENDCHAR
STARTCHAR Wdieresis.c2sc
ENCODING -1
SWIDTH 655 0
DWIDTH 7 0
BBX 7 8 0 0
BITMAP
0C90
0000
934C
6358
2594
28A4
28B0
1860
ENDCHAR
STARTCHAR Ygrave.c2sc
ENCODING -1
SWIDTH 458 0
DWIDTH 5 0
BBX 5 9 0 0
BITMAP
2400
0800
0000
9180
3300
2A00
0C00
0C00
0C00
ENDCHAR
STARTCHAR Aogonek.locl
ENCODING -1
SWIDTH 576 0
DWIDTH 6 0
BBX 6 10 0 -2
BITMAP
0600
0B00
0A40
1980
24C0
3FD0
6060
9030
0800
0A00
ENDCHAR
STARTCHAR aogonek.locl
ENCODING -1
SWIDTH 479 0
DWIDTH 5 0
BBX 5 8 0 -2
BITMAP
2E00
1240
2F80
6180
6280
2E80
2400
2800
ENDCHAR
STARTCHAR Eogonek.locl
ENCODING -1
SWIDTH 496 0
DWIDTH 5 0
BBX 4 10 1 -2
BITMAP
FF
80
80
FE
80
80
80
FF
20
34
ENDCHAR
STARTCHAR eogonek.locl
ENCODING -1
SWIDTH 468 0
DWIDTH 5 0
BBX 5 8 0 -2
BITMAP
2E00
6180
7F80
6000
6000
2F40
1800
1C00
ENDCHAR
STARTCHAR Aogonek.c2sc.locl
ENCODING -1
SWIDTH 501 0
DWIDTH 6 0
BBX 5 8 0 -2
BITMAP
0900
1E00
2700
3240
7F80
90C0
1800
1D00
ENDCHAR
STARTCHAR Eogonek.c2sc.locl
ENCODING -1
SWIDTH 428 0
DWIDTH 5 0
BBX 5 8 0 -2
BITMAP
7F40
6000
7F00
6000
6000
7F40
1400
1C00
ENDCHAR
STARTCHAR glyph1293
ENCODING -1
SWIDTH 234 0
DWIDTH 3 0
BBX 2 8 0 -2
BITMAP
60
60
60
60
60
60
00
60
ENDCHAR
ENDFONT
